<?xml version="1.0" encoding="UTF-8"?>
<svg width="200px" height="80px" viewBox="0 0 200 80" version="1.1" xmlns="http://www.w3.org/2000/svg" xmlns:xlink="http://www.w3.org/1999/xlink">
    <!-- Generator: Sketch 63.1 (92452) - https://sketch.com -->
    <title>airbp</title>
    <desc>Created with Sketch.</desc>
    <g id="airbp" stroke="none" stroke-width="1" fill="none" fill-rule="evenodd">
        <g id="Air-BP" transform="translate(45.000000, 15.000000)">
            <path d="M60.5727477,18.7594977 C63.2960626,18.7594977 64.9893538,19.9799802 64.9399739,22.7315478 L64.9399739,22.7315478 L64.9399739,28.4259274 C64.9153998,29.3590913 65.013696,30.3157651 65.0628441,31.1295709 L65.0628441,31.1295709 L63.5418031,31.1295709 L63.4924232,29.3590913 L63.4435069,29.3590913 L63.3695529,29.5263736 C62.8298511,30.5311976 61.185708,31.4885496 59.5174545,31.4885496 C57.2355452,31.4885496 55.4198473,30.1245208 55.4198473,27.77963 C55.4198473,26.1526967 56.4255288,24.9087042 57.8981172,24.310557 C59.5420285,23.6165616 61.6767253,23.8559561 63.4678491,23.7601079 L63.4678491,23.7601079 L63.4678491,22.6596617 C63.3208685,20.6977117 62.2901493,20.0756024 60.5479418,20.0756024 C59.0023267,20.0756024 57.7260989,20.5299773 57.5299701,22.1571366 L57.5299701,22.1571366 L55.959781,22.1571366 C56.3276962,19.6928877 58.2168844,18.7594977 60.5727477,18.7594977 Z M70.2648926,19.1184765 L70.2648926,31.1295709 L68.7923041,31.1295709 L68.7923041,19.1184765 L70.2648926,19.1184765 Z M79.980916,18.7836858 L79.980916,20.1712246 C79.6864911,20.1472625 79.3674921,20.0756024 79.0730671,20.0756024 C76.8892222,20.0756024 75.7360964,21.6069135 75.6869483,23.9036542 L75.6869483,31.1295709 L74.2145917,31.1295709 L74.2145917,21.8221199 C74.2393976,20.8891821 74.1411014,19.9320561 74.0921851,19.1184765 L75.613458,19.1184765 L75.6869483,20.8891821 L75.7360964,20.8891821 C76.1779657,19.6686995 77.2817115,18.8074218 78.5087913,18.7594977 C78.9995768,18.7357617 79.4903623,18.7594977 79.980916,18.7836858 Z M63.4678491,25.0762126 C61.3823004,25.1478727 57.0146105,24.7651579 57.0146105,27.77963 C57.0146105,29.4065633 58.2906065,30.1722188 59.7873054,30.1722188 C63.0016376,30.1722188 63.6150616,27.5886117 63.4678491,25.0762126 Z M70.387531,13.8549618 L70.387531,15.6494035 L68.6698975,15.6494035 L68.6698975,13.8549618 L70.387531,13.8549618 Z" id="Combined-Shape" fill="#99CC00"></path>
            <path d="M104.506895,18.9234944 C107.102077,18.9234944 109.580153,20.7087576 109.580153,25.2031519 C109.580153,29.7164704 106.959779,31.6973601 104.076142,31.6973601 C102.317727,31.6973601 101.022292,30.9479144 100.37639,29.8849646 L100.37639,29.8849646 L100.37639,35.8969466 L98.1386554,35.8969466 L98.1383231,20.9923293 C98.1352249,20.5209703 98.1104984,20.1961765 98.0658042,19.1168409 L98.0658042,19.1168409 L100.349837,19.1168409 L100.397951,21.1203029 C101.527939,19.2157942 103.521928,18.9234944 104.506895,18.9234944 Z M87.324904,14.4847328 L87.324904,20.8781638 C87.6367344,20.3257126 88.5250198,18.8028808 91.2647698,18.8028808 C92.4657934,18.8028808 93.9811438,19.0917606 95.0854864,20.3498809 C95.6871329,21.0464299 96.503021,22.2566696 96.503021,24.9108521 C96.503021,27.2522144 95.9531193,28.532907 95.3507919,29.3293214 C94.3941943,30.7062312 92.7796663,31.4062003 91.1213369,31.4062003 C90.5432932,31.4062003 89.4655039,31.3343794 88.4278849,30.6330423 C87.7581531,30.1761244 87.4908051,29.764579 87.2538684,29.4038783 L87.2538684,29.4038783 L87.2062088,31.2365661 L85.019084,31.2365661 L85.0656089,29.0634699 L85.0656089,14.4847328 L87.324904,14.4847328 Z M103.905929,20.6152763 C100.300816,20.6152763 100.300816,24.4518821 100.300816,25.5401402 C100.300816,27.0128113 100.517554,30.0292905 103.689418,30.0292905 C104.267915,30.0292905 105.470074,29.9098169 106.239664,28.8473231 C107.102077,27.6637598 107.223269,25.9250092 107.223269,25.058142 C107.223269,22.8804857 106.575551,20.6152763 103.905929,20.6152763 Z M90.7341588,20.3498809 C87.2767905,20.3498809 87.2767905,24.4035455 87.2767905,25.1767035 L87.2768328,25.237178 C87.2786105,26.149372 87.3550515,29.764579 90.6420168,29.764579 C93.4310151,29.764579 94.1250306,27.0344716 94.1250306,25.058142 C94.1250306,23.8492703 93.8828741,20.3498809 90.7341588,20.3498809 Z" id="Combined-Shape" fill="#009900"></path>
            <path d="M26.3002457,34.7184517 C27.1828339,36.2156509 28.3138594,37.4953695 29.5569706,38.5866973 C29.2551481,40.5654936 28.6484987,42.4316249 27.9540297,44.0839695 C26.731949,42.7680041 25.5218857,41.218628 24.5611843,39.463084 C25.3564149,38.0143678 25.9769305,36.4280523 26.3002457,34.7184517 Z M22.8244338,34.7184517 C23.1449758,36.4280523 23.7680336,38.0143678 24.5611843,39.463084 C23.598865,41.218628 22.3938861,42.7680041 21.1676455,44.0839695 C20.4741009,42.4316249 19.8695314,40.5654936 19.5670156,38.5866973 C20.8073536,37.4953695 21.9388413,36.2156509 22.8244338,34.7184517 Z M29.5652904,33.5336211 C30.9105498,34.6362616 32.4090315,35.4512366 33.9458765,36.0496546 C34.3429141,38.0143678 34.4143254,39.9756179 34.3221147,41.7687939 C32.7258757,40.9508175 31.0582256,39.903817 29.5569706,38.5866973 C29.8051769,36.9512063 29.8504733,35.2471466 29.5652904,33.5336211 Z M19.5600825,33.5336211 C19.2751306,35.2457613 19.315805,36.9512063 19.5670156,38.5866973 C18.064143,39.903817 16.3960306,40.9508175 14.800485,41.7687939 C14.7082743,39.9756179 14.78061,38.0143678 15.1744121,36.0496546 C16.7124126,35.4512366 18.2132054,34.6362616 19.5600825,33.5336211 Z M32.2262278,31.3004048 C33.8682254,31.8782752 35.5571372,32.1324643 37.2079168,32.1714815 C38.2501981,33.8794661 38.9913503,35.7003466 39.5157265,37.4129485 C37.7357595,37.1924666 35.8141254,36.7780529 33.9458765,36.0496546 C33.624179,34.4307863 33.0790035,32.8146885 32.2262278,31.3004048 Z M16.9000695,31.3004048 C16.041054,32.8146885 15.5002694,34.4307863 15.1744121,36.0496546 C13.3082431,36.7780529 11.3873023,37.1883109 9.60733535,37.4129485 C10.1351781,35.7003466 10.8751747,33.8794661 11.9156073,32.1714815 C13.5652313,32.1324643 15.2562231,31.8782752 16.9000695,31.3004048 Z M38.9425873,27.4097647 C40.5043916,28.6606244 41.8260783,30.116036 42.9076475,31.5460517 C41.159804,31.9468439 39.2120551,32.2174249 37.2079168,32.1714815 C36.3489013,30.7622442 35.2855894,29.4248078 33.9611294,28.2958481 C35.7041197,28.2778401 37.3768542,27.9373052 38.9425873,27.4097647 Z M10.1807057,27.4097647 C11.7436655,27.9386904 13.4175555,28.2778401 15.1598525,28.2958481 C13.8372413,29.4248078 12.7720806,30.7622442 11.9156073,32.1714815 C9.91262442,32.2174249 7.96348892,31.9468439 6.21310331,31.5460517 C7.29837012,30.1201916 8.61589697,28.6606244 10.1807057,27.4097647 Z M10.1807057,22.3407585 C11.4711933,23.3752919 12.9259962,24.2641457 14.5564386,24.8752616 C12.9259962,25.4863774 11.4711933,26.3780017 10.1807057,27.4097647 C8.28102653,26.7686356 6.54381387,25.8493068 5.03816794,24.8752616 C6.54381387,23.905372 8.28102653,22.9818875 10.1807057,22.3407585 Z M38.9425873,22.3407585 C40.8394931,22.9818875 42.5780924,23.905372 44.0839695,24.8752616 C42.5780924,25.8493068 40.8394931,26.7686356 38.9425873,27.4097647 C37.6525619,26.3780017 36.1963723,25.4863774 34.5656988,24.8752616 C36.1963723,24.2641457 37.6525619,23.3752919 38.9425873,22.3407585 Z M11.3707831,17.5772282 L11.9156073,17.5818121 C12.7720806,18.991742 13.8372413,20.3257153 15.1598525,21.4562912 C13.4175555,21.4740683 11.7436655,21.8134488 10.1807057,22.3407585 C8.61589697,21.0905913 7.29837012,19.633102 6.21310331,18.2058567 C7.96348892,17.8055262 9.91262442,17.5370231 11.9156073,17.5818121 Z M37.2079168,17.5818121 C39.2120551,17.5370231 41.159804,17.8055262 42.9076475,18.2058567 C41.8260783,19.633102 40.5043916,21.0905913 38.9425873,22.3407585 C37.3768542,21.8134488 35.7041197,21.4740683 33.9611294,21.4562912 C35.2855894,20.3257153 36.3489013,18.991742 37.2079168,17.5818121 Z M9.60733535,12.3403451 C11.3873023,12.5624431 13.3082431,12.9738555 15.1744121,13.7008686 C15.5002694,15.3197369 16.041054,16.9362965 16.9000695,18.4515036 C15.2562231,17.8736332 13.5652313,17.6180589 11.9156073,17.5818121 C10.8751747,15.8708262 10.1351781,14.0501766 9.60733535,12.3403451 Z M39.5157265,12.3403451 C38.9913503,14.0501766 38.2501981,15.8708262 37.2079168,17.5818121 C35.5571372,17.6180589 33.8682254,17.8736332 32.2262278,18.4515036 C33.0790035,16.9362965 33.624179,15.3197369 33.9458765,13.7008686 C35.8141254,12.9708541 37.7357595,12.5624431 39.5157265,12.3403451 Z M14.800485,7.98565408 C16.3960306,8.80524655 18.064143,9.84670617 19.5670156,11.1652111 C19.315805,12.7993169 19.2751306,14.5047618 19.5600825,16.2182873 C18.2132054,15.1158777 16.7124126,14.30021 15.1744121,13.7008686 C14.78061,11.738695 14.7082743,9.77375089 14.800485,7.98565408 Z M34.3221147,7.9814984 C34.4143254,9.77375089 34.3429141,11.7373097 33.9458765,13.7008686 C32.4090315,14.30021 30.9105498,15.1158777 29.5652904,16.2182873 C29.8504733,14.5047618 29.8051769,12.7993169 29.5569706,11.1652111 C31.0582256,9.84670617 32.7258757,8.80109087 34.3221147,7.9814984 Z M21.1676455,5.66793893 C22.3938861,6.9839043 23.598865,8.53050992 24.5611843,10.2860539 C23.7680336,11.7345393 23.1449758,13.3210856 22.8244338,15.0334567 C21.9388413,13.5346414 20.8073536,12.2565389 19.5670156,11.1652111 C19.8695314,9.18779999 20.4741009,7.32028352 21.1676455,5.66793893 Z M27.9540297,5.66793893 C28.6480365,7.31751307 29.2551481,9.18779999 29.5569706,11.1652111 C28.3138594,12.2565389 27.1828339,13.5346414 26.3002457,15.0334567 C25.9769305,13.3210856 25.3564149,11.7345393 24.5611843,10.2860539 C25.5218857,8.53050992 26.731949,6.9839043 27.9540297,5.66793893 Z" id="Combined-Shape" fill="#99CC00"></path>
            <path d="M24.8754988,30.2109484 C25.1694752,31.99962 25.7720017,33.5735043 26.5890331,34.9646933 C26.2704637,36.6621319 25.6590565,38.2371624 24.8754988,39.6755725 C24.0939905,38.2371624 23.4800784,36.6621319 23.1642416,34.9646933 C23.9801344,33.5735043 24.5835717,31.99962 24.8754988,30.2109484 Z M26.5808355,29.9085957 C27.463448,31.4866062 28.5662582,32.761347 29.8061511,33.7882916 C30.087148,35.4896271 30.0425164,37.1815642 29.7979535,38.8054203 C28.5730895,37.7218562 27.458666,36.4512415 26.5890331,34.9646933 C26.8836927,33.3804937 26.9142061,31.6880982 26.5808355,29.9085957 Z M23.1710729,29.9085957 C22.8358806,31.6880982 22.8704928,33.3804937 23.1642416,34.9646933 C22.2916484,36.4512415 21.1767694,37.7218562 19.954638,38.8054203 C19.7071149,37.1815642 19.6670375,35.4882517 19.9478067,33.7882916 C21.1849671,32.761347 22.2902821,31.4866062 23.1710729,29.9085957 Z M28.0764492,29.0350051 C29.4449996,30.2178253 30.915565,31.0366302 32.4280294,31.5709623 C33.2682875,33.0744734 33.8054606,34.6790744 34.122436,36.2864261 C32.6081498,35.6922653 31.1316639,34.8830879 29.8061511,33.7882916 C29.5447375,32.193089 28.9991391,30.5939896 28.0764492,29.0350051 Z M21.6738652,29.0350051 C20.7541356,30.5939896 20.209448,32.193089 19.9478067,33.7882916 C18.6207,34.8830879 17.1419369,35.6922653 15.6265122,36.2864261 C15.9475864,34.6790744 16.4804329,33.0744734 17.3268392,31.5709623 C18.8361157,31.0366302 20.3069088,30.2178253 21.6738652,29.0350051 Z M29.1908728,27.7013525 C30.8782202,28.3427344 32.5364205,28.6047428 34.137465,28.5877799 C35.4424836,29.7087083 36.4901875,31.0366302 37.3365937,32.4358422 C35.7100454,32.3971026 34.0459247,32.1447218 32.4280294,31.5709623 C31.6406006,30.166478 30.5835606,28.848413 29.1908728,27.7013525 Z M20.5608079,27.7013525 C19.1653875,28.848413 18.1081198,30.166478 17.3268392,31.5709623 C15.7071223,32.1447218 14.0409521,32.3971026 12.4155424,32.4358422 C13.2594438,31.0366302 14.3089694,29.7087083 15.6121663,28.5877799 C17.2143494,28.6047428 18.8741436,28.3427344 20.5608079,27.7013525 Z M34.7331601,25.1915274 C36.3398974,25.7982958 37.774712,26.683577 39.0458015,27.7080001 C37.5030513,28.2317877 35.8548704,28.5699001 34.137465,28.5877799 C32.9203432,27.5363078 31.4814298,26.6631757 29.7824691,26.0605334 C31.5829895,26.0871239 33.2332198,25.7579515 34.7331601,25.1915274 Z M15.0176097,25.1915274 C16.5184609,25.7579515 18.165731,26.0871239 19.9683008,26.0632842 C18.2659243,26.6631757 16.8295158,27.5363078 15.6121663,28.5877799 C13.895444,28.5699001 12.2461245,28.2331631 10.7061069,27.7080001 C11.9776518,26.683577 13.4111001,25.7982958 15.0176097,25.1915274 Z M15.6121663,21.7968794 C16.8295158,22.8467469 18.2659243,23.7185037 19.9683008,24.321146 C18.165731,24.2979939 16.5184609,24.6234986 15.0176097,25.1915274 C13.4111001,24.584759 11.9776518,23.7022285 10.7061069,22.6750546 C12.2461245,22.1514963 13.895444,21.8145301 15.6121663,21.7968794 Z M34.137465,21.7968794 C35.8548704,21.8145301 37.5030513,22.1514963 39.0458015,22.6750546 C37.774712,23.7022285 36.3398974,24.584759 34.7331601,25.1915274 C33.2332198,24.6234986 31.5829895,24.2979939 29.7824691,24.321146 C31.4814298,23.7185037 32.9203432,22.8467469 34.137465,21.7968794 Z M12.4155424,17.9499633 C14.0409521,17.9859522 15.7071223,18.2397084 17.3268392,18.8134678 C18.1081198,20.218869 19.1653875,21.5364756 20.5608079,22.6830776 C18.8741436,22.0423834 17.2129831,21.7806042 15.6121663,21.7968794 C14.3089694,20.6743465 13.2594438,19.349863 12.4155424,17.9499633 Z M37.3365937,17.9499633 C36.4901875,19.349863 35.4424836,20.6743465 34.137465,21.7968794 C32.5364205,21.7806042 30.8782202,22.0423834 29.1895065,22.6830776 C30.5835606,21.5364756 31.6406006,20.218869 32.4280294,18.8134678 C34.0459247,18.2397084 35.7100454,17.9859522 37.3365937,17.9499633 Z M34.122436,14.0966287 C33.8054606,15.7039804 33.2682875,17.3090398 32.4280294,18.8134678 C30.915565,19.349863 29.4449996,20.1705018 28.0764492,21.3519465 C28.9991391,19.7904406 29.5447375,18.1911119 29.8061511,16.5961385 C31.1316639,15.5015714 32.6081498,14.6917064 34.122436,14.0966287 Z M15.6265122,14.0966287 C17.1419369,14.6917064 18.6207,15.5015714 19.9478067,16.5961385 C20.209448,18.1911119 20.7541356,19.7904406 21.6720435,21.3478204 C20.3069088,20.1705018 18.8361157,19.349863 17.3268392,18.8134678 C16.4804329,17.3090398 15.9475864,15.7039804 15.6265122,14.0966287 Z M19.954638,11.5790098 C21.1767694,12.6625739 22.2916484,13.931584 23.1642416,15.4197368 C22.8704928,17.0039364 22.8358806,18.6961027 23.1710729,20.4806482 C22.2902821,18.897824 21.1849671,17.6205616 19.9478067,16.5961385 C19.6670375,14.894803 19.7071149,13.2014906 19.954638,11.5790098 Z M29.7979535,11.5790098 C30.0425164,13.2014906 30.087148,14.894803 29.8061511,16.5961385 C28.5662582,17.6205616 27.463448,18.897824 26.5808355,20.4806482 C26.9142061,18.6961027 26.8836927,17.0039364 26.5890331,15.4197368 C27.458666,13.931584 28.5730895,12.6625739 29.7979535,11.5790098 Z M24.8754988,10.7061069 C25.6590565,12.1442878 26.2704637,13.7195475 26.5890331,15.4197368 C25.7720017,16.8067997 25.1694752,18.3848101 24.8754988,20.1746279 C24.5835717,18.3848101 23.9801344,16.8067997 23.1642416,15.4197368 C23.4800784,13.7195475 24.0939905,12.1442878 24.8754988,10.7061069 Z" id="Combined-Shape" fill="#FADE57"></path>
            <path d="M22.8189697,20.1697042 C21.9186505,18.5886661 20.7888291,17.3128451 19.5242391,16.289578 C19.7916814,17.8827515 20.3484455,19.4802754 21.2867047,21.0358978 C19.8913031,19.8599077 18.3879004,19.040195 16.8451611,18.5044051 C17.6437638,19.9082204 18.7244727,21.2243401 20.1508315,22.3696482 C18.4267715,21.729677 16.7287807,21.4681932 15.0924715,21.4844501 C16.3368113,22.5331328 17.8050671,23.4039059 19.5451876,24.0058681 C17.7026523,23.9827421 16.0188599,24.3078796 14.4847328,24.8752673 C16.0188599,25.4410522 17.7026523,25.7698532 19.5451876,25.7460403 C17.8050671,26.3452549 16.3368113,27.2174017 15.0924715,28.2676873 C16.7301773,28.2846311 18.4267715,28.0229183 20.1508315,27.3822602 C18.7244727,28.5280262 17.6437638,29.8446039 16.8451611,31.2475033 C18.3879004,30.7137741 19.8913031,29.8958932 21.2885668,28.7144078 C20.3484455,30.271633 19.7916814,31.8689279 19.5242391,33.4623304 C20.7888291,32.4365446 21.9186505,31.1632423 22.8189697,29.5870126 C22.4763457,31.364507 22.5117253,33.0549927 22.8119869,34.6374046 C23.6459692,33.2477855 24.2627856,31.6756772 24.5611851,29.8890241 C24.8616794,31.6756772 25.4775648,33.2477855 26.3127109,34.6374046 C26.6139035,33.0549927 26.6450934,31.364507 26.3043315,29.5870126 C27.2065127,31.1632423 28.3337738,32.4365446 29.6011569,33.4623304 C29.3339474,31.8689279 28.7762523,30.271633 27.8331051,28.7144078 C29.2319981,29.8958932 30.735168,30.7137741 32.281166,31.2475033 C31.4762788,29.8446039 30.3958026,28.5280262 28.972237,27.3822602 C30.6969953,28.0229183 32.3919601,28.2846311 34.0285021,28.2676873 C32.784395,27.2174017 31.3135789,26.3452549 29.5769498,25.7432927 C31.4173902,25.7698532 33.1042085,25.4410522 34.6374046,24.8752673 C33.1042085,24.3078796 31.4173902,23.9827421 29.5769498,24.0058681 C31.3135789,23.4039059 32.784395,22.5331328 34.0285021,21.4844501 C32.3919601,21.4681932 30.6969953,21.729677 28.9708404,22.3696482 C30.3958026,21.2243401 31.4762788,19.9082204 32.281166,18.5044051 C30.735168,19.040195 29.2319981,19.8599077 27.8331051,21.0400193 C28.7762523,19.4802754 29.3339474,17.8827515 29.6011569,16.289578 C28.3337738,17.3128451 27.2065127,18.5886661 26.3043315,20.1697042 C26.6450934,18.3871725 26.6139035,16.6969157 26.3127109,15.1145038 C25.4775648,16.5000015 24.8616794,18.0762312 24.5611851,19.8640292 C24.2627856,18.0762312 23.6459692,16.5000015 22.8119869,15.1145038 C22.5117253,16.6969157 22.4763457,18.3871725 22.8189697,20.1697042" id="Fill-190" fill="#FFFFFE"></path>
            <path d="M24.8746874,39.7044569 C25.8321503,41.4510708 27.0381343,42.9925655 28.2560953,44.3018368 C27.0107256,47.2385094 25.480213,49.4757555 24.8746874,50.3816794 C24.2691618,49.4757555 22.7386492,47.2371312 21.4925886,44.3018368 C22.7146954,42.9925655 23.9156123,41.4510708 24.8746874,39.7044569 Z M29.8536326,38.8325281 C31.3498266,40.1429479 33.0118551,41.1846226 34.6027129,41.9984381 C34.4426367,45.1783595 33.7728503,47.8051712 33.5139645,48.8597089 C32.6371156,48.2190847 30.4271429,46.6360149 28.2560953,44.3018368 C28.9482232,42.6578974 29.5528275,40.8012587 29.8536326,38.8325281 Z M19.8973545,38.8325281 C20.1988505,40.8012587 20.8013819,42.6578974 21.4925886,44.3018368 C19.3224622,46.6360149 17.1154838,48.2190847 16.2354103,48.8597089 C15.9765245,47.8051712 15.3071987,45.1783595 15.1468922,41.9984381 C16.7370591,41.1846226 18.3995482,40.1429479 19.8973545,38.8325281 Z M34.2277431,36.3083908 C36.089694,37.033084 38.0048501,37.4453896 39.7788166,37.66475 C40.7196961,40.7098394 40.9933227,43.4048711 41.1105584,44.4892693 C40.0616563,44.1823945 37.4458502,43.4505807 34.6027129,41.9984381 C34.6946128,40.2143836 34.6234422,38.2631099 34.2277431,36.3083908 Z M15.5195588,36.3083908 C15.1270843,38.2631099 15.0549924,40.2143836 15.1468922,41.9984381 C12.3037549,43.4505807 9.68771854,44.1823945 8.64065907,44.4892693 C8.75835537,43.4048711 9.02944842,40.7098394 9.97124916,37.66475 C11.7452157,37.4412551 13.6596808,37.033084 15.5195588,36.3083908 Z M43.1593032,31.8276968 C45.0894304,34.3672238 46.2659328,36.8111969 46.7519195,37.7899347 C45.6599465,37.8567764 42.9499374,38.0595986 39.7788166,37.66475 C39.2562082,35.9608597 38.5175545,34.1492416 37.4787867,32.4499453 C39.476169,32.4956549 41.4173518,32.2264503 43.1593032,31.8276968 Z M6.58845935,31.8276968 C8.33294427,32.2264503 10.2755091,32.4956549 12.2717397,32.4499453 C11.2348146,34.1492416 10.4973125,35.9608597 9.97124916,37.66475 C6.80081941,38.0595986 4.0915012,37.8567764 3.00044957,37.7899347 C3.48298138,36.8111969 4.66409026,34.3672238 6.58845935,31.8276968 Z M44.3316597,25.1908397 C47.0144905,26.9197669 48.9616618,28.8147649 49.7519084,29.5677108 C48.7495321,30.0036751 46.2749155,31.1181637 43.1593032,31.8276968 C42.0813801,30.4049553 40.7641489,28.9569472 39.2076095,27.7124503 C41.0981208,27.0745825 42.8308591,26.1599302 44.3316597,25.1908397 Z M5.41748479,25.1908397 C6.91805507,26.1599302 8.64941144,27.0745825 10.5426866,27.7124503 C8.98315301,28.9569472 7.67006764,30.4090899 6.58845935,31.8276968 C3.47561096,31.1181637 0.999842757,30.0036751 3.49576178e-14,29.5677108 C0.789555625,28.8147649 2.73465401,26.9197669 5.41748479,25.1908397 Z M6.58845935,18.5553607 C7.67006764,19.9753459 8.98315301,21.4254213 10.5426866,22.6692291 C8.64941144,23.3070969 6.91805507,24.2258838 5.41748479,25.1908397 C2.73465401,23.4593858 0.789555625,21.5671442 3.49576178e-14,20.8160359 C0.999842757,20.3800715 3.47561096,19.2648939 6.58845935,18.5553607 Z M43.1593032,18.5553607 C46.2749155,19.2648939 48.7495321,20.3800715 49.7519084,20.8160359 C48.9616618,21.5671442 47.0144905,23.4593858 44.3316597,25.1908397 C42.8308591,24.2258838 41.0981208,23.3070969 39.2076095,22.6692291 C40.7641489,21.4254213 42.0813801,19.9753459 43.1593032,18.5553607 Z M3.00044957,12.5945011 C4.0915012,12.524903 6.80081941,12.3225401 9.97124916,12.7196858 C10.4973125,14.4208197 11.2348146,16.2322081 12.2717397,17.9344905 C10.2755091,17.8899293 8.33294427,18.1570666 6.58845935,18.5553607 C4.66409026,16.0128477 3.48298138,13.5718606 3.00044957,12.5945011 Z M39.7788166,12.7196858 C42.9499374,12.3225401 45.6599465,12.524903 46.7519195,12.5933526 C46.2659328,13.5718606 45.0894304,16.0128477 43.1593032,18.5553607 C41.4173518,18.1570666 39.476169,17.8899293 37.4787867,17.9344905 C38.5175545,16.2322081 39.2562082,14.4208197 39.7788166,12.7196858 Z M8.64065907,5.89401793 C9.68771854,6.20066306 12.3037549,6.93500348 15.1468922,8.38714617 C15.0549924,10.1661473 15.1270843,12.1210961 15.5195588,14.0732886 C13.6596808,13.3499736 11.7452157,12.940654 9.97124916,12.7196858 C9.02944842,9.67459631 8.75835537,6.97818647 8.64065907,5.89401793 Z M41.1105584,5.89401793 C40.9933227,6.97818647 40.7196961,9.67459631 39.7788166,12.7196858 C38.0048501,12.940654 36.089694,13.3469875 34.2277431,14.0732886 C34.6234422,12.1197179 34.6946128,10.1661473 34.6027129,8.38301163 C37.4458502,6.93247682 40.0616563,6.19928488 41.1105584,5.89401793 Z M16.2354103,1.51898443 C17.1154838,2.16397283 19.3224622,3.74727235 21.4925886,6.08122076 C20.8013819,7.72516021 20.1988505,9.58317701 19.8973545,11.5505295 C18.3995482,10.2387315 16.7370591,9.20256954 15.1468922,8.38714617 C15.3071987,5.20354958 15.9765245,2.57673785 16.2354103,1.51898443 Z M33.5139645,1.51898443 C33.7728503,2.57673785 34.4426367,5.20354958 34.6027129,8.38301163 C33.0118551,9.198435 31.3498266,10.2387315 29.8536326,11.5505295 C29.5528275,9.58317701 28.9477626,7.72240385 28.2560953,6.08122076 C30.4271429,3.74727235 32.6371156,2.16397283 33.5139645,1.51898443 Z M24.8746874,2.1384082e-14 C25.480213,0.905234788 27.0107256,3.14615603 28.2560953,6.08122076 C27.0381343,7.39049209 25.8321503,8.92923044 24.8746874,10.6758443 C23.9156123,8.92923044 22.7146954,7.39049209 21.4925886,6.08122076 C22.7386492,3.14615603 24.2691618,0.905234788 24.8746874,2.1384082e-14 Z" id="Combined-Shape" fill="#009900"></path>
        </g>
    </g>
</svg>