<?xml version="1.0" encoding="UTF-8"?>
<svg width="200px" height="80px" viewBox="0 0 200 80" version="1.1" xmlns="http://www.w3.org/2000/svg" xmlns:xlink="http://www.w3.org/1999/xlink">
    <!-- Generator: Sketch 63.1 (92452) - https://sketch.com -->
    <title>audi</title>
    <desc>Created with Sketch.</desc>
    <g id="audi" stroke="none" stroke-width="1" fill="none" fill-rule="evenodd">
        <path d="M127.407496,64.653384 L127.407496,54.1368118 L123.024427,54.1368118 L123.024427,64.653384 L127.407496,64.653384 Z M104.20304,60.2866537 L104.20304,54.2959217 L99.9547081,54.2959217 L99.9547081,58.8753993 C99.9547081,60.2064227 99.9009952,60.5796321 99.8204257,60.9257974 C99.5245492,61.8845128 98.5026373,62.3095569 97.4543241,62.3095569 C96.0027084,62.3095569 95.3303859,61.7506442 95.0613659,60.8721598 C94.9807965,60.5800829 94.95394,60.260511 94.9270835,59.9409392 C94.900227,59.594774 94.9270835,59.2215646 94.9270835,58.823114 L94.9270835,54.2963724 L90.6250391,54.2963724 L90.6250391,60.3136979 C90.6250391,61.6722162 91.0825097,62.6836677 91.8349464,63.3755475 C93.1254232,64.6272413 95.3035295,65 97.3200417,65 C99.7667128,65 101.648943,64.6538348 102.993132,63.3494048 C103.692766,62.683217 104.20304,61.8047325 104.20304,60.2866537 L104.20304,60.2866537 Z M83.3382836,59.5411364 C83.1253053,59.5044928 82.9094364,59.4868434 82.6932728,59.4884003 L77.8536435,59.4884003 C77.61148,59.4884003 77.34246,59.5149937 77.2081776,59.5411364 C77.288747,59.4609054 77.4503411,59.3017956 77.61148,59.0885975 L79.7891311,55.5205713 C80.0850076,55.0418897 80.21929,54.7223179 80.273003,54.5893508 C80.3267159,54.7223179 80.4609984,55.0418897 80.7568749,55.5480662 L82.9886941,59.1426858 C83.0965752,59.3017956 83.2577141,59.4609054 83.3382836,59.5411364 Z M91.4585005,64.653384 L81.7787868,50.2767088 L76.3478597,50.2767088 L77.7726189,51.9538974 C77.7994754,51.9804909 77.8536435,52.0066335 77.9069013,52.0341284 C77.8531884,52.0607219 77.7994754,52.0868646 77.7726189,52.113458 L69.3301242,64.653384 L74.2234664,64.653384 L75.5412549,62.4966123 C75.5949678,62.3902386 75.6218243,62.2834142 75.6218243,62.2306781 C75.6755373,62.2306781 75.8102749,62.2834142 75.9445573,62.2834142 L84.6829285,62.2834142 C84.8172109,62.2834142 84.9246368,62.2568207 84.9783498,62.2306781 C84.9734186,62.3055468 84.992195,62.3800741 85.0320628,62.4438762 L86.4035642,64.653384 L91.4585005,64.653384 L91.4585005,64.653384 Z M121.841831,59.2490595 C121.841831,58.0771459 121.357504,56.7190783 119.852176,54.8286916 L116.221998,50.2762581 L111.167062,50.2762581 L114.043892,53.4710748 C114.528219,54.0038447 115.146374,54.4825264 115.146374,54.4825264 C114.44765,54.0827235 113.560475,53.9236137 112.861297,53.9236137 C111.194374,53.9236137 109.499684,54.269779 107.994811,55.0955273 C106.381146,55.9731103 105.305521,57.4380023 105.305521,59.3820266 C105.305521,60.8726105 105.977843,62.0179307 106.838161,62.8964151 C108.774559,64.8129446 112.295945,64.9995493 113.586877,64.9995493 C115.495508,64.9995493 118.480219,64.5736038 120.174909,63.0559757 C121.169964,62.1504471 121.841831,60.8996547 121.841831,59.2490595 L121.841831,59.2490595 Z M117.647213,59.3820266 C117.647213,60.4737092 116.920722,61.298556 116.006691,61.751095 C115.253799,62.1508978 114.36617,62.2572715 113.586877,62.2572715 C112.807584,62.2572715 111.893098,62.0972602 111.140206,61.7245015 C110.226175,61.2719626 109.526541,60.3934782 109.526541,59.4347627 C109.526541,58.290344 110.413715,57.3843647 111.462939,56.9318257 C112.108405,56.6397488 112.888153,56.5329244 113.505852,56.5329244 C114.09806,56.5329244 114.958378,56.6122539 115.630701,56.8790896 C116.841063,57.3843647 117.647213,58.3430801 117.647213,59.3820266 Z M126.015056,16.0000197 C122.866902,15.9950069 119.809971,17.0466912 117.343143,18.9834611 C114.876385,17.0465646 111.819407,15.9948644 108.67123,16.0000197 C105.523251,15.9952156 102.466531,17.0468824 99.9997724,18.9834611 C97.5332423,17.046471 94.4763725,15.9947527 91.3283148,16.0000197 C88.1803356,15.9952156 85.1236157,17.0468824 82.6568572,18.9834611 C80.1901339,17.0468192 77.1333909,15.9951444 73.9853996,16.0000197 C66.2602917,16.0000197 60,22.1985609 60,29.8484522 C60,37.4974419 66.2598365,43.6968841 73.9853996,43.6968841 C77.1333728,43.7016531 80.1900812,42.6499902 82.6568572,40.7134433 C85.1235806,42.6500851 88.1803235,43.7017599 91.3283148,43.6968841 C94.4763604,43.7020804 97.5332071,42.65037 99.9997724,40.7134433 C102.466531,42.6500219 105.523251,43.7016887 108.67123,43.6968841 C111.819401,43.7020043 114.876367,42.650308 117.343143,40.7134433 C119.809918,42.650308 122.866884,43.7020043 126.015056,43.6968841 C133.740164,43.6968841 140,37.4978927 140,29.8484522 C140,22.1990116 133.740164,16.0000197 126.015056,16.0000197 Z M80.3685938,38.4511993 C78.5865069,39.7385013 76.36015,40.5241341 73.9853996,40.5241341 C68.0259916,40.5241341 63.2036598,35.7494878 63.2036598,29.8484522 C63.2036598,23.9474165 68.0259916,19.1723194 73.9853996,19.1723194 C76.36015,19.1723194 78.5851413,19.958403 80.3685938,21.2461557 C78.4036301,23.6906032 77.3367942,26.7241769 77.3433704,29.8484522 C77.3448475,32.9715193 78.4107797,36.0026823 80.3685938,38.4511993 L80.3685938,38.4511993 Z M82.6573124,36.1916598 C81.2829297,34.3572064 80.5429969,32.1325941 80.5474516,29.8484522 C80.5416948,27.5641048 81.2817592,25.3390969 82.6573124,23.5052445 C84.0326019,25.3392324 84.7726366,27.5641511 84.7671699,29.8484522 C84.7714655,32.1325685 84.0315491,34.3571314 82.6573124,36.1916598 L82.6573124,36.1916598 Z M97.7119642,38.4511993 C95.8604389,39.8009678 93.6202081,40.5264932 91.3210317,40.5210102 C89.0266212,40.5255994 86.7914404,39.800004 84.9451206,38.4511993 C86.9031231,36.0029586 87.9690853,32.9718693 87.9703441,29.8489029 C87.9769203,26.7246277 86.9100844,23.691054 84.9451206,21.2466065 C86.7912645,19.8974114 89.026529,19.1716308 91.3210317,19.1763529 C93.7130794,19.1763529 95.9230493,19.9426272 97.7119642,21.2466065 C95.7470004,23.691054 94.6801646,26.7246277 94.6867407,29.8489029 C94.6880709,32.9718573 95.7540251,36.0029241 97.7119642,38.4511993 L97.7119642,38.4511993 Z M99.9997724,36.1916598 C98.6253897,34.3572064 97.8854569,32.1325941 97.8899142,29.8484522 C97.884383,27.5641408 98.6244243,25.3392023 99.9997724,23.5052445 C101.3754,25.339086 102.115616,27.5640691 102.110086,29.8484522 C102.114444,32.1326503 101.374347,34.3572773 99.9997724,36.1916598 L99.9997724,36.1916598 Z M115.054879,38.4511993 C113.265965,39.7556293 111.055995,40.520979 108.664402,40.520979 C106.27281,40.520979 104.076951,39.7542771 102.288036,38.4511993 C104.246228,36.0030621 105.312214,32.9719052 105.313259,29.8489029 C105.319835,26.7246277 104.253,23.691054 102.288036,21.2466065 C104.076951,19.943078 106.27281,19.1763761 108.664402,19.1763761 C111.055995,19.1763761 113.265965,19.9426272 115.054879,21.2466065 C113.090141,23.6911768 112.023333,26.7246699 112.029656,29.8489029 C112.031236,32.9718155 113.097162,36.0028034 115.054879,38.4511993 L115.054879,38.4511993 Z M117.343598,36.1916598 C115.969215,34.3572064 115.229282,32.1325941 115.233735,29.8484522 C115.227785,27.564074 115.967869,25.3390065 117.343598,23.5052445 C118.718887,25.3392324 119.458922,27.5641511 119.453455,29.8484522 C119.457556,32.1325377 118.71766,34.3570416 117.343598,36.1916598 L117.343598,36.1916598 Z M126.015056,40.5241341 C123.639395,40.5241341 121.413493,39.7385013 119.631861,38.4511993 C121.589674,36.0028551 122.655612,32.9718334 122.657085,29.8489029 C122.663407,26.7246699 121.5966,23.6911768 119.631861,21.2466065 C121.415314,19.9593045 123.63985,19.1727702 126.015056,19.1727702 C131.973553,19.1727702 136.796795,23.9478673 136.796795,29.8489029 C136.796795,35.749037 131.973553,40.5241341 126.015056,40.5241341 Z" id="Audi" fill="#000000" fill-rule="nonzero"></path>
    </g>
</svg>