<?xml version="1.0" encoding="UTF-8"?>
<svg width="200px" height="80px" viewBox="0 0 200 80" version="1.1" xmlns="http://www.w3.org/2000/svg" xmlns:xlink="http://www.w3.org/1999/xlink">
    <!-- Generator: Sketch 63.1 (92452) - https://sketch.com -->
    <title>bt</title>
    <desc>Created with Sketch.</desc>
    <defs>
        <linearGradient x1="0.849191198%" y1="50.1551598%" x2="100.437272%" y2="50.1551598%" id="linearGradient-1">
            <stop stop-color="#90215C" offset="0%"></stop>
            <stop stop-color="#96215F" offset="0.1%"></stop>
            <stop stop-color="#B11F6B" offset="0.3%"></stop>
            <stop stop-color="#C71D76" offset="0.6%"></stop>
            <stop stop-color="#D81C7D" offset="1%"></stop>
            <stop stop-color="#E31C83" offset="1.5%"></stop>
            <stop stop-color="#EA1B86" offset="2.1%"></stop>
            <stop stop-color="#EC1B87" offset="3.9%"></stop>
            <stop stop-color="#EC3A94" offset="43.8%"></stop>
        </linearGradient>
        <radialGradient cx="42.2467093%" cy="13.281161%" fx="42.2467093%" fy="13.281161%" r="81.0861528%" gradientTransform="translate(0.422467,0.132812),scale(1.000000,0.978312),translate(-0.422467,-0.132812)" id="radialGradient-2">
            <stop stop-color="#FFF698" offset="0%"></stop>
            <stop stop-color="#FFF383" offset="5.2%"></stop>
            <stop stop-color="#FFEC5B" offset="16.7%"></stop>
            <stop stop-color="#FFE73A" offset="28.5%"></stop>
            <stop stop-color="#FFE221" offset="40.7%"></stop>
            <stop stop-color="#FFDF0E" offset="53.2%"></stop>
            <stop stop-color="#FFDE04" offset="66.3%"></stop>
            <stop stop-color="#FFDD00" offset="80.9%"></stop>
            <stop stop-color="#F2BE38" offset="100%"></stop>
        </radialGradient>
        <linearGradient x1="0.205797578%" y1="50.0626537%" x2="100.488432%" y2="50.0626537%" id="linearGradient-3">
            <stop stop-color="#FFDD00" offset="0%"></stop>
            <stop stop-color="#FDD804" offset="18.1%"></stop>
            <stop stop-color="#F8C910" offset="39.9%"></stop>
            <stop stop-color="#EFB125" offset="63.6%"></stop>
            <stop stop-color="#E38F41" offset="88.4%"></stop>
            <stop stop-color="#DD7D50" offset="100%"></stop>
        </linearGradient>
        <linearGradient x1="40.484399%" y1="66.3072143%" x2="68.0283748%" y2="21.7706962%" id="linearGradient-4">
            <stop stop-color="#F05B52" offset="0.6%"></stop>
            <stop stop-color="#E84D48" offset="20.6%"></stop>
            <stop stop-color="#D72F32" offset="71.4%"></stop>
            <stop stop-color="#D1232A" offset="100%"></stop>
        </linearGradient>
        <radialGradient cx="36.4716873%" cy="81.1724643%" fx="36.4716873%" fy="81.1724643%" r="99.2734623%" gradientTransform="translate(0.364717,0.811725),scale(1.000000,0.763631),translate(-0.364717,-0.811725)" id="radialGradient-5">
            <stop stop-color="#CCC4E1" offset="0%"></stop>
            <stop stop-color="#B6AED5" offset="13.4%"></stop>
            <stop stop-color="#928CC1" offset="38.5%"></stop>
            <stop stop-color="#7873B3" offset="62.1%"></stop>
            <stop stop-color="#6863AA" offset="83.3%"></stop>
            <stop stop-color="#635EA7" offset="100%"></stop>
            <stop stop-color="#635EA7" offset="100%"></stop>
            <stop stop-color="#635EA7" offset="100%"></stop>
        </radialGradient>
        <radialGradient cx="55.95323%" cy="28.599224%" fx="55.95323%" fy="28.599224%" r="109.414855%" gradientTransform="translate(0.559532,0.285992),scale(1.000000,0.660583),translate(-0.559532,-0.285992)" id="radialGradient-6">
            <stop stop-color="#57B0DD" offset="0%"></stop>
            <stop stop-color="#54A7D7" offset="12.7%"></stop>
            <stop stop-color="#4B8FC7" offset="33.4%"></stop>
            <stop stop-color="#3D67AC" offset="59.3%"></stop>
            <stop stop-color="#3D67AC" offset="59.6%"></stop>
            <stop stop-color="#1F3E78" offset="91.6%"></stop>
        </radialGradient>
        <radialGradient cx="20.8425294%" cy="14.7797011%" fx="20.8425294%" fy="14.7797011%" r="154.406299%" gradientTransform="translate(0.208425,0.147797),scale(1.000000,0.570172),translate(-0.208425,-0.147797)" id="radialGradient-7">
            <stop stop-color="#5593C9" offset="0%"></stop>
            <stop stop-color="#518CC4" offset="10.3%"></stop>
            <stop stop-color="#3E65AB" offset="69.2%"></stop>
            <stop stop-color="#3756A2" offset="100%"></stop>
        </radialGradient>
        <linearGradient x1="49.9985611%" y1="101.50769%" x2="49.9985611%" y2="-7.08931915%" id="linearGradient-8">
            <stop stop-color="#00662E" offset="0%"></stop>
            <stop stop-color="#007238" offset="8.1%"></stop>
            <stop stop-color="#008D4F" offset="30.5%"></stop>
            <stop stop-color="#00A060" offset="53.2%"></stop>
            <stop stop-color="#00AC6A" offset="76.3%"></stop>
            <stop stop-color="#00B06D" offset="100%"></stop>
        </linearGradient>
        <linearGradient x1="36.0538242%" y1="65.5888505%" x2="61.8875179%" y2="26.0530603%" id="linearGradient-9">
            <stop stop-color="#00585B" offset="10.7%"></stop>
            <stop stop-color="#007678" offset="22.1%"></stop>
            <stop stop-color="#009091" offset="34.5%"></stop>
            <stop stop-color="#00A0A0" offset="45.8%"></stop>
            <stop stop-color="#00A6A5" offset="54.5%"></stop>
            <stop stop-color="#00BAC6" offset="100%"></stop>
        </linearGradient>
    </defs>
    <g id="bt" stroke="none" stroke-width="1" fill="none" fill-rule="evenodd">
        <g id="bt-3" transform="translate(50.000000, 16.000000)" fill-rule="nonzero">
            <path d="M73.374853,0.863596585 C73.6824407,1.68350396 71.7352015,3.11826023 69.0709107,4.14306282 C66.4064566,5.16770214 64.049427,5.37276062 63.7418393,4.65538248 C63.4344148,3.93800434 65.3814907,2.4008821 68.0459448,1.37607951 C70.7105622,0.351276923 73.0674285,0.146381711 73.374853,0.863596585 L73.374853,0.863596585 Z" id="Path" fill="url(#linearGradient-1)"></path>
            <path d="M98.0723177,19.1049847 C97.9697885,20.9496946 97.1500444,22.3842876 95.8176541,23.1016658 C93.2557293,24.4338928 89.5664726,22.2819217 87.6193967,18.2850773 C86.3896989,15.9280477 86.0821112,13.3661228 86.5945941,11.5214129 L87.2096062,12.136425 C91.5137118,16.0305769 95.8178174,18.695031 98.0723177,19.1049847 Z" id="Path" fill="url(#radialGradient-2)"></path>
            <path d="M98.0723177,19.1049847 C95.7151249,18.695031 91.5135485,16.0305769 87.3119722,12.136425 L86.6971233,11.5214129 C87.0045478,10.2917151 87.7217626,9.36927846 88.7467285,8.8569588 C91.3086533,7.52489503 94.99791,9.67686618 96.9451492,13.6735473 C97.8674225,15.5182572 98.174847,17.4653332 98.0723177,19.1049847 Z" id="Path" fill="url(#linearGradient-3)"></path>
            <path d="M98.0723177,19.1049847 C98.174847,17.4653332 97.7648933,15.5182572 96.8426199,13.6735473 C94.8953807,9.77923215 91.2062874,7.627261 88.6441993,8.8569588 C87.6195599,9.36944173 87.0045478,10.2917151 86.5945941,11.5214129 C81.4705812,6.60245842 78.3963367,1.78586993 79.6260345,0.453642897 C80.0359881,0.0436892102 80.5481445,-0.0586767643 81.1631567,0.0436892102 C90.0787923,1.68350396 97.3549396,8.44700511 99.711806,17.1577455 C99.9168644,17.8751236 99.9168644,18.4899725 99.6092767,18.797397 C99.3021788,19.1049847 98.7896959,19.2075139 98.0723177,19.1049847 Z" id="Path" fill="url(#linearGradient-4)"></path>
            <path d="M76.4492607,37.4487387 C82.3930178,37.1413143 87.1071242,32.2221966 87.1071242,26.1759103 C87.1157389,23.1835666 85.9308682,20.3112846 83.8149528,18.1953693 C81.6990374,16.0794539 78.8267555,14.8945832 75.8344118,14.9031979 C73.6822774,14.9031979 71.6328355,15.5182572 69.8906548,16.6454258 C71.0178233,18.1825481 72.0427892,20.027258 72.9648993,22.1793924 C74.8096092,26.483498 76.7566852,32.427255 76.4492607,37.4487387 L76.4492607,37.4487387 Z" id="Path" fill="url(#radialGradient-5)"></path>
            <path d="M68.0459448,41.7528443 C69.8906548,41.0353029 72.8625333,40.5231465 76.039307,40.2155588 C76.1418363,39.8056051 76.2443655,39.3958147 76.2443655,38.985861 C76.3467315,38.473378 76.3467315,37.9612216 76.4492607,37.3462095 L75.8344118,37.3462095 C72.8420532,37.3548711 69.9697546,36.1700056 67.8538134,34.054095 C65.7378722,31.9381844 64.5529651,29.065903 64.5615834,26.0735443 C64.5615834,22.0768632 66.7137178,18.4901358 69.8906548,16.5428966 C67.4312592,13.0586984 64.8691711,11.2139884 63.6394733,10.4967735 C61.3848096,9.16454651 57.7980822,8.2421099 55.5435818,12.7512739 C53.9039303,15.9282109 52.981657,19.6174676 52.981657,23.4090902 C52.981657,32.939738 58.5156236,41.0354661 66.5088226,44.929618 C64.8691711,44.2124031 64.2543222,43.1874373 68.0459448,41.7528443 L68.0459448,41.7528443 Z" id="Path" fill="url(#radialGradient-6)"></path>
            <path d="M64.5616995,26.1759103 C64.5530848,29.1682973 65.7379726,32.0406207 67.8539186,34.1565667 C69.9698646,36.2725127 72.8421881,37.4574006 75.8345751,37.4487859 L76.449424,37.4487859 C76.7568484,32.427255 74.8097725,26.483498 72.9650625,22.0768632 C72.0429524,19.9247288 70.9154574,18.0803453 69.890818,16.5428966 C66.7137178,18.5925017 64.5616995,22.1793924 64.5616995,26.1759103 L64.5616995,26.1759103 Z" id="Path" fill="url(#radialGradient-7)"></path>
            <path d="M87.3119722,40.1131928 C84.6476814,39.7032391 80.1385174,39.8056051 76.039307,40.2155588 C74.5021848,46.9792232 70.4031377,46.6717987 68.0459448,45.7495254 C67.5334619,45.5446302 67.0211422,45.3395717 66.5088226,45.0321473 C69.5830671,46.5692695 73.1699577,47.3891769 76.8590511,47.3891769 C81.8805348,47.3891769 86.5945941,45.8520546 90.3862167,43.1876006 C91.9235022,42.162798 92.1285607,40.9331002 87.3119722,40.1131928 L87.3119722,40.1131928 Z" id="Path" fill="url(#linearGradient-8)"></path>
            <path d="M76.039307,40.2155588 C72.8625333,40.5231465 69.7881255,41.1378321 68.0459448,41.7528443 C64.2541589,43.1874373 64.8691711,44.2122399 66.5088226,45.0321473 C67.0211422,45.2370425 67.5334619,45.5446302 68.0459448,45.7495254 C70.4031377,46.6717987 74.5021848,46.9792232 76.039307,40.2155588 L76.039307,40.2155588 Z" id="Path" fill="url(#linearGradient-9)"></path>
            <g id="Group" transform="translate(0.000000, 15.716622)" fill="#004896">
                <path d="M21.1107374,9.33211978 C25.0048892,6.97509015 24.2875111,0.00653052469 17.2164222,0.00653052469 L2.15213441,0.00653052469 C1.02480259,0.00653052469 0,0.928803874 0,2.15850167 L0,18.657709 C0,19.7850409 0.922273349,20.8098434 2.15213441,20.8098434 L15.2695096,20.8098434 C25.7222674,20.8098434 27.0544944,11.4842542 21.1107374,9.33211978 L21.1107374,9.33211978 Z M7.89083298,3.2858335 L15.9867244,3.2858335 C20.5982544,3.2858335 20.393196,8.30748045 15.3717123,8.30748045 L7.89083298,8.30748045 L7.89083298,3.2858335 Z M14.4494389,17.325482 L7.89083298,17.325482 L7.89083298,11.5867834 L16.2941489,11.5867834 C21.0082081,11.5866202 21.1107374,17.325482 14.4494389,17.325482 L14.4494389,17.325482 Z M47.6527488,0.00653052469 L25.7222674,0.00653052469 C24.799994,0.00653052469 23.7750282,0.826274636 23.7750282,1.74871125 C23.7750282,2.67114786 24.7998308,3.49089197 25.7222674,3.49089197 L32.9980882,3.49089197 L32.9980882,18.657709 C32.9980882,19.7850409 33.9203615,20.8098434 35.1502226,20.8098434 L38.5320548,20.8098434 C39.7617526,20.8098434 40.6841892,19.7852041 40.6841892,18.657709 L40.6841892,3.49089197 L47.6529121,3.49089197 C48.5751855,3.49089197 49.599988,2.67114786 49.599988,1.74871125 C49.599988,0.826274636 48.5751855,0.00653052469 47.6527488,0.00653052469 L47.6527488,0.00653052469 Z" id="Shape"></path>
            </g>
        </g>
    </g>
</svg>