<?xml version="1.0" encoding="UTF-8"?>
<svg width="200px" height="80px" viewBox="0 0 200 80" version="1.1" xmlns="http://www.w3.org/2000/svg" xmlns:xlink="http://www.w3.org/1999/xlink">
    <!-- Generator: Sketch 63.1 (92452) - https://sketch.com -->
    <title>caterpillar</title>
    <desc>Created with Sketch.</desc>
    <g id="caterpillar" stroke="none" stroke-width="1" fill="none" fill-rule="evenodd">
        <g id="caterpillar-logo" transform="translate(25.000000, 28.000000)" fill-rule="nonzero">
            <path d="M147.750002,0.903614458 C146.541464,0.903614458 145.481928,1.85278931 145.481928,3.14366711 C145.481928,4.4535284 146.541722,5.42168675 147.750002,5.42168675 C148.977133,5.42168675 150,4.4535284 150,3.14366711 C149.999742,1.85278931 148.977133,0.903614458 147.750002,0.903614458 Z M147.750002,5.04201681 C146.745728,5.04201681 145.965085,4.24470993 145.965085,3.14366711 C145.965085,2.08059127 146.745728,1.28302074 147.750002,1.28302074 C148.754276,1.28302074 149.553512,2.08032761 149.553512,3.14366711 C149.553512,4.24470993 148.754018,5.04201681 147.750002,5.04201681 Z" id="Shape" fill="#000000"></path>
            <path d="M149.020922,2.80272411 C149.020922,2.29484793 148.71907,2.06912518 148.115104,2.06912518 L147.134084,2.06912518 L147.134084,4.64612654 L147.530265,4.64612654 L147.530265,3.53632303 L147.964178,3.53632303 L147.983044,3.55513326 L148.643345,4.64612654 L149.096386,4.64612654 L148.360359,3.51751281 C148.737674,3.46108212 149.020922,3.2541696 149.020922,2.80272411 L149.020922,2.80272411 Z M147.530003,3.19773891 L147.530003,2.4077093 L148.058245,2.4077093 C148.322889,2.4077093 148.605876,2.46413999 148.605876,2.78391388 C148.605876,3.17892869 148.322889,3.19773891 147.983044,3.19773891 L147.530003,3.19773891 L147.530003,3.19773891 Z M11.2628604,19.3745358 L6.37662783,23.3434941 C6.22570173,23.3434941 6.07477563,23.3623043 5.94271529,23.3623043 C1.39632847,23.3623043 0,21.5189019 0,17.6063743 L0,5.77474027 C0,1.86221266 1.39632847,0 5.94271529,0 C10.6214245,0 12.0174909,1.86221266 12.0174909,5.77474027 L12.0174909,9.7625088 L7.37651326,9.7625088 L7.37651326,4.9470902 C7.37651326,4.21349127 6.82940614,3.8372867 6.07477563,3.8372867 C5.43333969,3.8372867 4.75417223,4.21349127 4.75417223,4.9470902 L4.75417223,18.4716448 C4.75417223,19.2240539 5.43333969,19.7131199 6.07477563,19.7131199 C6.71621156,19.7131199 7.37651326,19.3178438 7.37651326,18.4716448 L7.37651326,13.8628775 L12.0174909,13.8628775 L12.0174909,17.606113 C12.0174909,18.0763687 11.7911018,18.9607107 11.2628604,19.3745358 Z M24.0915791,0.714788698 L16.9225892,0.714788698 L13.0362421,18.0201993 L20.3938896,12.0949772 L20.5259499,12.000926 L27.9779263,18.0201993 L24.0915791,0.714788698 L24.0915791,0.714788698 Z M20.3938896,11.1544657 L18.9978232,11.1544657 L20.3938896,4.87184929 L20.3938896,4.89039826 L21.7902181,11.1544657 L20.3938896,11.1544657 Z M34.8073324,23.4939759 L30.5059385,20.051704 L30.5059385,5.04114135 L27.0723696,5.04114135 L27.0723696,0.714788698 L39.2219209,0.714788698 L39.2219209,5.04114135 L35.8072178,5.04114135 L35.8072178,23.4939759 L34.8073324,23.4939759 L34.8073324,23.4939759 Z M40.56139,23.4939759 L51.8053847,23.4939759 L51.8053847,19.2616744 L45.4853541,19.2616744 L45.4853541,13.8819489 L50.7866335,13.8819489 L50.7866335,9.70607812 L45.4853541,9.70607812 L45.4853541,4.89065952 L51.465801,4.89065952 L51.465801,0.714788698 L40.56139,0.714788698 L40.56139,23.4939759 Z M67.1809814,20.7288723 L67.1809814,15.198665 C67.1809814,12.6404738 65.6717204,11.8880647 64.351117,11.6061725 L64.351117,11.5118601 C65.4075997,11.1359168 67.1809814,9.95087234 67.1809814,7.56197327 L67.1809814,4.89065952 C67.1809814,2.25722747 64.5586403,0.715049952 62.3136146,0.715049952 L54.1827328,0.715049952 L54.1827328,23.4939759 L59.18216,23.4939759 L59.18216,13.5245546 L60.7291525,13.5057444 L60.7857498,13.5057444 C61.5592461,13.4871954 62.3893396,14.4465171 62.3893396,15.1424955 L62.3893396,20.6348211 C62.3893396,21.7825063 62.5214,22.7227565 62.8609837,23.4939759 L67.6340217,23.4939759 C67.294176,22.7227565 67.1809814,21.7822451 67.1809814,20.7288723 L67.1809814,20.7288723 Z M62.2570173,8.33293141 C62.2570173,9.21701216 61.4649173,9.74369857 60.7288905,9.81893949 C60.6722932,9.83774972 60.5968302,9.83774972 60.5402329,9.83774972 L59.1818979,9.83774972 L59.1818979,4.457763 L60.7288905,4.49564471 L60.8232193,4.49564471 C61.7476417,4.51445494 62.2570173,5.09757203 62.2570173,6.07570394 L62.2570173,8.33293141 L62.2570173,8.33293141 Z M144.454884,20.7288723 L144.454884,15.198665 C144.454884,12.6404738 142.964489,11.8880647 141.625281,11.6061725 L141.625281,11.5118601 C142.681502,11.1359168 144.454884,9.95087234 144.454884,7.56197327 L144.454884,4.89065952 C144.454884,2.25722747 141.851409,0.715049952 139.588041,0.715049952 L131.456635,0.715049952 L131.456635,23.4939759 L136.474928,23.4939759 L136.474928,13.5245546 L138.003055,13.5057444 L138.059914,13.5057444 C138.852014,13.4871954 139.682108,14.4465171 139.682108,15.1424955 L139.682108,20.6348211 C139.682108,21.7825063 139.795302,22.7227565 140.135148,23.4939759 L144.907924,23.4939759 C144.56834,22.7227565 144.454884,21.7822451 144.454884,20.7288723 L144.454884,20.7288723 Z M139.550048,8.33293141 C139.550048,9.21701216 138.757948,9.74369857 138.003055,9.81893949 C137.946196,9.83774972 137.88986,9.83774972 137.833263,9.83774972 L136.474928,9.83774972 L136.474928,4.457763 L138.003055,4.49564471 L138.097122,4.49564471 C139.04041,4.51445494 139.550048,5.09757203 139.550048,6.07570394 L139.550048,8.33293141 L139.550048,8.33293141 Z M78.1983248,0.714788698 L69.7278594,0.714788698 L69.7278594,23.4937147 L74.689555,23.4937147 L74.689555,14.3145842 L77.2552987,14.3145842 C81.4998333,14.3145842 82.6129133,12.1702181 82.6129133,7.27955859 C82.6129133,4.30754242 81.9337459,0.714788698 78.1983248,0.714788698 L78.1983248,0.714788698 Z M76.1799502,10.4584873 C76.0101584,10.4772975 75.8401045,10.4772975 75.6328431,10.4772975 L74.689555,10.4772975 L74.689555,4.62731631 L75.5193865,4.62731631 C75.7651655,4.62731631 75.9912926,4.64612654 76.1799502,4.66519802 C77.9533319,4.87211054 77.6892113,6.00046302 77.6892113,7.5807835 C77.6892113,9.06653033 77.9721977,10.270385 76.1799502,10.4584873 L76.1799502,10.4584873 Z M84.2542347,23.4939759 L89.159333,23.4939759 L89.159333,0.714788698 L84.2542347,0.714788698 L84.2542347,23.4939759 L84.2542347,23.4939759 Z M92.0646605,23.4939759 L102.478824,23.4939759 L102.478824,19.2240539 L97.120947,19.2240539 L97.120947,0.714788698 L92.0646605,0.714788698 L92.0646605,23.4939759 Z M103.780561,23.4939759 L114.175597,23.4939759 L114.175597,19.2240539 L108.817458,19.2240539 L108.817458,0.714788698 L103.780561,0.714788698 L103.780561,23.4939759 Z M125.740047,0.714788698 L118.986366,0.714788698 L115.100019,23.4937147 L120.099446,23.4937147 L120.646553,19.3742745 L124.362846,19.3742745 L124.853618,23.4937147 L130.079173,23.4937147 L125.740047,0.714788698 Z M122.400807,15.2927161 L121.118197,15.2927161 L122.400807,5.13519249 L122.438801,4.89039826 L123.683941,15.2924548 L122.400807,15.2924548 L122.400807,15.2927161 Z" id="Shape" fill="#000000"></path>
            <polygon id="Path" fill="#FADF3C" points="20.7831325 13.5542169 9.03614458 23.4939759 32.5301205 23.4939759"></polygon>
        </g>
    </g>
</svg>