<?xml version="1.0" encoding="UTF-8"?>
<svg width="200px" height="80px" viewBox="0 0 200 80" version="1.1" xmlns="http://www.w3.org/2000/svg" xmlns:xlink="http://www.w3.org/1999/xlink">
    <!-- Generator: Sketch 63.1 (92452) - https://sketch.com -->
    <title>hsbc</title>
    <desc>Created with Sketch.</desc>
    <g id="hsbc" stroke="none" stroke-width="1" fill="none" fill-rule="evenodd">
        <g id="Group-2" transform="translate(32.000000, 28.000000)" fill-rule="nonzero">
            <path d="M17.5063645,12.8368177 C17.4886213,12.8368177 17.5063645,21.0874046 17.5063645,21.0874046 C17.5063645,22.1249959 16.6138045,23.0306705 15.4466107,23.0306705 L14.3295607,23.0306705 L14.3295607,23.4541929 L23.7943994,23.4541929 L23.7943994,23.0306705 L22.6758065,23.0306705 C21.5255844,23.0306705 20.6175956,22.1087956 20.6175956,21.0874046 L20.6175956,12.7079867 L20.6175956,2.70853768 C20.6175956,1.70411841 21.5070698,0.764500383 22.6758065,0.764500383 L23.7943994,0.764500383 L23.7943994,0.344835188 L14.3295607,0.344835188 L14.3295607,0.764500383 L15.4466107,0.764500383 C16.6300048,0.764500383 17.5063645,1.70411841 17.5063645,2.70853768 L17.5063645,11.6696239 L6.29034926,11.6696239 L6.29034926,2.70853768 C6.29034926,1.70411841 7.19679523,0.764500383 8.34778874,0.764500383 L9.46483874,0.764500383 L9.46483874,0.344835188 L7.10542736e-15,0.344835188 L7.10542736e-15,0.764500383 L1.12090722,0.764500383 C2.28887249,0.764500383 3.17988958,1.70411841 3.17988958,2.70853768 L3.17988958,21.088176 C3.17988958,22.1087956 2.28887249,23.0314419 1.12090722,23.0314419 L7.10542736e-15,23.0314419 L7.10542736e-15,23.4549643 L9.46483874,23.4549643 L9.46483874,23.0314419 L8.34778874,23.0314419 C7.19679523,23.0314419 6.29034926,22.1095671 6.29034926,21.088176 C6.29034926,21.088176 6.30654957,12.8375892 6.29034926,12.8375892 L17.5063645,12.8375892 L17.5063645,12.8368177 L17.5063645,12.8368177 Z M40.0139963,17.4068483 C40.0973122,18.7645886 39.2556675,20.823571 38.0846164,21.8804484 C36.9613949,22.8925821 35.3629642,23.7758848 33.2237517,23.7758848 C30.7944766,23.7758848 28.7030936,22.478317 27.9393646,22.1851685 C27.4788129,22.008508 26.8747728,22.0316513 26.5137373,22.2530555 C26.0933006,22.5122605 25.8340957,22.9326971 25.7353509,23.711855 L25.3797155,23.711855 L25.3797155,15.7027299 L25.7353509,15.7027299 C26.0601286,18.1674914 27.2095792,19.6131763 27.9239358,20.4386207 C29.0911296,21.7817036 31.2951433,22.5438897 33.4189269,22.205226 C35.1053021,21.9313637 36.9521376,20.1015 36.7477051,17.8342279 C36.6767323,17.0164979 36.4946716,15.8292466 34.7959533,14.7152823 C33.7282757,14.0178975 32.2131609,13.0289071 30.7759619,12.0754031 C28.9615271,10.87118 27.3160384,9.56975504 26.8516295,9.04208777 C26.2483608,8.35318884 25.4931177,7.35725545 25.4931177,5.76885354 C25.4931177,4.40879888 26.0099848,2.85202615 27.1139202,1.81520626 C28.2155414,0.778386363 29.7075129,2.13162821e-14 31.8459539,2.13162821e-14 C33.9851664,2.13162821e-14 35.6059689,1.13556465 36.1575509,1.39399817 C36.7091329,1.6524317 37.3178017,1.59148768 37.6634084,1.39399817 C38.0051578,1.19805156 38.2319621,0.904131633 38.3299354,0.131145373 L38.6832565,0.131145373 L38.6832565,7.71289084 L38.3299354,7.71289084 C38.0051578,5.2504436 36.9351658,3.40283672 36.1891801,2.72088078 C35.4431943,2.04123916 33.9851664,1.10162114 31.8143247,1.52437211 C29.7298847,1.92475122 28.7162081,2.86822646 28.5233473,4.53608703 C28.3783159,5.80588283 29.0672149,6.59044074 29.4645082,7.06487841 C30.2752952,8.03921139 35.4177367,10.9514101 37.7451814,12.9641059 C38.9463187,14.0024687 39.8867082,15.2352352 40.0139963,17.4068483 L40.0139963,17.4068483 Z M55.0054554,11.6526521 C59.1234201,13.0667079 60.2975569,15.9758208 59.5330565,18.9690211 C58.6358679,22.4937459 54.663706,23.2111882 53.3746241,23.3824486 C52.7937272,23.4549643 51.3102416,23.4472499 49.8429563,23.4487928 C47.2231346,23.4534214 43.9120997,23.4441641 41.2513915,23.4441641 L41.2513915,23.0206417 L42.612989,23.0206417 C43.4793199,23.0206417 44.4698532,22.2916277 44.4698532,21.1884637 L44.4698532,2.73939542 C44.4698532,1.63623139 43.4793199,0.890245652 42.6222464,0.890245652 L41.2606488,0.890245652 L41.2606488,0.466723241 L49.4765207,0.466723241 C51.4537301,0.466723241 52.5275793,0.658812641 53.2203354,0.795358118 C54.3875292,1.01984814 57.7919088,2.0258103 58.6003815,5.20261411 C59.227565,7.66274702 58.0025129,10.7639494 55.0054554,11.6526521 L55.0054554,11.6526521 Z M47.5479123,11.0061826 C48.6827055,11.2962453 52.0230553,11.3733896 53.3190802,10.5518025 C55.3495191,9.26040625 56.0530755,7.19370945 55.6796969,5.36230289 C55.4544354,4.26453897 54.8719957,3.24931949 53.8698907,2.54653457 C51.8919099,1.15330784 49.0414267,1.37702642 47.5486837,1.83140657 L47.5486837,11.0061826 L47.5479123,11.0061826 L47.5479123,11.0061826 Z M47.5479123,22.1458249 C49.1494287,22.6434059 52.1966301,23.0214131 54.3211851,21.5016697 C56.870034,19.6772061 57.4069586,15.2205777 53.8089467,12.8977618 C52.3609475,11.9612295 48.7475067,12.0275736 47.5479123,12.3076076 L47.5479123,22.1458249 Z M81.1959579,0.745985742 L81.5307643,8.57536453 L81.0609553,8.59156484 C80.8333795,6.61358404 80.0904795,5.21804297 79.1485472,4.31391134 C78.8754562,4.05007771 78.3632178,3.521639 77.6218607,3.05645864 C76.3890942,2.27807228 74.5522876,1.58917335 72.3721886,1.97875225 C69.0997258,2.56196344 67.4125791,4.72663355 66.5732488,6.80875921 C65.5318002,9.36995121 64.8760733,13.7448066 66.6334213,17.4415632 C68.0636774,20.4393922 70.8084729,21.6868161 72.9222277,22.0077365 C74.7274052,22.2862276 78.7242533,22.2021403 81.7745404,18.0872613 L82.2613212,18.4112675 C79.8945329,21.7516173 76.7485868,23.8908298 73.1490321,23.8592006 C68.5489152,23.8152284 65.6583169,21.2833512 64.3352915,19.7751794 C62.9397505,18.187549 61.8720728,15.1727483 61.8580427,12.5444407 C61.8481581,10.2108245 62.3619394,7.61183176 63.1997269,6.09285976 C64.6430974,3.48692405 67.6578981,0.891017096 71.6292886,0.505295409 C74.6008885,0.211375484 76.5534117,0.796129561 78.224358,1.75040501 C79.0621455,2.22947135 79.5288688,2.28424383 79.9840204,2.09292587 C80.4360862,1.8977507 80.8009789,1.51048612 80.8009789,0.745985742 L81.1959579,0.745985742 L81.1959579,0.745985742 Z" id="Shape" fill="#000000"></path>
            <polygon id="Path" fill="#CE3729" points="89.1495391 11.9095428 100.697275 23.4541929 100.697275 0.360264055"></polygon>
            <polygon id="Path" fill="#CE3729" points="100.697275 23.4541929 123.789661 23.4541929 112.245011 11.9095428"></polygon>
            <polygon id="Path" fill="#CE3729" points="112.245011 11.9095428 123.789661 0.360264055 100.697275 0.360264055"></polygon>
            <polygon id="Path" fill="#CE3729" points="123.792747 0.360264055 123.792747 23.4541929 135.337397 11.9095428"></polygon>
        </g>
    </g>
</svg>