<?xml version="1.0" encoding="UTF-8"?>
<svg width="200px" height="80px" viewBox="0 0 200 80" version="1.1" xmlns="http://www.w3.org/2000/svg" xmlns:xlink="http://www.w3.org/1999/xlink">
    <!-- Generator: Sketch 63.1 (92452) - https://sketch.com -->
    <title>kodak</title>
    <desc>Created with Sketch.</desc>
    <g id="kodak" stroke="none" stroke-width="1" fill="none" fill-rule="evenodd">
        <g id="kodak-4" transform="translate(72.000000, 15.000000)" fill-rule="nonzero">
            <polygon id="Path" fill="#ECB73A" points="55.119415 49.9628287 55.119415 0.0374658457 0.00676800791 0.0374658457 0.00676800791 49.9628287 55.119415 49.9628287"></polygon>
            <path d="M10.7366013,25.0374118 C10.7366013,25.5060909 10.753687,26.0460586 11.4306351,27.0358521 C12.1075832,28.0256457 21.6258032,41.2980111 21.6258032,41.2980111 C22.1369019,41.9690676 22.3348606,43.3662672 20.6878559,43.3662672 C20.5193554,43.3662672 11.4091307,43.3206071 9.38859677,43.3597864 C9.15735037,43.3642051 8.81210095,43.3155992 8.4547737,43.1724326 C7.95958235,42.9741794 7.47764716,42.6139063 7.15979382,42.1287307 C6.88082522,41.7030606 6.64339261,41.2791579 6.62188816,40.4882068 L6.62188816,9.58632227 C6.64339261,8.79537118 6.88082522,8.37117395 7.15979382,7.9457984 C7.47794174,7.46032823 7.95958235,7.10005517 8.4547737,6.90209646 C8.81239553,6.75922447 9.15735037,6.71061854 9.38859677,6.71503726 C11.4091307,6.75392201 20.5193554,6.70826189 20.6878559,6.70826189 C22.3348606,6.70826189 22.1369019,8.1057561 21.6258032,8.77681255 C21.6258032,8.77681255 12.1075832,22.049178 11.4306351,23.0389715 C10.753687,24.0284705 10.7366013,24.5687328 10.7366013,25.0374118 Z" id="Path" stroke="#CC2131" stroke-width="0.5" fill="#CC2131"></path>
            <path d="M48.5281559,39.452164 C48.5281559,43.5388919 44.8815326,43.347414 44.8815326,43.347414 L33.3035994,43.347414 C31.896384,43.2834898 31.192629,42.3894353 30.4246553,41.7510773 C27.7383674,39.5157936 12.2675409,26.1202931 11.8507082,25.7296782 C11.4338755,25.3390632 11.4141386,25.2716041 11.4141386,25.0374118 C11.4141386,24.8032196 11.4338755,24.7357605 11.8507082,24.3451455 C12.2675409,23.954236 27.738662,10.5590301 30.4246553,8.32404093 C31.192629,7.68568301 31.896384,6.79162843 33.3035994,6.72770426 L44.8815326,6.72770426 C44.8815326,6.72770426 48.5281559,6.53622635 48.5281559,10.6229543 L48.5281559,39.452164 Z" id="Path" stroke="#CC2131" stroke-width="0.5" fill="#CC2131"></path>
            <polygon id="Path" stroke="#ECB73A" stroke-width="0.5" fill="#ECB73A" points="17.2621687 21.8300094 19.2125922 21.8300094 19.2120031 24.5410422 21.3047094 21.8300094 23.3770896 21.8300094 21.1638995 24.9658286 23.5629705 28.7871386 21.2829104 28.7871386 19.2120031 25.4878268 19.2125922 28.7871386 17.2621687 28.7871386"></polygon>
            <path d="M25.7876493,23.4481451 C27.5427654,23.4481451 28.5051628,24.4541406 28.5051628,26.2145592 C28.5051628,27.9749777 27.5427654,28.9809732 25.7876493,28.9809732 C24.0325333,28.9809732 23.0604146,27.9749777 23.0604146,26.2145592 C23.0604146,24.4541406 24.0325333,23.4481451 25.7876493,23.4481451 Z M25.7779281,27.7469717 C26.4192319,27.7469717 26.651362,27.2544315 26.651362,26.2010084 C26.651362,25.1478799 26.4192319,24.645324 25.7779281,24.645324 C25.146051,24.645324 24.9136263,25.1478799 24.9136263,26.2010084 C24.9136263,27.2544315 25.146051,27.7469717 25.7779281,27.7469717 Z M32.5247262,28.5611947 C32.1479566,28.8631406 31.5143119,28.9064441 30.8205727,28.9064441 C29.5397327,28.9064441 28.7767669,27.9714427 28.7767669,26.2908557 C28.7767669,24.5902373 29.5453298,23.7347728 30.8986368,23.6066299 C31.7667682,23.5244417 32.2678512,23.7253462 32.4272197,23.8835365 L32.4272197,21.8300094 L34.1463968,21.8300094 C34.1463968,21.8300094 34.1366757,28.2748615 34.1452185,28.7874332 L32.6941105,28.7874332 L32.5247262,28.5611947 L32.5247262,28.5611947 Z M31.5470105,27.8120741 C32.1084826,27.8120741 32.5038109,27.2644473 32.5038109,26.2593355 C32.5038109,25.2447972 32.1084826,24.7065969 31.5054745,24.7065969 C30.9230871,24.7065969 30.6108308,25.2344868 30.6108308,26.2593355 C30.6111253,27.304805 30.9124821,27.8120741 31.5470105,27.8120741 Z M37.9364813,28.3782596 C37.7258556,28.5066971 37.3225736,28.9250027 36.200513,28.9523988 C35.1500357,28.9780274 34.4854601,28.3063818 34.4854601,27.4029006 C34.4854601,26.2993986 35.4870368,25.8154013 36.3047948,25.6507303 C36.4732954,25.6171481 37.6660555,25.3900258 37.8749138,25.3034189 C37.8749138,25.3034189 37.8899374,24.6247033 37.0936839,24.6161604 C36.4134954,24.6087959 36.377851,25.1982533 36.377851,25.2265331 L35.0286682,25.2265331 C35.0333815,24.7481329 35.0233657,23.6036841 35.0233657,23.6036841 C35.0233657,23.6036841 37.0721794,23.5954358 37.9553345,23.5966142 C39.5174997,23.5983816 39.6745116,24.4491328 39.6745116,25.3319932 L39.6606663,27.7169244 C39.6606663,28.097229 39.6703875,28.4589749 39.7210555,28.8012785 L38.0381119,28.8012785 C38.0180803,28.6584065 37.9703581,28.4946193 37.9364813,28.3782596 L37.9364813,28.3782596 Z M37.6262871,26.2979257 C36.6856886,26.3639119 36.2229012,26.669982 36.2591347,27.2043527 C36.2856471,27.5917273 36.60026,27.8645096 37.0595124,27.8326948 C37.6831413,27.7893914 37.9715365,27.3478138 37.9161552,26.5303504 C37.9125752,26.4498006 37.9035205,26.3695875 37.8890537,26.2902666 C37.8018576,26.2961582 37.7131886,26.2920341 37.6262871,26.2979257 L37.6262871,26.2979257 Z M40.1314074,21.8300094 L41.9731303,21.8300094 L41.9731303,25.358211 L43.3373369,23.7168034 L45.1225002,23.7168034 L43.4749064,25.7497097 L45.290117,28.7871386 L43.3653221,28.7871386 L41.9731303,26.4882253 L41.9731303,28.7871386 L40.1314074,28.7871386 L40.1314074,21.8300094 L40.1314074,21.8300094 Z" id="Shape" stroke="#ECB73A" stroke-width="0.5" fill="#ECB73A"></path>
        </g>
    </g>
</svg>