<?xml version="1.0" encoding="UTF-8"?>
<svg width="200px" height="80px" viewBox="0 0 200 80" version="1.1" xmlns="http://www.w3.org/2000/svg" xmlns:xlink="http://www.w3.org/1999/xlink">
    <!-- Generator: Sketch 63.1 (92452) - https://sketch.com -->
    <title>landrover</title>
    <desc>Created with Sketch.</desc>
    <g id="landrover" stroke="none" stroke-width="1" fill="none" fill-rule="evenodd">
        <g id="land-rover-1" transform="translate(52.000000, 15.000000)" fill-rule="nonzero">
            <path d="M95.1789963,25 C95.1789963,38.7751083 73.878086,49.9425496 47.610861,49.9425496 C21.3360572,49.9425496 0.0383950153,38.7751083 0.0383950153,25 C0.0383950153,11.2248917 21.3360572,0.0574504194 47.610861,0.0574504194 C73.878086,0.0574504194 95.1789963,11.2248917 95.1789963,25 Z" id="Path" fill="#FFFAC3"></path>
            <path d="M93.211201,24.9821356 C93.211201,37.6334081 72.7861897,47.8881388 47.5935379,47.8881388 C22.3998035,47.8881388 1.97533354,37.6334081 1.97533354,24.9821356 C1.97533354,12.3314043 22.3998035,2.07613229 47.5935379,2.07613229 C72.7861897,2.07613229 93.211201,12.3314043 93.211201,24.9821356 Z M47.5935379,3.87935818 C23.3877612,3.87935818 3.76394306,13.3274823 3.76394306,24.9821356 C3.76394306,36.6362475 23.3877612,46.0843716 47.5935379,46.0843716 C71.798232,46.0843716 91.4209674,36.6362475 91.4209674,24.9821356 C91.4209674,13.3274823 71.798232,3.87935818 47.5935379,3.87935818 Z" id="Shape" fill="#2B6352"></path>
            <path d="M90.2879288,24.9821356 C90.2879288,36.0104507 71.1724352,44.9502502 47.5935379,44.9502502 C24.013558,44.9502502 4.89914711,36.0104507 4.89914711,24.9821356 C4.89914711,13.9549031 24.0140994,5.01510357 47.5935379,5.01510357 C71.1724352,5.01456223 90.2879288,13.9549031 90.2879288,24.9821356 Z M74.9559073,15.6336193 L67.6341931,15.6336193 L66.7420537,18.1833623 L71.4820855,18.1833623 L66.0761973,20.0553392 L65.7189084,21.0893114 L74.0367006,18.3614653 L74.9559073,15.6336193 L74.9559073,15.6336193 Z M28.2696258,20.1089325 L25.2873468,20.1089325 C25.2873468,20.1089325 28.0514631,12.7406624 28.2734153,12.1836167 C28.668057,11.1962003 28.9030015,11.26441 28.9030015,11.26441 L24.783353,11.26441 C25.2933016,11.508016 24.8412771,12.4705304 24.8412771,12.4705304 C24.8412771,12.4705304 21.541769,21.6593495 21.3116966,22.1184115 C21.0816243,22.5780148 20.909476,22.6359389 20.909476,22.6359389 L28.0444256,22.6359389 L29.0421276,19.914589 C28.9560535,20.1733527 28.2696258,20.1089325 28.2696258,20.1089325 L28.2696258,20.1089325 Z M40.784479,22.6245706 L44.1451594,22.6245706 C44.1451594,22.6245706 43.9150871,22.2835222 44.0585439,21.9105343 C44.2572182,21.3924655 46.0398729,16.5409163 46.0398729,16.5409163 L46.8150814,22.6245706 L49.8590739,22.6245706 L53.8493405,11.8025086 C53.8493405,11.8025086 54.0122859,11.2947254 54.2353207,11.2947254 L51.0007741,11.2849811 C51.0007741,11.2849811 51.0938858,11.6585104 50.9774962,11.9459655 C50.8643548,12.2328792 49.0259413,17.1434352 49.0259413,17.1434352 L48.3081156,11.2849811 L44.8337524,11.2849811 C44.8337524,11.2849811 45.0134795,11.5718949 44.898714,11.8880414 L41.215391,21.9960671 C41.215391,21.9960671 40.98586,22.6245706 40.784479,22.6245706 L40.784479,22.6245706 Z M56.1478986,11.2882292 C56.1478986,11.2882292 56.434271,11.7478326 56.0612832,12.8099548 C55.6872126,13.8731598 52.7590682,21.7692428 52.7590682,21.7692428 C52.7590682,21.7692428 52.5284545,22.5119705 52.2123081,22.6565101 L56.8072589,22.651638 C56.8072589,22.651638 62.3771752,22.8573497 64.1008231,17.0026851 C64.1008231,17.0026851 66.2829917,11.2308465 59.9654756,11.2887706 L56.1478986,11.2887706 L56.1478986,11.2882292 L56.1478986,11.2882292 Z M56.635652,20.036392 C56.635652,20.036392 56.6502684,20.0320613 57.1661718,20.0320613 C57.9473351,20.0320613 59.3948962,19.859913 60.3687789,17.4909798 C61.9673757,13.5981556 59.736486,13.7297029 59.736486,13.7297029 L58.874662,13.7297029 L56.635652,20.036392 L56.635652,20.036392 Z M15.7748025,31.7928185 L23.0965167,31.7928185 L23.9875734,29.2425342 L19.2486243,29.2425342 L24.6545125,27.3710986 L25.0123427,26.3382091 L16.6934678,29.0660551 L15.7748025,31.7928185 L15.7748025,31.7928185 Z M28.6068848,36.4954973 C28.4910367,36.4954973 28.4910367,36.1252162 28.4910367,36.1252162 L29.8373659,32.5512452 C29.8373659,32.5512452 31.5155407,35.8437159 31.6303062,36.0732469 C31.7450717,36.3038606 31.6871476,36.494956 31.6871476,36.494956 L35.7006921,36.494956 C35.3174186,36.494956 34.9227769,35.767386 34.9227769,35.767386 L32.9252075,32.1809641 C35.7201806,32.1809641 36.6134027,29.4119757 36.6134027,29.4119757 C37.9916714,25.0086615 33.3534128,25.123427 33.3534128,25.123427 L28.6063435,25.123427 C28.95064,25.5061592 28.682132,26.3106004 28.682132,26.3106004 C28.682132,26.3106004 25.7344992,34.7382859 25.5049682,35.389526 C25.2748959,36.0407661 24.8537281,36.4944147 24.8537281,36.4944147 L28.6068848,36.4954973 L28.6068848,36.4954973 Z M31.4516618,27.7392143 L30.6737466,30.0253215 L31.4013166,30.0253215 C31.4013166,30.0253215 32.8185622,30.1509139 33.3409618,29.0238301 C33.3409618,29.0238301 33.9526836,27.7327182 32.2431107,27.7327182 C31.8684988,27.7327182 31.4516618,27.7392143 31.4516618,27.7392143 L31.4516618,27.7392143 Z M70.1362976,36.5377671 C69.8499252,36.5442186 70.0496821,35.8410092 70.0496821,35.8410092 L71.2520131,32.5929289 C71.2520131,32.5929289 72.8706398,35.8864823 72.9848639,36.117096 C73.1001708,36.346627 73.042788,36.5377671 73.042788,36.5377671 L77.1992481,36.5377671 C76.8154333,36.5377671 76.3948069,35.8090697 76.3948069,35.8090697 L74.3966962,32.2237305 C77.1922106,32.2237305 78.0340047,29.5527258 78.0340047,29.5527258 C79.5015956,24.9426172 74.8259841,25.1656521 74.8259841,25.1656521 L70.1168091,25.1656521 C70.4616469,25.5483842 70.1942217,26.3528254 70.1942217,26.3528254 C70.1942217,26.3528254 67.1226204,34.8135331 66.8930894,35.4636905 C66.7485694,35.8634422 66.519618,36.2273641 66.2218195,36.5306849 L70.1362976,36.5377671 L70.1362976,36.5377671 Z M72.8738879,30.0670052 C72.8738879,30.0670052 74.2803066,30.1725678 74.7106773,29.0709272 C75.2190018,27.7738605 73.9517092,27.807424 73.9517092,27.807424 L72.9123235,27.807424 L72.1457765,30.0670052 L72.8738879,30.0670052 L72.8738879,30.0670052 Z M41.577552,36.7780803 C45.7204783,36.7780803 48.1863126,32.7136492 48.1863126,29.7984972 C48.1863126,26.7398883 46.9287642,24.8310998 44.0585439,24.8310998 C40.3957921,24.8310998 38.0062877,27.6109152 37.3896938,31.0663312 C36.8229038,34.243495 38.6174682,36.7780803 41.577552,36.7780803 Z M41.8384811,34.0902939 C42.871912,34.2819307 44.0081987,33.5375789 44.6015147,31.1616082 C45.5012329,27.5654421 43.8430879,27.5362093 43.5404751,27.4988564 C42.6234338,27.3867976 41.3994489,28.4429651 40.9019513,30.6446221 C40.6740443,31.649903 40.4326037,33.8293648 41.8384811,34.0902939 L41.8384811,34.0902939 Z M49.1699396,25.1667348 C49.1699396,25.1667348 49.4541466,25.3199359 49.4541466,26.0464232 L49.4541466,35.8870236 C49.4541466,35.8870236 49.4151696,36.4251223 49.2121646,36.5382637 L52.290262,36.5382637 C52.290262,36.5382637 52.290262,36.30765 52.5955815,35.9249179 C52.9019838,35.5421858 59.2958297,26.9661712 59.2958297,26.9661712 C59.2958297,26.9661712 60.7536764,25.1667348 61.1364085,25.1667348 L56.7303877,25.1667348 C56.7303877,25.1667348 57.0763082,25.3962658 56.8078003,25.8168922 C56.540375,26.2386013 52.6231902,32.096514 52.6231902,32.096514 L52.6729941,26.188256 C52.6729941,26.188256 52.6654153,25.2408993 53.045982,25.1618627 L49.1699396,25.1667348 Z M67.780898,27.8491077 L68.776976,25.1634867 L61.3112635,25.1645694 C61.3112635,25.1645694 61.5797715,25.4016793 61.2349336,26.3582389 C60.8900958,27.3164226 57.8650504,35.469104 57.8650504,35.469104 C57.8650504,35.469104 57.3301998,36.5404291 57.1775401,36.5404291 L64.8717008,36.5404291 L65.7903662,33.8228687 C65.7903662,33.8228687 65.676142,33.9749871 64.9485721,33.9749871 L61.6939957,33.9749871 L62.38313,32.137115 L64.9090538,32.137115 C64.9090538,32.137115 65.444987,32.0992207 65.5602938,32.2524218 L66.5931834,29.3480968 C66.5931834,29.3480968 66.5179362,29.6101086 65.8277191,29.6101086 L63.3781253,29.6101086 L64.1056952,27.5822238 L67.2070705,27.5822238 C67.2076119,27.5822238 67.629321,27.5242997 67.780898,27.8491077 Z M28.8624005,22.6343149 L32.5457235,22.6343149 C32.5457235,22.6343149 32.5343552,22.3517319 32.6301736,22.1682154 C32.8050286,21.8363698 33.2619252,21.0357181 33.2619252,21.0357181 L36.9690674,21.0357181 L36.976105,22.0339614 C36.976105,22.0339614 36.9950521,22.3782579 36.7222134,22.6435178 L40.3979575,22.6435178 C40.3979575,22.6435178 40.1251188,22.4903167 40.0747735,22.0382922 L39.6130048,12.046656 C39.6130048,12.046656 39.5929749,11.4078669 39.8972118,11.2730715 L36.2507004,11.2730715 C36.2507004,11.2730715 36.506216,11.5886767 36.0179213,12.3070437 C35.5301679,13.0248695 29.3008913,22.261327 29.3008913,22.261327 C29.3008913,22.261327 29.1774643,22.4978955 28.8624005,22.6343149 L28.8624005,22.6343149 Z M36.8976097,15.1409938 L34.8507778,18.4708174 L36.9263011,18.4708174 L36.8976097,15.1409938 Z" id="Shape" fill="#2B6352"></path>
        </g>
    </g>
</svg>