<?xml version="1.0" encoding="UTF-8"?>
<svg width="200px" height="80px" viewBox="0 0 200 80" version="1.1" xmlns="http://www.w3.org/2000/svg" xmlns:xlink="http://www.w3.org/1999/xlink">
    <!-- Generator: Sketch 63.1 (92452) - https://sketch.com -->
    <title>mos</title>
    <desc>Created with Sketch.</desc>
    <g id="mos" stroke="none" stroke-width="1" fill="none" fill-rule="evenodd">
        <g id="ministry-of-sound" transform="translate(73.000000, 13.000000)" fill="#000000" fill-rule="nonzero">
            <path d="M31.9049968,3.22751648 L31.4998156,3.78456275 L32.158624,3.85209294 L31.9049968,3.22751648 L31.9049968,3.22751648 Z M33.5761356,4.05437232 L32.9680527,4.22335339 L33.4239593,4.69606473 L33.5761356,4.05437232 L33.5761356,4.05437232 Z" id="Shape"></path>
            <path d="M32.3104891,4.39202327 C31.888192,4.22335339 31.314341,4.1558232 30.5550154,4.22335339 C29.9472436,4.27407884 29.3733926,4.40913922 28.8499558,4.5778091 L28.6305605,4.30768833 L28.8499558,3.85209294 L29.6260862,3.98715332 L29.6260862,1.38770777 L28.4111652,1.5734936 L28.5462256,1.26945214 L26.8078678,0.138554841 L25.0860035,1.26945214 L25.2213751,1.5734936 L24.0061428,1.38770777 L24.0061428,3.98715332 L24.7993892,3.85209294 L25.0019798,4.30768833 L24.7993892,4.5778091 C24.2762636,4.40913922 23.6856078,4.27407884 23.0778361,4.22335339 C22.335004,4.1558232 21.761153,4.22335339 21.3223624,4.39202327 C20.7821208,4.5774979 20.5627255,4.9319536 20.6302557,5.45539038 C20.6809811,6.07965564 21.1704972,6.90682268 22.0480785,7.93658029 L21.3895813,7.93658029 L21.3556606,10.9072863 C23.1450551,10.3838495 24.9509431,10.11404 26.7907518,10.11404 L26.858282,10.11404 C28.6809748,10.11404 30.4868628,10.3838495 32.2762572,10.9072863 L32.2591413,7.93658029 L31.5505411,7.93658029 C32.4617319,6.90682268 32.9515591,6.07996684 33.0190893,5.45539038 C33.0698148,4.9322648 32.8333035,4.5774979 32.3104891,4.39202327 L32.3104891,4.39202327 Z M28.0563983,1.38770777 L27.8376254,1.9615588 L29.3055512,1.79288892 L29.3055512,3.56516743 L28.596951,3.51444199 L28.209197,4.25727409 C28.4114764,4.52708365 28.4955001,4.76359492 28.5126161,4.94906955 C28.529732,5.18526961 28.4282811,5.57364601 28.209197,6.0631621 C28.1248621,6.28286862 28.0735142,6.58659888 28.1248621,6.99146882 L28.209197,8.08844542 L25.4071609,8.08844542 L25.5086118,6.99146882 C25.5422213,6.58628768 25.5086118,6.28255742 25.4071609,6.0631621 C25.2048815,5.57395721 25.1031194,5.18558081 25.1199242,4.94906955 C25.1370401,4.76359492 25.238491,4.52708365 25.4071609,4.25727409 L25.0527052,3.51444199 L24.3266778,3.56516743 L24.3266778,1.79288892 L25.7784214,1.9615588 L25.559026,1.38770777 L26.808179,0.59446143 L26.8417885,0.59446143 L28.0563983,1.38770777 L28.0563983,1.38770777 Z M28.9349132,4.98299024 C29.2218387,4.81432036 29.6600069,4.71318068 30.2509739,4.64533929 C30.8926663,4.56100435 31.4161031,4.5778091 31.838089,4.67894878 C32.3615258,4.81400916 32.6142194,5.06701398 32.5977258,5.45539038 C32.5806099,5.92810171 32.1754287,6.58628768 31.3989872,7.37953402 L31.0445314,6.99115762 C31.2468108,6.72103686 31.3818712,6.45122729 31.3989872,6.16430178 C31.4161031,5.91098577 31.3650665,5.65798095 31.1967078,5.48899987 C30.7744107,5.10093468 30.015085,5.10093468 28.8676942,5.48899987 C28.9177972,5.23599506 28.9510955,5.06701398 28.9349132,4.98299024 L28.9349132,4.98299024 Z M28.6984019,5.94490646 L29.2218387,5.77623658 C29.9808531,5.48931107 30.5042899,5.50611582 30.7740995,5.79304133 C30.8926663,5.87737627 30.9430806,6.0295526 30.9259646,6.23183197 C30.9094711,6.3836971 30.8080202,6.58628768 30.6900757,6.75495755 C30.2341692,6.55267818 29.508453,6.48514799 28.5294208,6.55267818 L28.5465368,6.53587343 C28.5465368,6.31616691 28.6137558,6.11388754 28.6984019,5.94490646 L28.6984019,5.94490646 Z M27.3988347,8.2913472 L27.1112868,8.66260765 L26.4702168,8.6454917 L26.217212,8.291036 L26.8078678,8.20670106 L27.3988347,8.2913472 L27.3988347,8.2913472 Z M27.364914,8.79766803 L27.8379366,8.52754727 C27.9054668,8.59507746 27.9219603,8.79766803 27.9054668,9.11820304 C27.8715461,9.45585399 27.8379366,9.67524931 27.7868999,9.79350495 L27.3481093,9.45585399 L27.3991459,9.11820304 L27.364914,8.79766803 Z M29.6768117,8.18989631 C29.7443419,8.05483593 29.7953785,7.97050099 29.8629087,7.97050099 C29.913323,7.97050099 29.9979691,8.05483593 30.0490057,8.18989631 L30.1159135,8.66260765 L30.0490057,9.18573323 C29.9979691,9.30398886 29.913323,9.37151905 29.8629087,9.37151905 C29.7953785,9.37151905 29.7443419,9.30398886 29.6768117,9.18573323 C29.6263974,9.0338681 29.6092815,8.86519822 29.6263974,8.66260765 C29.6095927,8.47682182 29.6263974,8.32464549 29.6768117,8.18989631 Z M31.4998156,8.32464549 L31.8716985,8.32464549 L31.8716985,10.4849892 L31.4662061,10.4006543 L31.4662061,9.18542203 L31.1963966,9.11789184 C31.3482617,9.01675215 31.4494014,8.74663139 31.4998156,8.32464549 L31.4998156,8.32464549 Z M30.6225456,9.32048241 C31.0442202,9.32048241 31.2639268,9.3883238 31.2639268,9.54018893 C31.2639268,9.59091437 31.1963966,9.64163982 31.0778297,9.69205406 L30.6225456,9.7427795 C30.2002485,9.7427795 29.9808531,9.67524931 29.9808531,9.54018893 C29.9808531,9.3883238 30.2002485,9.32048241 30.6225456,9.32048241 L30.6225456,9.32048241 Z M29.8457928,9.7427795 C30.0651881,9.7427795 30.1837549,9.79350495 30.1837549,9.89464463 C30.1837549,9.97897957 30.0651881,10.0465098 29.8457928,10.0465098 C29.6435134,10.0465098 29.5417513,9.97866837 29.5588672,9.89464463 C29.5420625,9.79350495 29.6435134,9.7427795 29.8457928,9.7427795 Z M29.1200766,9.32048241 C29.5417513,9.32048241 29.7614578,9.3883238 29.7614578,9.54018893 C29.7614578,9.67524931 29.5420625,9.7427795 29.1200766,9.7427795 C28.681286,9.7427795 28.4618906,9.67524931 28.4783842,9.54018893 C28.4618906,9.3883238 28.681286,9.32048241 29.1200766,9.32048241 Z M27.0947933,9.11820304 C27.0947933,9.30398886 27.0104583,9.3883238 26.8243613,9.3883238 L26.6220819,9.32048241 C26.5674788,9.26743436 26.5369992,9.19432816 26.537747,9.11820304 L26.6220819,8.89880772 L26.8243613,8.83127752 C27.0104583,8.83127752 27.0947933,8.91530126 27.0947933,9.11820304 L27.0947933,9.11820304 Z M27.3988347,9.91144938 L26.8078678,9.99578432 L26.217212,9.91144938 L26.4702168,9.54018893 C26.7232216,9.57379843 26.9429281,9.57379843 27.1112868,9.54018893 L27.3988347,9.91144938 L27.3988347,9.91144938 Z M22.7230692,6.23183197 C22.7062645,6.0295526 22.7230692,5.87737627 22.8581296,5.79304133 C23.1282504,5.50611582 23.6345712,5.48931107 24.4110128,5.77623658 L24.9173336,5.94490646 C25.0016686,6.13069229 25.0691988,6.33328286 25.0860035,6.53587343 L25.0860035,6.55267818 C24.1240873,6.48514799 23.3983711,6.55267818 22.9595805,6.75495755 C22.8245201,6.58628768 22.7230692,6.3836971 22.7230692,6.23183197 L22.7230692,6.23183197 Z M22.4529485,5.48931107 C22.2842786,5.65829215 22.2167484,5.91098577 22.2167484,6.16461298 C22.2674738,6.45153849 22.3854183,6.72134806 22.5880088,6.99146882 L22.2674738,7.37984522 C21.4574227,6.58659888 21.0522416,5.92810171 21.0354368,5.45570158 C21.0186321,5.06732518 21.2716369,4.81432036 21.7950737,4.67925998 C22.2167484,4.5778091 22.7230692,4.56131555 23.3983711,4.64565049 C23.9554174,4.71349188 24.394208,4.81432036 24.6811336,4.98330144 L24.7822732,5.48962227 C23.6345712,5.10124587 22.8413248,5.10124587 22.4529485,5.48931107 Z M21.7950737,8.32464549 L22.1156087,8.32464549 C22.1831389,8.76374733 22.3013945,9.01675215 22.4532597,9.11789184 L22.1495294,9.18542203 L22.1495294,10.4006543 L21.7782689,10.4849892 L21.7950737,8.32464549 Z M23.6177664,8.18989631 C23.6513759,8.05483593 23.7189061,7.97050099 23.7696316,7.97050099 C23.8200458,7.97050099 23.904692,8.05483593 23.9551062,8.18989631 C23.9890269,8.30784075 24.0058316,8.46001707 24.0058316,8.66260765 C24.0058316,8.86488702 23.9890269,9.0335569 23.9551062,9.18573323 C23.9043808,9.30398886 23.8539665,9.37151905 23.7696316,9.37151905 C23.7189061,9.37151905 23.6513759,9.30398886 23.6177664,9.18573323 C23.5502363,9.0338681 23.5163156,8.86519822 23.5163156,8.66260765 C23.5163156,8.47682182 23.5502363,8.32464549 23.6177664,8.18989631 Z M25.7613054,8.52754727 L26.2508215,8.79766803 L26.217212,9.11820304 C26.2004072,9.28687291 26.217212,9.3883238 26.2508215,9.45585399 L25.7952261,9.79350495 L25.7276959,9.11820304 C25.7108912,8.79766803 25.7276959,8.59507746 25.7613054,8.52754727 Z M23.4827061,9.89464463 C23.4659013,9.79350495 23.5673522,9.7427795 23.7699428,9.7427795 C24.0061428,9.7427795 24.1243985,9.79350495 24.1243985,9.89464463 C24.1243985,9.97897957 24.0061428,10.0465098 23.7699428,10.0465098 C23.5673522,10.0465098 23.4659013,9.97866837 23.4827061,9.89464463 Z M24.5460732,9.7427795 C24.1069713,9.7427795 23.887576,9.67524931 23.887576,9.54018893 C23.887576,9.3883238 24.1072825,9.32048241 24.5460732,9.32048241 C24.9677479,9.32048241 25.1703388,9.3883238 25.1703388,9.54018893 C25.1706496,9.67524931 24.9680591,9.7427795 24.5460732,9.7427795 Z M22.4025342,9.54018893 C22.3857295,9.3883238 22.6048136,9.32048241 23.0439154,9.32048241 C23.4659013,9.32048241 23.6516871,9.3883238 23.6516871,9.54018893 C23.6516871,9.67524931 23.4659013,9.7427795 23.0439154,9.7427795 C22.6048136,9.7427795 22.3857295,9.67524931 22.4025342,9.54018893 Z" id="Shape"></path>
            <polygon id="Path" points="28.1245509 3.4129911 27.6686443 3.32865616 27.9051556 3.78456275"></polygon>
            <path d="M28.7317002,3.07534015 L28.7317002,2.29920975 L27.1794394,2.50180032 L27.3817188,1.64071259 L26.8078678,1.25264739 L26.217212,1.64071259 L26.4366073,2.50180032 L24.8669194,2.29920975 L24.8669194,3.07534015 L26.4366073,2.95739571 L26.0143102,4.9322648 L26.8078678,4.25727409 L27.5843094,4.9322648 L27.1794394,2.95739571 L28.7317002,3.07534015 L28.7317002,3.07534015 Z M27.2973839,6.67093381 C27.2973839,6.46834324 27.1284028,6.36689236 26.8078678,6.36689236 C26.4534121,6.36689236 26.3012357,6.46834324 26.3012357,6.67093381 C26.3012357,6.73815281 26.3351564,6.8059942 26.4194914,6.85671964 L26.6896121,6.90713388 L26.0485421,7.61604529 L27.5503887,7.61604529 L26.8757092,6.90713388 L27.1626347,6.85671964 C27.263152,6.805683 27.2973839,6.75495755 27.2973839,6.67093381 L27.2973839,6.67093381 Z M27.4996632,5.6411762 L26.8078678,4.99948379 L26.1325659,5.6411762 L26.8078678,6.23183197 L27.4996632,5.6411762 Z" id="Shape"></path>
            <path d="M25.5083006,3.4129911 L25.7108912,3.78456275 L25.9470912,3.32865616 L25.5083006,3.4129911 Z M30.3359312,3.22751648 L30.082304,3.81848345 L30.7236852,3.78456275 L30.3359312,3.22751648 Z M33.8798659,6.09708279 L33.4581912,5.57364601 L33.2549782,6.19822248 L33.8798659,6.09708279 L33.8798659,6.09708279 Z M33.1541497,7.59955174 L32.9176384,6.99146882 L32.5298844,7.5145944 L33.1541497,7.59955174 Z M33.0194005,12.9496856 C33.0526988,12.7131743 33.0365165,12.5276997 32.9854798,12.4433647 C32.9350656,12.3758345 32.8164988,12.3083044 32.665256,12.2578901 L32.665256,11.2620532 C30.7744107,10.6542815 28.8337735,10.3505512 26.808179,10.3505512 C24.7825844,10.3505512 22.841636,10.6542815 20.9679066,11.2620532 L20.9679066,12.2578901 L20.5966462,12.4604807 C20.546232,12.5616204 20.546232,12.7302903 20.5966462,12.9499968 C22.6219295,12.2242806 24.7150542,11.852709 26.808179,11.852709 C28.9177972,11.8523978 30.9941172,12.2239694 33.0194005,12.9496856 L33.0194005,12.9496856 Z M31.4833221,11.3796864 C31.6183825,11.3968024 31.6856015,11.5315516 31.6687967,11.7341421 C31.6183825,11.8860073 31.5337363,11.9706534 31.3647553,11.9706534 L30.2845834,11.7005326 C30.1156023,11.6498072 30.0651881,11.5486675 30.0991088,11.3631929 C30.0991088,11.2956627 30.1324071,11.2449373 30.1999373,11.1774071 C30.2503515,11.1266816 30.3178817,11.1098769 30.3689183,11.1266816 L31.4833221,11.3796864 Z M28.9682115,10.9072863 C29.1032719,10.9244022 29.1711132,11.0255419 29.1711132,11.2278213 C29.1539973,11.3968024 29.0696624,11.4979421 28.9177972,11.4811373 L27.7865887,11.3796864 C27.6347236,11.3628817 27.5671934,11.2785467 27.5843094,11.0927609 C27.5843094,10.8901703 27.6686443,10.8058354 27.8208206,10.8229514 L28.9682115,10.9072863 L28.9682115,10.9072863 Z M25.9470912,10.8733656 C25.9978167,10.924091 26.0143102,10.9745053 26.0143102,11.0759562 C26.0143102,11.2785467 25.9470912,11.3628817 25.7781102,11.3628817 L24.6472129,11.4808261 C24.5964874,11.4808261 24.5460732,11.4640214 24.4950365,11.3964912 L24.4278175,11.1770959 L24.4950365,10.9745053 C24.5289572,10.924091 24.5796827,10.8901703 24.6472129,10.9069751 L25.7609942,10.8058354 C25.8117197,10.7890307 25.8963658,10.8229514 25.9470912,10.8733656 L25.9470912,10.8733656 Z M23.22939,11.1266816 C23.2801155,11.1098769 23.3647616,11.1266816 23.3983711,11.1774071 L23.5163156,11.3631929 C23.5331203,11.4139183 23.5163156,11.4979421 23.4823949,11.5654723 L23.3476457,11.7005326 L22.2167484,11.9706534 C22.081688,11.9706534 21.9973531,11.8863185 21.9469388,11.7341421 C21.9298229,11.5318628 21.9973531,11.3968024 22.1156087,11.3796864 L23.22939,11.1266816 L23.22939,11.1266816 Z" id="Shape"></path>
            <path d="M33.4410752,14.0634669 C31.331457,13.1354714 29.1200766,12.6627261 26.8078678,12.6627261 C24.528325,12.6580884 22.2735511,13.1354289 20.1914651,14.0634669 C18.1490658,14.9581642 16.3431778,16.2409266 14.7731786,17.8949495 C13.2038019,19.5321676 11.9882585,21.4227017 11.110366,23.5830454 C10.2327847,25.8109193 9.79399405,28.1234394 9.79399405,30.5542151 C9.79399405,33.7611211 10.5704356,36.7654366 12.1233188,39.5839663 C12.0725934,39.6350029 12.0389839,39.6854172 12.0897093,39.7529474 C12.1065141,39.8033616 12.1572395,39.8204776 12.2076538,39.7868681 L13.507221,39.0272312 L15.4652853,43.7699045 L17.2375638,42.7908724 C17.5917083,42.9598534 17.96328,43.1288345 18.3177357,43.2978156 L18.4359913,43.500095 L18.0815356,43.9055873 C18.0476149,43.9731175 18.0476149,44.0235318 18.0980291,44.073946 C18.1655593,44.1072443 18.19948,44.1072443 18.2498943,44.073946 L20.2247634,46.9092804 L21.3388559,45.8129262 C21.3895813,45.8633405 21.4571115,45.8294198 21.507837,45.7285913 L21.8790974,44.5469685 L21.170186,44.2765366 C21.1341876,44.2485052 21.0943661,44.225765 21.0519304,44.2090064 L21.0012049,44.1246714 L22.0477673,44.3107685 L22.1828277,44.8170893 L21.8622927,45.8801452 L21.9298229,46.0320103 L22.0480785,46.0155168 L23.9725333,48.0408001 L24.9005289,46.7244282 C25.0016686,46.7073122 25.0355893,46.6740139 25.052394,46.5893678 L25.2042591,45.3234101 L24.6472129,45.2558799 L24.461427,44.6652242 L26.013999,44.7495591 L26.013999,45.3738244 L25.4233433,45.3573308 L25.3561243,46.6397821 L25.4233433,46.7412329 L25.5079894,46.7412329 L26.8075566,48.2430795 L28.073203,46.724117 L28.1917699,46.724117 L28.2421841,46.6061726 L28.1746539,45.3570196 L27.5497663,45.3735132 L27.583687,44.7492479 L29.1197654,44.664913 L28.9679003,45.2555687 L28.3940493,45.3399037 L28.5459144,46.6058614 C28.5459144,46.7066898 28.6134446,46.7409217 28.6977795,46.7238058 L29.625775,48.0401777 L31.4991932,46.0313879 L31.6516808,46.0313879 C31.6849791,45.9980896 31.702095,45.9305594 31.6849791,45.8795228 L31.3641329,44.9008018 L31.5502299,44.3101461 L32.5967922,44.1072443 L32.5628715,44.2086952 C32.5457556,44.1922016 32.5124573,44.2258111 32.4614207,44.2762254 L31.719211,44.5637733 L32.106965,45.7447736 C32.1580016,45.8291086 32.2255318,45.8462245 32.275946,45.8129262 L33.3729226,46.9092804 L35.3477917,44.073946 C35.4153219,44.1072443 35.4492426,44.1072443 35.4996569,44.073946 C35.5335775,44.0235318 35.5335775,43.9731175 35.4996569,43.9055873 L35.1452012,43.500095 L35.2631456,43.2978156 L36.3601222,42.7908724 L38.1495166,43.7699045 L40.0739715,39.0272312 L41.3735387,39.7868681 C41.4239529,39.8201664 41.4749896,39.8033616 41.5425197,39.7529474 C41.5590133,39.6854172 41.5425197,39.6350029 41.4749896,39.5839663 C43.0443663,36.7825526 43.8376126,33.7782371 43.8376126,30.5542151 C43.8376126,28.1234394 43.398822,25.8109193 42.5047472,23.5830454 C41.6433482,21.4227017 40.4284272,19.5321676 38.8416233,17.8949495 C37.272869,16.2409266 35.466981,14.9581642 33.4410752,14.0634669 L33.4410752,14.0634669 Z M36.7155115,17.7094748 C36.6990179,17.7433955 36.6822132,17.7938098 36.6990179,17.8781447 L37.0867719,18.4688005 C36.5633352,18.164759 35.9733018,17.8949495 35.3655301,17.6584382 L34.7577584,16.2577313 C35.445169,16.6928234 36.0995307,17.1780558 36.7155115,17.7094748 L36.7155115,17.7094748 Z M29.1371926,15.4984057 L29.2722529,14.4686481 L29.7110436,16.2580425 L29.3055512,16.2241218 L29.1371926,15.4984057 Z M29.0525464,14.1478019 L28.917486,15.3630341 L27.5497663,15.2279737 L27.516468,14.046351 L29.0525464,14.1478019 L29.0525464,14.1478019 Z M27.5500775,15.464485 L28.9006813,15.5998566 L29.0525464,16.1733964 L27.5839982,16.0890615 L27.5500775,15.464485 L27.5500775,15.464485 Z M31.3482617,15.7853312 L30.9259646,14.5869037 L32.5974146,15.1607547 L32.2765684,16.1394757 L31.3482617,15.7853312 L31.3482617,15.7853312 Z M31.5841506,16.5278521 L31.4157919,16.0551408 L32.2261542,16.358871 L32.4116288,16.7133267 L31.5841506,16.5278521 L31.5841506,16.5278521 Z M33.4749959,17.0005634 L32.6811272,16.7640522 L32.4452383,16.3084568 L32.7825781,15.3294246 C32.9518703,15.5998566 33.1877592,16.1565916 33.4749959,17.0005634 Z M32.4113176,19.9541535 L33.373545,20.1567441 L33.4914895,20.6123394 L32.5127685,20.4268648 L32.4113176,19.9541535 L32.4113176,19.9541535 Z M33.5929404,20.0892139 L34.1835961,19.2284373 L34.5719725,20.8317348 L33.7276895,20.6630649 L33.5929404,20.0892139 Z M34.0488469,19.009042 L33.4239593,19.920544 L32.3609034,19.6843439 L32.3437874,19.6843439 L32.1583128,18.6038609 L34.0488469,19.009042 L34.0488469,19.009042 Z M29.7443419,19.3127723 L30.2341692,18.50241 L30.5715089,20.1396281 L29.896207,20.0384884 L29.7443419,19.3127723 Z M30.09942,18.3001306 L29.5930991,19.1948278 L27.7022538,19.009042 L27.6689555,18.114656 L30.09942,18.3001306 L30.09942,18.3001306 Z M29.5588672,19.4142232 L29.6596957,20.0387996 L27.7358633,19.9712694 L27.7187473,19.2287485 L29.5588672,19.4142232 L29.5588672,19.4142232 Z M27.7865887,22.5367943 L27.7694728,21.8618036 L30.7576059,22.0472782 L30.1159135,22.6886594 L27.7865887,22.5367943 Z M30.3692295,26.9757373 L27.8541189,26.840677 L27.8376254,26.0813513 L31.2296949,26.2332164 L30.3692295,26.9757373 L30.3692295,26.9757373 Z M30.082304,22.9251707 L30.2173644,24.0053425 L27.8208206,23.8873981 L27.7868999,22.7396961 L30.082304,22.9251707 L30.082304,22.9251707 Z M30.4367597,24.0050313 L30.2848946,22.8237198 L30.9262758,22.1991433 L31.1627871,24.0728727 L30.4367597,24.0050313 L30.4367597,24.0050313 Z M34.031731,23.4311803 L32.9851686,23.2114738 L32.8501083,22.2831671 L34.8249773,22.705153 L34.031731,23.4311803 L34.031731,23.4311803 Z M33.373545,27.009658 L33.3231308,26.4190023 L35.4159443,26.7395373 L34.4879488,27.1783279 L33.373545,27.009658 L33.373545,27.009658 Z M33.1370338,24.2751521 L33.0190893,23.4482963 L33.9642008,23.6676916 L34.1163771,24.4099013 L33.1370338,24.2751521 Z M38.0153899,20.6462601 L38.4541805,22.2327528 L37.6438182,21.8614924 L37.4748371,21.1861905 L38.0153899,20.6462601 L38.0153899,20.6462601 Z M39.6189985,21.5409574 L40.2771845,22.0640829 L41.20518,23.9711106 L40.0574779,23.1778643 L39.6189985,21.5409574 L39.6189985,21.5409574 Z M37.4076181,21.7771574 L36.5633352,21.4563112 L36.3949765,20.7981253 L37.2386371,21.2033064 L37.4076181,21.7771574 L37.4076181,21.7771574 Z M37.3232832,21.0007158 L36.3277575,20.4947062 L36.0744415,19.6843439 C36.6317989,19.8866233 37.2389483,20.1399393 37.8638359,20.4772791 L37.3232832,21.0007158 L37.3232832,21.0007158 Z M37.1206926,24.1572077 L37.8635247,24.4945474 L37.9814692,25.2034588 L37.255753,25.0011795 L37.1206926,24.1572077 Z M37.0702784,23.9206964 L36.9345956,23.2285897 L38.6900694,23.9206964 L38.0153899,24.3090728 C37.697471,24.1867407 37.3823536,24.0572489 37.0702784,23.9206964 L37.0702784,23.9206964 Z M34.9771537,22.8576405 L35.2979999,24.5623888 L34.3528884,24.4441332 L34.1839073,23.6004726 L34.9771537,22.8576405 Z M38.100036,24.5284681 L38.8422457,24.0728727 L39.0283427,25.4735796 L38.2179804,25.2541843 L38.100036,24.5284681 L38.100036,24.5284681 Z M41.0200166,25.6932861 L40.546994,25.3724399 L40.4290496,24.7478634 L41.6271659,25.4738908 L41.0200166,25.6932861 L41.0200166,25.6932861 Z M40.9524864,26.1488815 L40.6820544,26.0306259 L40.6316402,25.6932861 L40.9014497,25.8787607 L40.9524864,26.1488815 L40.9524864,26.1488815 Z M41.2222959,26.2329052 L41.137961,25.8784495 L41.7793422,25.6593654 L41.9987375,26.5708674 L41.2222959,26.2329052 L41.2222959,26.2329052 Z M42.1674074,28.1741648 L41.6610866,28.5286205 L41.0197054,28.3767554 L40.9521752,27.8875505 L42.1674074,28.1741648 L42.1674074,28.1741648 Z M41.8633659,31.3135407 L42.4036075,31.2802424 L42.3021566,32.5122794 L41.7283056,32.1067871 L41.8633659,31.3135407 Z M41.8465612,29.3557876 L41.779031,28.7308999 L42.3024678,28.3764442 L42.3868027,29.4062018 L41.8465612,29.3557876 L41.8465612,29.3557876 Z M41.6271659,32.2925729 L42.1169932,32.6638333 L40.9014497,33.0011731 L40.9524864,32.461554 L41.6271659,32.2925729 Z M41.9308961,34.3517769 L41.6782025,35.3304979 L41.1883752,35.1117249 L41.3402404,34.6047817 L41.9308961,34.3517769 L41.9308961,34.3517769 Z M41.0361989,28.6300714 L41.5596357,28.7480159 L41.6271659,29.3557876 L41.0875468,29.3218669 L41.0361989,28.6300714 L41.0361989,28.6300714 Z M38.4202598,28.0051838 L39.1970126,27.5327836 L39.2810363,29.2546479 L38.5049059,29.2546479 L38.4202598,28.0051838 L38.4202598,28.0051838 Z M38.2179804,28.0391044 L38.2855106,29.2207272 L37.6441294,29.2036112 L37.5765992,27.9040441 L38.2179804,28.0391044 L38.2179804,28.0391044 Z M38.9776173,27.3977232 L38.2851994,27.8197091 L37.5765992,27.6846487 L37.5255626,27.0603835 L38.9776173,27.3977232 L38.9776173,27.3977232 Z M38.5049059,31.4149916 L39.2810363,31.4149916 L39.1970126,33.2376844 L38.4202598,32.7484795 L38.5049059,31.4149916 L38.5049059,31.4149916 Z M34.7745631,31.5497408 L35.7367905,31.5164425 L35.5678094,33.8448337 L34.622698,33.3220193 L34.7745631,31.5497408 L34.7745631,31.5497408 Z M34.4201074,27.3977232 L34.5551678,29.1021604 L33.4410752,29.1021604 L33.373545,27.2626629 L34.4201074,27.3977232 Z M34.7745631,29.1363923 L34.622698,27.3641137 L35.5678094,26.8745977 L35.7367905,29.1363923 L34.7745631,29.1363923 L34.7745631,29.1363923 Z M37.5255626,33.6935909 L37.5765992,33.0858192 L38.2851994,32.9339541 L39.0442139,33.4069766 L37.5255626,33.6935909 L37.5255626,33.6935909 Z M37.2386371,35.8707394 L37.6945437,35.7699109 L37.5765992,36.2756093 L37.1206926,36.4280969 L37.2386371,35.8707394 Z M34.5380518,33.5246099 L35.4156331,34.0138147 L33.3228196,34.250326 L33.3732338,33.6602926 L34.5380518,33.5246099 Z M41.5431421,32.0902935 L40.9857847,32.2082379 L41.0361989,31.3135407 L41.6439706,31.3135407 L41.5431421,32.0902935 Z M37.913939,35.7017583 L38.9776173,35.4319488 L38.7753379,36.8500828 L37.7963057,36.2927253 L37.913939,35.7017583 Z M40.4794638,35.6852648 L41.0361989,35.3301867 L41.5260262,35.4991677 L40.3272875,36.2588046 L40.4794638,35.6852648 Z M41.0533149,34.7233486 L40.9524864,35.1117249 L40.5136957,35.3986505 L40.6316402,34.8917072 L41.0533149,34.7233486 L41.0533149,34.7233486 Z M38.2683947,31.4149916 L38.2179804,32.7145588 L37.5937152,32.8496192 L37.6441294,31.465717 L38.2683947,31.4149916 Z M34.5551678,31.5497408 L34.4033026,33.2880986 L33.373545,33.4237814 L33.4239593,31.550052 L34.5551678,31.550052 L34.5551678,31.5497408 L34.5551678,31.5497408 Z M30.6225456,29.0346302 L30.5210947,27.1444072 L31.398676,26.3850816 C31.4662061,27.2119374 31.5337363,28.1066346 31.5505411,29.0517461 L30.6225456,29.0346302 Z M27.8541189,27.0603835 L30.3016993,27.1783279 L30.4196438,29.0346302 L27.8541189,29.0346302 L27.8541189,27.0603835 L27.8541189,27.0603835 Z M30.3181929,33.4237814 L27.8541189,33.5588418 L27.8712349,31.6175822 L30.4196438,31.6004662 L30.3181929,33.4237814 Z M27.8376254,34.5372515 L27.8541189,33.7944194 L30.3692295,33.6599814 L31.2300061,34.3685816 L27.8376254,34.5372515 Z M30.5382106,33.4741956 L30.6225456,31.6004662 L31.5505411,31.5839727 C31.5334251,32.6974428 31.4662061,33.5921401 31.4154807,34.2335213 L30.5382106,33.4741956 Z M32.5298844,40.445054 L33.4914895,40.258957 L33.373545,40.7823938 L32.4113176,41.0350874 L32.5298844,40.445054 Z M31.1624759,36.7825526 L30.9259646,38.5884406 L30.2845834,37.9470594 L30.4535645,36.8329668 L31.1624759,36.7825526 L31.1624759,36.7825526 Z M33.0194005,37.541567 L33.137345,36.579962 L34.2685535,36.4280969 L34.0995724,37.3221717 L33.0194005,37.541567 Z M32.9680527,37.811999 L34.1502978,37.541567 L34.8078614,38.1493387 L32.8672242,38.5370927 L32.9680527,37.811999 Z M27.8205094,36.9344177 L30.2341692,36.8500828 L30.082304,37.879218 L27.7865887,38.065315 L27.8205094,36.9344177 L27.8205094,36.9344177 Z M27.7694728,38.3015151 L30.1156023,38.115418 L30.7572947,38.7742264 L27.7691616,38.959701 L27.7691616,38.3015151 L27.7694728,38.3015151 L27.7694728,38.3015151 Z M29.7614578,41.7617372 L29.9475548,40.765589 L30.5718201,40.6980589 L30.2344804,42.3523929 L29.7614578,41.7617372 Z M29.7278483,40.7823938 L29.5588672,41.677091 L27.7019426,41.8460721 L27.7190585,40.8838447 L29.7278483,40.7823938 Z M29.5930991,41.9307182 L30.082304,42.5207516 L27.6686443,42.7068486 L27.7019426,42.0486627 L29.5930991,41.9307182 Z M29.3400943,44.6474858 L29.7278483,44.5799556 L29.2719417,46.2514057 L29.1539973,45.3567084 L29.3400943,44.6474858 L29.3400943,44.6474858 Z M33.390661,41.0189051 L33.9984327,41.8460721 L32.158624,42.2677468 L32.3609034,41.2887146 L33.390661,41.0189051 Z M34.1502978,41.6431703 L33.5758244,40.8841559 L33.7276895,40.208854 L34.5548566,40.0227569 L34.1502978,41.6431703 Z M32.8672242,44.0568301 L33.5254102,43.8713554 C33.3231308,44.5637733 33.1709545,45.0025639 33.0523876,45.2048433 L32.7150479,44.3605603 L32.8672242,44.0568301 Z M32.0067589,44.6985225 L32.5301956,44.4956207 L32.9014561,45.4074339 L32.2936844,45.6439451 L32.0067589,44.6985225 Z M39.973143,37.8789068 L40.0235572,37.8624132 L40.631329,38.199753 L41.3237468,39.4828266 L39.787046,38.5881294 L39.973143,37.8789068 L39.973143,37.8789068 Z M40.2261478,37.727664 L40.9524864,37.2042273 L40.5812259,37.9299434 L40.2261478,37.727664 L40.2261478,37.727664 Z M38.3863391,38.7403057 L37.9475485,40.3103049 L37.255753,39.6686124 L37.4076181,39.1289933 L38.3863391,38.7403057 L38.3863391,38.7403057 Z M39.5514683,39.3813757 L39.719827,38.8075247 L40.0406732,38.9765058 L39.5514683,39.3813757 Z M36.9012973,37.6262132 L37.0867719,36.7315159 L37.6945437,36.4956271 L38.6057344,37.0352462 L36.9012973,37.6262132 Z M34.9771537,37.9803577 L34.3189677,37.3732083 L34.5212471,36.3770602 L35.2304697,36.2756093 L34.9771537,37.9803577 L34.9771537,37.9803577 Z M37.1206926,39.8204776 L37.7959945,40.4453652 C37.1378086,40.7998209 36.5468416,41.0525146 36.0066001,41.2386116 L36.2764096,40.2259699 L37.1206926,39.8204776 L37.1206926,39.8204776 Z M37.1543021,39.2466265 L37.0534736,39.6010822 L36.3610558,39.9390444 L36.4961162,39.4660219 L37.1543021,39.2466265 Z M35.3144934,44.073946 L34.5722837,44.5637733 L35.0614886,43.7366062 L35.3144934,44.073946 L35.3144934,44.073946 Z M31.2639268,45.2384528 L31.4662061,45.9476754 L30.9259646,46.1160341 L31.2639268,45.2384528 Z M29.0861559,46.5215264 L28.7659321,46.5548247 L28.6473653,45.5088848 L28.9682115,45.4749641 L29.0861559,46.5215264 L29.0861559,46.5215264 Z M28.0231,46.6394709 L27.5167792,46.6394709 L27.5500775,45.6097132 L27.9723746,45.6097132 L28.0231,46.6394709 Z M11.6001933,26.5708674 L11.8363933,25.6593654 L12.4609698,25.8784495 L12.3766349,26.2329052 L11.6001933,26.5708674 L11.6001933,26.5708674 Z M22.6894597,14.5869037 L22.2842786,15.7853312 L21.3391671,16.1397869 L20.9847114,15.1610659 L22.6894597,14.5869037 L22.6894597,14.5869037 Z M21.1704972,16.3084568 L20.9171812,16.7640522 L20.1071301,17.0005634 C20.4108604,16.1565916 20.6470604,15.5998566 20.7989256,15.3294246 L21.1704972,16.3084568 L21.1704972,16.3084568 Z M22.1831389,16.055452 L22.0312738,16.5281633 L21.187302,16.7136379 L21.3898925,16.3591822 L22.1831389,16.055452 L22.1831389,16.055452 Z M26.0989564,14.0466622 L26.0146214,15.2282849 L24.6475241,15.3633453 L24.5463844,14.1481131 L26.0989564,14.0466622 L26.0989564,14.0466622 Z M24.3266778,14.4686481 L24.4617382,15.4984057 L24.3098731,16.2241218 L23.8878872,16.2580425 L24.3266778,14.4686481 Z M24.5460732,16.1733964 L24.6811336,15.5998566 L26.0143102,15.464485 L26.0143102,16.0887503 L24.5460732,16.1733964 L24.5460732,16.1733964 Z M16.8663034,17.7094748 C17.5076846,17.1692333 18.1658705,16.6797172 18.8411724,16.2580425 L18.2502055,17.6587494 C17.6510648,17.8844522 17.0699396,18.1553527 16.5118476,18.4691117 L16.8831081,17.8784559 C16.8999128,17.8277305 16.8999128,17.7598891 16.8663034,17.7094748 L16.8663034,17.7094748 Z M17.237875,20.7981253 L17.051778,21.4563112 L16.1910014,21.7771574 L16.3767873,21.2033064 L17.237875,20.7981253 Z M16.1405872,21.1865017 L15.9379966,21.8618036 L15.1108296,22.233064 L15.5499314,20.6465713 L16.1405872,21.1865017 Z M17.5248005,19.6843439 L17.2882892,20.4947062 L16.2588428,21.0007158 L15.7017966,20.4772791 C16.4103968,20.1399393 17.0181685,19.8698185 17.5248005,19.6843439 Z M19.0098423,20.832046 L19.3979075,19.2287485 L20.022484,20.0895251 L19.8366982,20.6633761 L19.0098423,20.832046 L19.0098423,20.832046 Z M13.3049416,22.0640829 L13.9631275,21.5409574 L13.5414528,23.1781755 C13.2041131,23.3639613 12.8325414,23.6169661 12.4105555,23.9714218 C12.6128349,23.4143756 12.9333699,22.7729944 13.3049416,22.0640829 L13.3049416,22.0640829 Z M15.5499314,24.3090728 L14.8914343,23.9206964 C15.7522108,23.5665519 16.3431778,23.3300406 16.646908,23.2285897 L16.5118476,23.9206964 L15.5499314,24.3090728 Z M14.7731786,24.0728727 L15.5160107,24.5284681 L15.3977551,25.2541843 L14.5537833,25.4735796 L14.7731786,24.0728727 L14.7731786,24.0728727 Z M12.9333699,26.0306259 L12.6128349,26.1488815 L12.6971699,25.8784495 L12.9840954,25.6929749 L12.9333699,26.0306259 L12.9333699,26.0306259 Z M13.0348208,25.3724399 L12.5792254,25.6932861 L11.9885697,25.4735796 L13.1530764,24.7475522 L13.0348208,25.3724399 L13.0348208,25.3724399 Z M15.6342664,25.2034588 L15.7186013,24.4945474 L16.4611222,24.1572077 L16.3431778,25.0011795 L15.6342664,25.2034588 L15.6342664,25.2034588 Z M19.2631583,24.443822 L18.2841262,24.5620776 L18.6214659,22.8573293 L19.3979075,23.5998502 L19.2631583,24.443822 Z M25.9302865,18.114656 L25.9134817,19.009042 L24.0061428,19.1948278 L23.499822,18.3001306 L25.9302865,18.114656 L25.9302865,18.114656 Z M25.9134817,19.2287485 L25.8798722,19.9712694 L23.9218079,20.0387996 L24.073673,19.4142232 L25.9134817,19.2287485 L25.9134817,19.2287485 Z M23.3476457,18.5027212 L23.8200458,19.3130835 L23.7017902,20.0391108 L23.0436042,20.1402505 L23.3476457,18.5027212 L23.3476457,18.5027212 Z M25.8117197,21.8618036 L25.7949149,22.5367943 L23.4823949,22.6886594 L22.8410136,22.0472782 L25.8117197,21.8618036 Z M21.2209115,19.6843439 L20.1914651,19.920544 L19.5668886,19.009042 L21.4739163,18.6038609 L21.2209115,19.6843439 L21.2209115,19.6843439 Z M20.2250745,20.1567441 L21.187302,19.9541535 L21.0861623,20.4268648 L20.0903254,20.6123394 L20.2250745,20.1567441 L20.2250745,20.1567441 Z M20.596335,23.211785 L19.5668886,23.4314915 L18.7736422,22.7054642 L20.7485113,22.2834783 L20.596335,23.211785 L20.596335,23.211785 Z M20.2758,26.4190023 L20.2421905,27.009658 L19.1277867,27.1783279 L18.2162848,26.7395373 L20.2758,26.4190023 L20.2758,26.4190023 Z M20.5795303,23.4482963 L20.4951953,24.2751521 L19.5161631,24.4099013 L19.6173028,23.6673804 L20.5795303,23.4482963 L20.5795303,23.4482963 Z M23.3140362,22.8237198 L23.1453663,24.0050313 L22.4532597,24.0725615 L22.6894597,22.1988321 L23.3140362,22.8237198 Z M25.7613054,26.840677 L23.22939,26.9757373 L22.3686135,26.2329052 L25.7609942,26.0810401 L25.7609942,26.840677 L25.7613054,26.840677 Z M25.7613054,23.8870869 L23.3815664,24.0050313 L23.5166268,22.9248595 L25.7784214,22.7390737 L25.7613054,23.8870869 L25.7613054,23.8870869 Z M23.1957806,29.0346302 L23.2801155,27.1783279 L25.7276959,27.0603835 L25.7276959,29.0349414 L23.1957806,29.0349414 L23.1957806,29.0346302 L23.1957806,29.0346302 Z M22.9766964,29.0346302 L22.0483897,29.0517461 L22.1834501,26.3850816 L23.0610314,27.1444072 L22.9766964,29.0346302 L22.9766964,29.0346302 Z M20.2250745,27.2626629 L20.1407396,29.1021604 L19.0602566,29.1021604 L19.178201,27.3977232 L20.2250745,27.2626629 L20.2250745,27.2626629 Z M20.2250745,33.6602926 L20.2589952,34.250326 L18.2337119,34.0138147 L19.0776837,33.5246099 L20.2250745,33.6602926 Z M22.1831389,34.2332101 C22.0988039,33.271605 22.0480785,32.3769078 22.0480785,31.5836615 L22.9763852,31.600155 L23.0607202,33.4738844 L22.1831389,34.2332101 L22.1831389,34.2332101 Z M23.22939,33.6602926 L25.7613054,33.7947306 L25.7613054,34.5375627 L22.3689247,34.369204 L23.22939,33.6602926 Z M25.7613054,33.5585306 L23.2636219,33.4234702 L23.1957806,31.600155 L25.7108912,31.617271 L25.7613054,33.5585306 L25.7613054,33.5585306 Z M20.1407396,31.5497408 L20.2250745,33.4234702 L19.1785122,33.2877874 L19.0605678,31.5494296 L20.1407396,31.5494296 L20.1407396,31.5497408 Z M18.8243677,29.1363923 L17.8621403,29.1363923 L18.0140054,26.8745977 L18.9762328,27.3641137 L18.8243677,29.1363923 L18.8243677,29.1363923 Z M17.8618291,31.5164425 L18.8240565,31.5497408 L18.9759216,33.3220193 L18.0136942,33.8448337 L17.8618291,31.5164425 L17.8618291,31.5164425 Z M16.0055268,27.9043553 L15.9548014,29.2039224 L15.313109,29.2210384 L15.3974439,28.0394156 L16.0055268,27.9043553 L16.0055268,27.9043553 Z M16.0898618,27.0603835 L16.0223316,27.6846487 L15.2966154,27.8197091 L14.587704,27.3977232 L16.0898618,27.0603835 Z M15.1783598,28.0051838 L15.0769089,29.2549591 L14.3004673,29.2549591 L14.4019182,27.5330948 L15.1783598,28.0051838 L15.1783598,28.0051838 Z M12.0389839,28.7477047 L12.5621095,28.6297602 L12.5116952,29.3215557 L11.9882585,29.3554764 L12.0389839,28.7477047 L12.0389839,28.7477047 Z M12.6464444,27.8872393 L12.5789142,28.3764442 L11.937533,28.5283093 L11.4312122,28.1738536 L12.6464444,27.8872393 Z M14.3007785,31.4149916 L15.0772201,31.4149916 L15.178671,32.7484795 L14.3686199,33.2376844 L14.3007785,31.4149916 L14.3007785,31.4149916 Z M14.5537833,33.4066654 L15.2966154,32.9336429 L16.0055268,33.085508 L16.0898618,33.6932797 L14.5537833,33.4066654 Z M12.5789142,32.2082379 L12.0729046,32.0902935 L11.9378442,31.3135407 L12.5453047,31.3135407 L12.5789142,32.2082379 Z M12.6128349,32.461554 L12.6971699,33.0011731 L11.4648217,32.6638333 L11.9882585,32.2925729 L12.6128349,32.461554 Z M12.2583792,34.6047817 L12.4105555,35.1117249 L11.9042347,35.3304979 L11.6509187,34.3517769 L12.2583792,34.6047817 L12.2583792,34.6047817 Z M12.5285,34.7233486 L12.9840954,34.8917072 L13.0684303,35.3986505 L12.6464444,35.1117249 L12.5285,34.7233486 Z M12.0729046,35.4994789 L12.5453047,35.3304979 L13.1530764,35.685576 L13.2545273,36.259427 L12.0729046,35.4994789 L12.0729046,35.4994789 Z M14.587704,35.4319488 L15.7017966,35.7017583 L15.7861315,36.2924141 L14.8242153,36.8497716 L14.587704,35.4319488 Z M15.9379966,35.7699109 L16.3767873,35.8707394 L16.4611222,36.4280969 L16.0055268,36.2756093 L15.9379966,35.7699109 Z M15.9379966,31.4654058 L15.9887221,32.849308 L15.3641456,32.7142476 L15.3134202,31.4146804 L15.9379966,31.4654058 Z M19.0941773,36.3770602 L19.2799631,37.3732083 L18.6385819,37.9803577 L18.3177357,36.2752981 L19.0941773,36.3770602 L19.0941773,36.3770602 Z M16.5118476,36.7315159 L16.6805175,37.6262132 L15.0096899,37.0355574 L15.9379966,36.4959383 L16.5118476,36.7315159 L16.5118476,36.7315159 Z M16.1741967,39.1286821 L16.3428666,39.6683012 L15.6678759,40.3099937 L15.2119693,38.7399945 L16.1741967,39.1286821 L16.1741967,39.1286821 Z M16.4782382,39.8204776 L17.2882892,40.2259699 L17.5920195,41.2386116 C17.0349732,41.0357098 16.4275127,40.765589 15.7861315,40.4453652 L16.4782382,39.8204776 L16.4782382,39.8204776 Z M16.4443175,39.2466265 L17.1025034,39.4660219 L17.2375638,39.9390444 L16.5454571,39.6010822 L16.4443175,39.2466265 L16.4443175,39.2466265 Z M13.0009001,37.9299434 L12.6464444,37.2042273 L13.3553558,37.727664 L13.0009001,37.9299434 L13.0009001,37.9299434 Z M12.9840954,38.199753 L13.5918671,37.8624132 L13.6425925,37.8789068 L13.8451831,38.5881294 L12.2583792,39.4999426 L12.9840954,38.199753 Z M13.5918671,38.976817 L13.8787926,38.8078359 L14.0645784,39.3816869 L13.5918671,38.976817 Z M18.2673214,44.073946 L18.537131,43.7366062 C18.7061121,44.0910619 18.8747819,44.3608715 19.043763,44.5637733 L18.2673214,44.073946 L18.2673214,44.073946 Z M25.7952261,38.3015151 L25.8288356,38.959701 L22.8245201,38.7742264 L23.4827061,38.115418 L25.7952261,38.3015151 L25.7952261,38.3015151 Z M23.1453663,36.8329668 L23.3140362,37.9470594 L22.6894597,38.5884406 L22.4532597,36.7825526 L23.1453663,36.8329668 L23.1453663,36.8329668 Z M23.5163156,37.8789068 L23.3812552,36.8497716 L25.7609942,36.9341065 L25.7949149,38.0646926 L23.5163156,37.8789068 Z M20.0900142,40.2592682 L21.0519304,40.4453652 L21.1869908,41.0353986 L20.2247634,40.782705 L20.0900142,40.2592682 L20.0900142,40.2592682 Z M19.4318282,37.541567 L20.6470604,37.811999 L20.7313954,38.5370927 L18.773331,38.1493387 L19.4318282,37.541567 Z M20.4951953,36.579962 L20.596335,37.541567 L19.5161631,37.3221717 L19.3303773,36.4280969 L20.4951953,36.579962 Z M20.022484,40.8841559 L19.4318282,41.6431703 L19.0605678,40.0227569 L19.8370094,40.208854 L20.022484,40.8841559 L20.022484,40.8841559 Z M20.2082698,41.0189051 L21.2209115,41.2887146 L21.4403068,42.2677468 L19.6004981,41.8460721 L20.2082698,41.0189051 Z M20.7482001,44.0568301 L20.91687,44.4112858 L20.5624143,45.2555687 C20.4273539,44.9857592 20.258684,44.5298526 20.0560935,43.8716666 L20.7482001,44.0568301 L20.7482001,44.0568301 Z M21.1194606,44.4956207 L21.6089767,44.6985225 L21.3052464,45.6436339 L20.7482001,45.4242386 L21.1194606,44.4956207 L21.1194606,44.4956207 Z M25.9302865,42.0486627 L25.9302865,42.7068486 L23.5166268,42.5207516 L24.0061428,41.9307182 L25.9302865,42.0486627 Z M25.879561,40.8841559 L25.9131705,41.8463833 L24.0565571,41.6774022 L23.8707713,40.782705 L25.879561,40.8841559 L25.879561,40.8841559 Z M23.6513759,40.765589 L23.8200458,41.7617372 L23.3812552,42.3523929 L23.0436042,40.6980589 L23.6513759,40.765589 L23.6513759,40.765589 Z M23.887576,44.5799556 L24.2420317,44.6474858 L24.4278175,45.3567084 L24.3263667,46.2514057 L23.887576,44.5799556 Z M11.1950121,31.2799312 L11.7349424,31.3132295 L11.8363933,32.1064759 L11.3300725,32.5119682 L11.1950121,31.2799312 Z M11.3132677,28.3764442 L11.8363933,28.7308999 L11.7688631,29.3557876 L11.2118169,29.4062018 L11.3132677,28.3764442 Z M26.0143102,45.6097132 L26.0986452,46.6394709 L25.5923243,46.6394709 L25.6430498,45.6097132 L26.0143102,45.6097132 Z M24.4953477,46.5215264 L24.6475241,45.4749641 L24.9512543,45.5088848 L24.8158827,46.5548247 L24.4953477,46.5215264 Z M22.3178881,45.1880385 L22.6891485,46.1160341 L22.0477673,45.9305594 L22.3178881,45.1880385 L22.3178881,45.1880385 Z" id="Shape"></path>
            <path d="M37.509069,14.6544339 C39.9056128,16.4267124 41.8129517,18.688507 43.1629331,21.4230129 C44.5810671,24.2583474 45.2896673,27.2629741 45.2896673,30.4869961 C45.2896673,33.9132975 44.496421,37.1370083 42.8931236,40.1074031 C41.3402404,42.9598534 39.2135062,45.2726847 36.5633352,47.0449632 L41.4756119,53.9990169 C45.1888389,51.450608 48.0917035,48.1251351 50.2523584,44.0571412 C52.4634275,39.8375935 53.5772089,35.3308091 53.5772089,30.4873073 C53.5772089,25.8454624 52.5474513,21.4905431 50.4888696,17.4231717 C48.4971958,13.4566288 45.7794946,10.215802 42.3021566,7.60017414 L37.509069,14.6544339 L37.509069,14.6544339 Z M40.2600685,13.9287177 C40.2939892,13.1858856 40.5809147,12.5276997 41.120845,12.0042629 C41.7115008,11.3968024 42.369998,11.1098769 43.0785982,11.1098769 C43.838235,11.1098769 44.4967322,11.4136071 45.0540897,12.0213788 C45.5937088,12.6288394 45.864452,13.3041413 45.864452,14.0634669 C45.864452,14.8231038 45.5604105,15.5148992 44.9868707,16.1394757 C44.379099,16.7304427 43.720913,17.0005634 42.9951968,16.9834475 C42.2865966,16.9666427 41.644593,16.6461077 41.0878579,16.055452 C40.4965798,15.4308755 40.2261478,14.7219641 40.2600685,13.9287177 L40.2600685,13.9287177 Z M48.1421177,17.3042937 L47.8386986,17.3718239 L46.2686995,18.3172466 C46.4880948,18.7224277 46.7074901,18.9250183 46.9440014,18.9754325 C47.1798903,18.9922373 47.5007365,18.9586278 47.8891129,18.8235674 L47.9734478,18.9922373 L45.6948485,20.3596458 L45.6105135,20.17386 C45.9478533,19.9040504 46.1507551,19.6507344 46.2347788,19.4145344 C46.3362297,19.1783343 46.2686995,18.8574881 46.0835361,18.4694229 L44.496421,19.4313391 C44.2941416,19.5492835 44.1761972,19.7014599 44.1923795,19.8701297 C44.2094955,20.0051901 44.2938304,20.2077807 44.4456956,20.4779015 L44.2938304,20.5961571 L42.8595141,18.047437 L43.0449887,17.9459861 L43.3823284,18.3175578 L43.8721557,18.2839483 L47.129476,16.3090792 C47.3155731,16.1740188 47.399908,16.0560744 47.399908,15.8870933 C47.399908,15.7691488 47.3488714,15.5830518 47.2642252,15.3807724 L47.4160904,15.2796328 L49.6271595,19.3133947 L48.2771781,20.1405617 L48.1757272,19.9718918 C48.5469877,19.5835154 48.7495782,19.2629804 48.8174196,18.9928597 C48.8672115,18.6555199 48.749267,18.2164181 48.4455368,17.6764877 C48.3110988,17.4729636 48.2267638,17.3382144 48.1421177,17.3042937 L48.1421177,17.3042937 Z M47.6868335,24.0050313 L47.7201318,24.2412314 C47.1633967,24.4777427 46.7921363,24.7814729 46.6231552,25.1359286 C46.4208758,25.4732684 46.3533456,25.8280353 46.4376806,26.1992957 C46.4880948,26.5705562 46.63996,26.8067563 46.8593553,26.9250119 C47.0283364,27.0261516 47.2477317,27.0600723 47.467127,27.0261516 C47.6865223,26.9925421 47.8383874,26.8574817 47.9563319,26.6548911 L48.3618242,25.3721287 C48.4797687,24.8318872 48.6481273,24.4270172 48.8510291,24.1229758 C49.0533085,23.852855 49.3234292,23.6670692 49.6613914,23.5998502 C50.0491454,23.5155153 50.4204059,23.5827342 50.775484,23.7853248 C51.146122,23.9879154 51.3826333,24.3762918 51.5012001,24.9837523 C51.5687303,25.2202636 51.5852238,25.5071891 51.5687303,25.84484 L51.5516143,26.3511609 C51.5687303,26.4186911 51.6020286,26.4862213 51.6530652,26.5198308 L51.8718382,26.5705562 L51.9057589,26.7899515 L50.2520472,27.161212 L50.2181265,26.9418166 C50.5604532,26.7383363 50.8587916,26.468668 51.0957078,26.1485703 C51.3151031,25.8109193 51.3826333,25.4564636 51.2986095,25.0852032 C51.2475729,24.8153936 51.146122,24.6124919 50.9606474,24.4945474 C50.7751728,24.3426823 50.5893869,24.3090728 50.4204059,24.359487 C50.1677122,24.443822 49.9987312,24.5449617 49.8975915,24.7139427 C49.8465548,24.8153936 49.7457263,25.1866541 49.5767453,25.7941146 L49.4077642,26.4691053 C49.3447374,26.7281101 49.2482864,26.9778158 49.1208387,27.2119374 C48.8675227,27.6003138 48.5469877,27.8197091 48.1757272,27.8701234 C47.7708573,27.9544583 47.3653649,27.8872393 46.9941045,27.6507281 C46.5892345,27.414528 46.3188026,26.9421278 46.1675598,26.2329052 L46.1165232,25.7097797 C46.1000296,25.6254447 46.1165232,25.4396589 46.1675598,25.2034588 L46.1675598,24.8321984 L46.031877,24.6803332 L45.8464024,24.6467238 L45.7959882,24.4099013 L47.6868335,24.0050313 L47.6868335,24.0050313 Z M51.5015113,29.3557876 C51.9907162,29.9806752 52.2101115,30.6892754 52.1428925,31.550052 C52.0585576,32.377219 51.7205954,33.0186002 51.197781,33.5249211 C50.6404236,34.0483578 49.9657441,34.2677532 49.155693,34.200223 C48.3453307,34.0987721 47.6871447,33.7785483 47.1802015,33.2040749 C46.7249173,32.5626936 46.5388203,31.8540934 46.6063505,31.0440423 C46.6745031,30.1832658 47.0118428,29.5079639 47.6024986,29.0019543 C48.1421177,28.5289317 48.818042,28.3266524 49.5602517,28.3770666 C50.3703028,28.4610903 51.011684,28.7990525 51.5015113,29.3557876 L51.5015113,29.3557876 Z M51.4171764,35.7864045 L51.602651,35.8374411 L50.7761063,38.4533802 L50.5900093,38.38585 C50.6743443,38.0818086 50.7079538,37.8789068 50.6575395,37.7444688 C50.5900093,37.608786 50.4210282,37.4911528 50.1683346,37.4236226 L47.6871447,36.5460413 L46.7753315,36.4109809 C46.3365409,36.4280969 46.0324994,36.7150224 45.914555,37.2042273 C45.6951597,37.811999 45.7959882,38.2679056 46.167871,38.6052453 C46.3362297,38.7742264 46.6231552,38.959701 47.0454523,39.1286821 L49.3234292,39.9048125 L49.914085,39.9219285 C50.0491454,39.8715142 50.167401,39.7025331 50.2853455,39.3816869 L50.4882472,39.4660219 L49.9480057,41.1539654 L49.7457263,41.0864352 C49.7961406,40.8331192 49.7961406,40.6476446 49.7457263,40.5461937 C49.7118056,40.4282493 49.5767453,40.3439143 49.3234292,40.2592682 L46.9944157,39.4660219 C46.3362297,39.230133 45.8974391,38.9092868 45.6609278,38.5037944 C45.4250389,38.0485103 45.4082342,37.4740368 45.6105135,36.7987349 C45.8974391,35.9211536 46.3362297,35.3983393 46.9440014,35.2122422 C47.2480429,35.144712 47.6193033,35.1789439 48.0745875,35.3301867 L50.5221679,36.1573537 L51.096019,36.2416886 L51.4171764,35.7864045 L51.4171764,35.7864045 Z M45.0537785,39.1790964 L45.1888389,39.2970408 C45.0537785,39.5335521 45.0027418,39.7187155 45.0537785,39.8715142 C45.0870768,40.0065746 45.1888389,40.1413238 45.340704,40.2421523 L48.4461592,42.3523929 L49.0710468,42.2005278 L49.2733262,42.064845 L49.4251913,42.1834119 L48.5304941,43.6519601 L44.3445559,44.1243602 L46.2518948,45.4749641 C46.5052108,45.6100244 46.6906854,45.6772434 46.7921363,45.6610611 C46.9271967,45.6439451 47.0961777,45.509196 47.2984571,45.2726847 L47.4674382,45.4077451 L46.5388203,46.8591774 L46.3704616,46.7412329 C46.4712901,46.5047217 46.5388203,46.3195582 46.505522,46.2349121 C46.505522,46.1334612 46.4040711,46.0155168 46.2014805,45.8636517 L42.352882,43.2305966 L42.4879424,43.0616155 L47.8222051,42.4034296 L45.2899785,40.6140351 C45.0876992,40.4789747 44.9355228,40.4117557 44.8175784,40.4117557 C44.615299,40.4117557 44.429202,40.5636209 44.2608433,40.8334304 L44.0918622,40.715486 L45.0537785,39.1790964 L45.0537785,39.1790964 Z M42.1674074,44.5295414 C42.1169932,44.6985225 42.1502915,44.8668811 42.3024678,45.0187463 L44.9865595,47.9051173 C45.1045039,48.0401777 45.273485,48.0740984 45.4418437,48.0569825 L45.7962994,47.7865505 L45.9652804,47.9222333 L44.2608433,49.6945118 C43.5855414,50.403112 42.8598253,50.7242694 42.1506027,50.7071535 C41.4924167,50.7071535 40.9014497,50.4202279 40.3618306,49.8124562 C39.8720033,49.3061354 39.6021937,48.6983637 39.5850778,47.9897635 C39.5679619,47.1794012 39.8720033,46.453685 40.5136957,45.812615 L42.2691695,44.0061046 L42.4042299,44.124049 C42.2859742,44.2762254 42.2178217,44.4109746 42.1674074,44.5295414 L42.1674074,44.5295414 Z" id="Shape"></path>
            <path d="M41.1718817,14.2153321 C40.8168036,14.8738292 40.8678402,15.4308755 41.2562166,15.8864709 C41.6610866,16.3084568 42.1842122,16.3591822 42.8427093,16.038336 C43.1629331,15.8525502 43.5513095,15.5488199 44.0072161,15.0932245 C44.6149878,14.4518433 44.9862483,13.894797 45.087388,13.4392017 C45.2224483,12.9496856 45.1384246,12.5276997 44.8679926,12.2239694 C44.4463179,11.7680628 43.9228812,11.7341421 43.2646952,12.0721043 C42.9102395,12.2746949 42.5218631,12.5952299 42.1169932,13.000411 C41.6610866,13.4392017 41.3573563,13.8440716 41.1718817,14.2153321 Z M50.9270379,30.1487227 C50.6236188,30.0136623 50.1337915,29.9122114 49.4927215,29.8617972 L48.0073685,29.9122114 C47.2987683,30.0640766 46.9271967,30.452453 46.893276,31.0602247 C46.7924475,31.68449 47.1126713,32.1403965 47.8050891,32.4273221 C48.1424289,32.5452665 48.6322562,32.6638333 49.2736374,32.7481683 C50.1008044,32.8156985 50.7421857,32.7310523 51.1638603,32.511657 C51.602651,32.2922617 51.8391623,31.9714155 51.8724606,31.5161313 C51.9063813,30.9086708 51.6023398,30.4527642 50.9270379,30.1487227 L50.9270379,30.1487227 Z M41.4245753,45.9305594 C41.3402404,45.8291086 41.2222959,45.7444624 41.1205338,45.7282801 C41.0025894,45.7282801 40.9011385,45.812615 40.80031,45.9305594 C40.4794638,46.2514057 40.3104828,46.6391597 40.3104828,47.1286757 C40.3615194,47.618503 40.6988592,48.1752381 41.3402404,48.85054 C41.7115008,49.2389164 42.0998772,49.5429579 42.4879424,49.7452372 C43.1296348,50.0150468 43.6530716,49.9475166 44.0918622,49.4919212 C44.2269226,49.3400561 44.3112576,49.2221117 44.2941416,49.0870513 L44.0918622,48.8172417 L41.4245753,45.9305594 L41.4245753,45.9305594 Z M23.5334315,3.81848345 L23.2633107,3.22751648 L22.8920503,3.78456275 L23.5334315,3.81848345 L23.5334315,3.81848345 Z M20.6809811,4.22335339 L20.0560935,4.05437232 L20.2250745,4.69606473 L20.6809811,4.22335339 L20.6809811,4.22335339 Z M22.1152975,3.78456275 L21.7272323,3.22751648 L21.4739163,3.85209294 L22.1152975,3.78456275 L22.1152975,3.78456275 Z M20.1407396,5.57364601 L19.7523632,6.09708279 L20.3601349,6.19822248 L20.1407396,5.57364601 L20.1407396,5.57364601 Z M20.4783906,7.59955174 L21.1194606,7.5145944 L20.7313954,6.99146882 L20.4783906,7.59955174 Z M10.4185705,21.5241526 C11.7349424,18.8067626 13.6086718,16.544968 15.9716061,14.73908 L11.1445979,7.71718497 C7.71829648,10.3334353 5.03451599,13.5739508 3.07645165,17.4900795 C1.05116832,21.5577621 0.0553314046,25.8784495 0.0553314046,30.4866849 C0.0553314046,35.3301867 1.16942395,39.8372823 3.38049311,44.0565189 C5.50722732,48.1245127 8.42720788,51.4499856 12.1239412,53.9983945 L17.0860099,46.9771218 C14.4022294,45.221648 12.2926111,42.9430487 10.7394167,40.0566776 C9.11900334,37.0862828 8.30895225,33.8958703 8.30895225,30.4866849 C8.30895225,27.2965835 9.00074771,24.3090728 10.4185705,21.5241526 Z M11.026031,10.0465098 L10.8573612,10.3166305 C10.8237517,10.4009655 10.8237517,10.5021052 10.8573612,10.6371655 L11.3976027,13.5739508 L12.3934396,14.6544339 C12.5792254,14.8738292 12.7478953,14.9749689 12.8997604,14.9749689 C13.0348208,14.9749689 13.2038019,14.890634 13.4063925,14.6880434 L13.5243369,14.8738292 L11.5662726,16.7640522 L11.4312122,16.6124982 C11.6166868,16.3927917 11.7349424,16.2241218 11.7349424,16.0890615 C11.7685519,15.9371963 11.6674122,15.7853312 11.4648217,15.5827406 L10.6883801,14.6883546 L7.9034599,13.7264384 L7.38033432,13.6925177 L7.14382306,13.8443828 L7.00907387,13.6922065 L8.89929682,11.8523978 L9.05116195,11.9706534 L8.69670625,12.409444 C8.66309675,12.4601695 8.6799015,12.5276997 8.73031574,12.5952299 L8.83176663,12.6795648 L11.0257198,13.5235366 L10.772715,11.8019835 L10.6883801,11.4811373 L10.4857895,11.0591514 C10.4014546,10.941207 10.2831989,10.9072863 10.198864,10.941207 L9.79368285,11.2620532 L9.64181772,11.1101881 L10.8906595,9.87783988 L11.026031,10.0465098 L11.026031,10.0465098 Z M8.12316642,16.5110473 C8.13997117,16.8318936 8.12316642,17.1356238 8.02171554,17.3718239 L10.7391055,17.1692333 L10.9248913,17.1017031 L11.0428358,16.9666427 L11.2115057,17.0677824 L10.4011434,18.50241 L7.41363262,18.6542751 L7.32929768,18.822945 L8.66278555,19.6840327 C8.89898562,19.8190931 9.0679667,19.8863121 9.18622233,19.8355867 C9.30447797,19.8187819 9.43922715,19.7005263 9.62501297,19.4307167 L9.79368285,19.5486611 L8.44339023,21.9284002 L8.25760441,21.8272605 C8.39297599,21.5742557 8.42658548,21.3884698 8.40978074,21.2702142 C8.39266479,21.1183491 8.24111086,20.9661727 8.00459959,20.8314236 L5.03389359,18.9240847 C4.76377283,18.7722195 4.56118225,18.7214941 4.42612187,18.7722195 L4.05486142,19.1942054 L3.88619154,19.0591451 L5.18575872,16.7802345 C5.47268423,16.2742249 5.74280499,15.919458 5.99580981,15.7168674 C6.48532589,15.2780768 6.99164673,15.2105466 7.48116281,15.5142768 C7.85304566,15.7853312 8.05563623,16.1058662 8.12316642,16.5110473 L8.12316642,16.5110473 Z M3.76824711,20.832046 C3.63318673,20.9499904 3.46451685,21.2372271 3.29553577,21.6424083 L7.26207869,23.1781755 L7.85273446,23.211785 C7.98779484,23.1613708 8.08893453,22.9752737 8.22399491,22.637934 L8.41009193,22.7054642 L7.41425502,25.5411098 L7.24527394,25.4567748 C7.34641363,25.1527334 7.38064552,24.9165333 7.32960888,24.7814729 C7.26207869,24.6635285 7.09340881,24.5284681 6.8400928,24.443822 L2.85674513,22.9080547 C2.7388007,23.2961199 2.68807525,23.6166549 2.72168475,23.8531662 C2.77241019,24.3087616 3.07614045,24.6635285 3.61638198,24.9165333 L3.53204704,25.1698493 L2.01308454,24.5620776 L3.65030267,19.8022884 L5.18638112,20.3593346 L5.11885093,20.6123394 C4.5449999,20.4607855 4.08909331,20.5451205 3.76824711,20.832046 L3.76824711,20.832046 Z M1.86121941,26.0813513 L1.65862884,25.9634069 L1.67543359,25.7268956 L3.39729786,25.9462909 L3.38018191,26.1488815 C2.97500076,26.2332164 2.60374031,26.3850816 2.30001005,26.6383976 C1.9626703,26.8577929 1.79368922,27.1783279 1.75976853,27.6003138 C1.69223834,27.8365139 1.75976853,28.0727139 1.87802416,28.2756157 C2.01308454,28.4274808 2.16463847,28.5454253 2.36754024,28.5796572 C2.62054506,28.5967731 2.82313563,28.5457365 2.95819602,28.4106761 C3.07645165,28.2927317 3.31265172,27.9718855 3.63318673,27.4652534 L4.46035376,26.3007466 C4.81480947,26.0306259 5.20318586,25.912059 5.62517176,25.9459797 C5.99643221,26.0303147 6.35088791,26.24971 6.65492937,26.5873609 C6.95865963,26.9757373 7.07691526,27.5156677 7.02618982,28.2413838 C7.00938507,28.4274808 6.95865963,28.5964619 6.90824538,28.7477047 L6.72245956,29.2546479 L6.65492937,29.4058906 L6.58739918,29.5748717 L6.65492937,29.7771511 L6.72245956,29.8110718 L6.85751994,29.861486 L6.8071057,30.1141796 L4.86584611,29.861486 L4.8997668,29.6087924 C5.47361783,29.5577557 5.92921322,29.4058906 6.23325467,29.1357699 C6.53729613,28.8830762 6.70596601,28.5619188 6.7734962,28.1735424 C6.8071057,27.7854772 6.73988671,27.4985517 6.58771038,27.3127659 C6.40192455,27.144096 6.21644993,27.0258404 6.01385935,27.0087244 C5.79415283,26.9919197 5.59187346,27.0426451 5.42289238,27.211315 C5.3217527,27.2788452 5.18669232,27.4814358 4.98410174,27.8190867 L4.64676199,28.3082916 C4.37664122,28.7981189 4.08940451,29.1525746 3.78567425,29.354854 C3.49874874,29.5238351 3.19501848,29.5913652 2.85736753,29.5742493 C2.48610708,29.5067191 2.13165138,29.3044397 1.82792112,29.0003983 C1.5409956,28.6630585 1.42273997,28.190036 1.49027016,27.5993802 C1.50707491,27.29565 1.59140985,27.0255292 1.70966548,26.7557196 L1.89514011,26.3001242 C1.87802416,26.182491 1.87802416,26.1149608 1.86121941,26.0813513 L1.86121941,26.0813513 Z M6.55347848,31.1109501 C6.60420393,30.9419691 6.62100867,30.7396897 6.60420393,30.5031784 L6.8067945,30.4866849 L7.04299457,33.4399637 L6.84040399,33.4399637 C6.8067945,33.1872701 6.7728738,33.018289 6.70534361,32.9507588 C6.58739918,32.7817778 6.4184181,32.7142476 6.21582753,32.7484795 L2.3168148,33.0687033 C2.08061473,33.0858192 1.91163366,33.1701542 1.86121941,33.3727447 L1.79368922,33.862572 L1.6079034,33.8958703 L1.37139213,30.9254755 L1.59109865,30.9083596 C1.6079034,31.1616756 1.64182409,31.3300343 1.69223834,31.4650946 C1.77657327,31.600155 1.9287496,31.68449 2.21536392,31.68449 L6.11468784,31.3471502 C6.31696722,31.3303455 6.46914354,31.2460105 6.55347848,31.1109501 L6.55347848,31.1109501 Z M7.29599938,34.0984609 L7.34672483,34.3178562 L4.32560458,39.1286821 L7.29631058,38.2168689 C7.53251065,38.1493387 7.70149173,38.0818086 7.78613787,37.9803577 C7.9040823,37.8284925 7.92088705,37.5589942 7.81974736,37.2375256 L8.02233794,37.2042273 L8.59618896,38.9765058 L8.37679364,39.044036 C8.27565395,38.7571105 8.17420306,38.5881294 8.03945388,38.5370927 L7.5499378,38.5548311 L3.97146008,39.7025331 L3.63380912,40.2763842 L3.63380912,40.5461937 L3.43152975,40.6137239 L2.94170247,38.9257803 L5.3217527,35.1621392 L3.0599581,35.8374411 C2.78983734,35.9214648 2.62116746,36.0397205 2.57044202,36.1576649 C2.48610708,36.326646 2.46899113,36.5460413 2.55363727,36.8158509 L2.33393075,36.8662651 L1.86121941,35.1789439 L2.04700524,35.1279073 C2.14814492,35.3644186 2.24928461,35.4991677 2.33361955,35.5666979 C2.38465619,35.6177346 2.55332607,35.6177346 2.82313563,35.5666979 L7.29599938,34.0984609 L7.29599938,34.0984609 Z M4.05548382,41.9811325 L4.2241537,41.8625656 L4.5449999,42.2848627 L5.06812548,42.2677468 L8.39328719,40.3432919 C8.59587776,40.2082316 8.6802127,40.0905983 8.6802127,39.938422 C8.6802127,39.8027392 8.62948726,39.6004598 8.51154282,39.3639486 L8.6802127,39.2631201 L10.0137006,41.7782307 L9.82760355,41.8790592 C9.75457512,41.7345946 9.65767456,41.6035001 9.54098923,41.4913052 L9.0010589,41.5246035 L5.69270195,43.4496807 C5.47330663,43.5505092 5.38897169,43.7194903 5.38897169,43.9055873 L5.55764157,44.4112858 L5.38897169,44.4956207 L4.05548382,41.9811325 L4.05548382,41.9811325 Z M10.0301941,42.3013563 L10.1820592,42.1662959 L11.9378442,44.1744633 L11.7856679,44.2930301 C11.616998,44.124049 11.4819376,44.0403365 11.3468772,43.9889887 C11.2118169,43.9214585 11.0767565,43.9889887 10.8912819,44.1744633 L8.12316642,46.8756709 L12.7983095,45.1201972 L12.9501747,45.2891782 L10.9753056,49.9814373 L13.5579464,47.4834426 C13.7437322,47.2973456 13.8616767,47.1454805 13.8784814,46.9771218 C13.8952861,46.7910248 13.7773417,46.5716295 13.5915559,46.3354294 L13.7266163,46.217485 L14.9757692,47.6013871 L14.8239041,47.7532522 C14.6384294,47.5167409 14.4862531,47.3987965 14.3175832,47.3987965 C14.2164436,47.3987965 14.081072,47.4663267 13.8784814,47.6353078 L11.1947009,50.2512469 C11.0257198,50.4202279 10.9749944,50.5714707 11.0092263,50.6900375 L11.2622311,51.1963583 L11.1442867,51.3314187 L9.79399405,49.8295722 L11.363682,46.0824246 L7.68437578,47.4495219 L6.31696722,45.9305594 L6.46883235,45.812615 C6.65461817,45.9644801 6.82328805,46.0824246 6.94154368,46.0989181 C7.07660406,46.1160341 7.24527394,46.0313879 7.46466926,45.812615 L9.97977987,43.3479186 C10.1820592,43.1456393 10.2835101,42.9595422 10.3003149,42.8415978 C10.2835101,42.7068486 10.1991752,42.5378676 10.0301941,42.3013563 L10.0301941,42.3013563 Z" id="Shape"></path>
            <path d="M5.38866049,16.9834475 L5.23679536,17.3886286 C5.25360011,17.4729636 5.30432555,17.5572985 5.38866049,17.6251399 L7.11021356,18.688507 C7.38033432,18.2157957 7.51508351,17.86134 7.51508351,17.5915304 C7.49827876,17.3214096 7.27888344,17.0512889 6.85689754,16.7643634 C6.64951327,16.6142317 6.40356367,16.5264543 6.14798614,16.5113585 C5.79384164,16.4942426 5.55764157,16.629303 5.38866049,16.9834475 L5.38866049,16.9834475 Z" id="Path"></path>
        </g>
    </g>
</svg>