<?xml version="1.0" encoding="UTF-8"?>
<svg width="200px" height="80px" viewBox="0 0 200 80" version="1.1" xmlns="http://www.w3.org/2000/svg" xmlns:xlink="http://www.w3.org/1999/xlink">
    <!-- Generator: Sketch 63.1 (92452) - https://sketch.com -->
    <title>nsk</title>
    <desc>Created with Sketch.</desc>
    <g id="nsk" stroke="none" stroke-width="1" fill="none" fill-rule="evenodd">
        <g id="nsk-logo" transform="translate(45.000000, 19.000000)" fill-rule="nonzero">
            <path d="M94.3981134,42.3651816 L109.371336,42.3651816 C105.205558,37.4134071 98.8389905,28.4923531 94.8304112,22.0471863 C99.2319885,16.8596131 103.437067,12.0650378 105.873654,9.54985077 L91.568528,9.54985077 C89.5249385,13.3619311 86.3416549,17.7635084 83.2369709,21.5755888 C83.1583713,21.732788 83.0404719,21.8899872 82.9225725,22.0864861 C82.9618723,17.4884098 83.1190715,12.8510338 83.4727697,9.54985077 L72.3116272,9.54985077 C72.9011242,13.3226313 73.0976232,20.9074922 73.0976232,25.9771661 C73.0976232,31.7935361 72.7832248,38.8674996 72.1937278,42.4044814 L83.7871681,42.4044814 C83.5906691,40.4787913 83.5906691,38.4352019 83.4727697,35.8414152 C84.8875624,34.0729244 86.3416549,32.3044335 87.7957474,30.5359426 C89.9572363,33.9943248 92.8654213,38.9067994 94.3981134,42.3651816 M67.2812532,9.54985077 L48.3387508,9.54985077 C41.5791857,9.54985077 36.6274112,12.1043376 36.6274112,18.9425024 C36.6274112,27.1168602 45.3519662,29.1211499 52.5045293,30.3394436 C55.5699135,30.850341 59.3819939,31.8721357 61.1504848,32.3437333 C61.6220823,32.4616327 61.7006819,32.6188319 61.7006819,32.776031 C61.7006819,32.8939304 61.6220823,33.0511296 61.0718852,33.0904294 C58.2422998,33.2083288 54.4695192,33.1297292 51.7185334,33.0118298 C47.2383565,32.8546306 41.0289885,32.4616327 37.3741073,31.4398379 L37.3741073,42.3651816 L54.6660182,42.3651816 C65.0018649,42.3651816 70.8968345,40.4394915 70.8968345,32.0293349 C70.8968345,25.6234679 65.5913619,22.5580837 54.705318,20.6323936 C51.4434348,20.0428967 48.7710486,19.6105989 47.0418575,19.2569007 C46.5309601,19.1783011 46.3737609,19.0211019 46.3737609,18.8639028 C46.3737609,18.7067036 46.5309601,18.5495044 47.0418575,18.5495044 C51.8757326,18.3530054 64.4516678,18.8639028 67.2812532,19.9249973 L67.2812532,9.54985077 Z M11.0432431,24.7588724 C10.9646435,24.640973 10.8467441,24.444474 10.7288447,24.247975 C10.8074443,24.5230736 10.8860439,24.9946712 10.9253437,25.2697697 C10.9253437,30.7717414 11.1218427,37.6885057 11.6720398,42.3651816 L1.11696742e-14,42.3651816 C0.589496961,37.6099061 0.864595543,30.4966428 0.864595543,24.8767718 C0.864595543,19.2962005 0.746696151,13.5584301 0.314398379,9.54985077 L14.1872269,9.54985077 C16.8989129,14.4230256 20.4358947,20.2000959 23.5012789,24.5623734 C23.6191782,24.7195726 23.7370776,24.9160716 23.8156772,25.0732707 C23.8156772,24.8767718 23.7763774,24.7195726 23.7763774,24.5623734 C23.7763774,19.8070979 23.4619791,13.7549291 22.9510817,9.51055097 L34.5838217,9.51055097 C34.1122242,13.9907279 33.9157252,20.6323936 33.9157252,25.9378663 C33.9157252,32.3044335 34.1908237,37.9243045 35.0161195,42.3258818 L22.2043855,42.3258818 C19.7677981,37.8064051 14.6195246,29.671347 11.0432431,24.7588724" id="Shape" fill="#E20031"></path>
            <path d="M106.502451,0.471597569 L105.873654,0.471597569 L105.873654,2.35798784 L105.519956,2.35798784 L105.519956,0.471597569 L104.930459,0.471597569 L104.930459,0.15719919 L106.541751,0.15719919 L106.502451,0.471597569 Z M107.956543,1.80779068 L108.506741,0.15719919 L109.056938,0.15719919 L109.056938,2.39728764 L108.70324,2.39728764 L108.70324,0.589496961 L108.074443,2.39728764 L107.838644,2.39728764 L107.209847,0.589496961 L107.209847,2.39728764 L106.856149,2.39728764 L106.856149,0.15719919 L107.406346,0.15719919 L107.956543,1.80779068 Z M36.470212,5.97356921 C37.1776084,5.97356921 37.5313065,5.65917083 37.5313065,5.10897366 L37.5313065,0.90389534 C37.0990088,0.432297772 36.9418096,0.432297772 36.470212,0.432297772 L36.470212,0.117899392 L38.8281998,0.117899392 L42.3258818,4.28367792 L42.3258818,1.29689331 C42.3258818,0.746696151 42.0507832,0.432297772 41.1861877,0.432297772 L41.1861877,0.117899392 L43.7799743,0.117899392 L43.7799743,0.432297772 C42.9939784,0.432297772 42.7974794,0.785995948 42.7974794,1.29689331 L42.7974794,6.28796759 L41.9721836,6.28796759 L38.0422039,1.5326921 L38.0422039,5.10897366 C38.0422039,5.69847062 38.3959021,5.97356921 39.181898,5.97356921 L39.181898,6.28796759 L36.5095118,6.28796759 L36.5095118,5.97356921 L36.470212,5.97356921 Z M60.7967866,3.85138015 C60.7967866,5.54127144 59.6177927,6.36656718 58.2815996,6.36656718 C56.0022113,6.36656718 54.6267184,4.87317488 54.6267184,3.18328359 C54.6267184,1.33619311 56.0415111,1.26132132e-16 58.0851006,1.26132132e-16 C58.7138973,1.26132132e-16 59.2640945,0.235798784 59.6570925,0.432297772 C59.6963923,0.432297772 59.7356921,0.471597569 59.7749919,0.432297772 C59.8535915,0.353698177 60.0107906,0.235798784 60.12869,0.117899392 L60.4430884,0.117899392 L60.521688,2.20078866 L60.1679898,2.24008845 C59.8535915,1.37549291 59.2640945,0.353698177 58.1244004,0.353698177 C56.7882073,0.353698177 56.3559095,1.4540925 56.3559095,3.0260844 C56.3559095,3.96927954 56.4738089,4.63737609 56.8275071,5.14827346 C57.1419054,5.65917083 57.7314024,5.97356921 58.2815996,5.97356921 C59.6570925,5.97356921 60.4037886,5.03037407 60.4037886,3.85138015 L60.7967866,3.85138015 Z M9.23545239,6.28796759 L5.73777042,6.28796759 L5.73777042,5.97356921 C6.48446657,5.89496961 6.64166576,5.77707022 6.64166576,5.22687306 L6.64166576,0.550197164 L4.71597569,6.28796759 L3.92997974,6.28796759 L1.84709048,0.510897366 L1.84709048,5.10897366 C1.84709048,5.73777042 2.16148886,5.89496961 2.94748481,5.97356921 L2.94748481,6.28796759 L0.314398379,6.28796759 L0.314398379,5.97356921 C0.982494935,5.89496961 1.33619311,5.77707022 1.33619311,5.10897366 L1.33619311,1.06109453 C1.33619311,0.668096556 1.13969412,0.432297772 0.314398379,0.432297772 L0.314398379,0.117899392 L3.30118298,0.117899392 L4.83387508,4.44087711 L6.32726738,0.117899392 L9.27475219,0.117899392 L9.27475219,0.432297772 C8.41015665,0.432297772 8.29225725,0.668096556 8.29225725,1.06109453 L8.29225725,5.18757326 C8.29225725,5.77707022 8.48875624,5.89496961 9.27475219,5.93426941 L9.23545239,6.28796759 Z M69.4820418,5.97356921 C70.1894382,5.97356921 70.5431364,5.65917083 70.5431364,5.10897366 L70.5431364,0.90389534 C70.1108386,0.432297772 69.9536394,0.432297772 69.4820418,0.432297772 L69.4820418,0.117899392 L71.8400297,0.117899392 L75.3377116,4.28367792 L75.3377116,1.29689331 C75.3377116,0.746696151 75.0626131,0.432297772 74.1980175,0.432297772 L74.1980175,0.117899392 L76.7918041,0.117899392 L76.7918041,0.432297772 C76.0058082,0.432297772 75.8093092,0.785995948 75.8093092,1.29689331 L75.8093092,6.28796759 L74.9840135,6.28796759 L71.0540337,1.5326921 L71.0540337,5.10897366 C71.0540337,5.69847062 71.4077319,5.97356921 72.1937278,5.97356921 L72.1937278,6.28796759 L69.5213416,6.28796759 L69.4820418,5.97356921 Z M82.7653733,6.28796759 L82.7653733,5.97356921 C81.9007778,5.97356921 81.7435786,5.81637002 81.7435786,5.14827346 L81.7435786,0.392997974 C82.7653733,0.392997974 83.2369709,0.510897366 83.9050675,2.31868805 L84.1801661,2.27938825 L84.1015665,0.117899392 L77.7349993,0.117899392 L77.6956995,2.31868805 L77.9707981,2.35798784 C78.6388946,0.510897366 79.1104922,0.432297772 80.1322869,0.432297772 L80.1322869,5.14827346 C80.1322869,5.85566981 79.9357879,5.97356921 79.1104922,5.97356921 L79.1104922,6.28796759 L82.7653733,6.28796759 Z M22.4794841,6.28796759 L22.4794841,5.97356921 C21.6148886,5.97356921 21.4576894,5.81637002 21.4576894,5.14827346 L21.4576894,0.392997974 C22.4794841,0.392997974 22.9510817,0.510897366 23.6191782,2.31868805 L23.8942768,2.27938825 L23.854977,0.0785995948 L17.4491101,0.0785995948 L17.4098103,2.27938825 L17.6849088,2.31868805 C18.3137056,0.510897366 18.7460034,0.392997974 19.8070979,0.392997974 L19.8070979,5.10897366 C19.8070979,5.81637002 19.6105989,5.93426941 18.7853032,5.93426941 L18.7853032,6.28796759 L22.4794841,6.28796759 Z M95.6557069,6.0521688 C96.4417028,6.0521688 97.3062984,5.42337204 97.3062984,3.22258339 C97.3062984,1.02179473 96.4417028,0.392997974 95.6557069,0.392997974 C94.869711,0.392997974 94.0051154,1.02179473 94.0051154,3.22258339 C94.0051154,5.42337204 94.869711,6.0521688 95.6557069,6.0521688 M92.2759243,3.18328359 C92.2759243,1.13969412 94.1230148,-7.62046288e-16 95.6557069,-7.62046288e-16 C97.188399,-7.62046288e-16 99.0354895,1.13969412 99.0354895,3.18328359 C99.0354895,5.18757326 97.188399,6.36656718 95.6557069,6.36656718 C94.1230148,6.36656718 92.2759243,5.22687306 92.2759243,3.18328359 M32.3830331,6.0521688 C33.169029,6.0521688 34.0336246,5.42337204 34.0336246,3.22258339 C34.0336246,1.02179473 33.169029,0.392997974 32.3830331,0.392997974 C31.5970371,0.392997974 30.7324416,1.02179473 30.7324416,3.22258339 C30.7324416,5.42337204 31.5970371,6.0521688 32.3830331,6.0521688 M29.0032505,3.18328359 C29.0032505,1.13969412 30.850341,-2.09431392e-15 32.3830331,-2.09431392e-15 C33.9157252,0.0392997974 35.7628156,1.17899392 35.7628156,3.18328359 C35.7628156,5.18757326 33.9157252,6.36656718 32.3830331,6.36656718 C30.8110412,6.36656718 29.0032505,5.22687306 29.0032505,3.18328359 M65.4734625,6.0521688 C66.2594584,6.0521688 67.124054,5.42337204 67.124054,3.22258339 C67.124054,1.02179473 66.2594584,0.392997974 65.4734625,0.392997974 C64.6874665,0.392997974 63.822871,1.02179473 63.822871,3.22258339 C63.822871,5.42337204 64.6874665,6.0521688 65.4734625,6.0521688 M62.0936799,3.18328359 C62.0936799,1.13969412 63.9407704,-2.09431392e-15 65.4734625,-2.09431392e-15 C67.0061546,-2.09431392e-15 68.8532451,1.13969412 68.8532451,3.18328359 C68.8532451,5.18757326 67.0061546,6.36656718 65.4734625,6.36656718 C63.9014706,6.36656718 62.0936799,5.22687306 62.0936799,3.18328359 M13.2833315,6.0521688 C14.0693275,6.0521688 14.933923,5.42337204 14.933923,3.22258339 C14.933923,1.02179473 14.0693275,0.392997974 13.2833315,0.392997974 C12.4973356,0.392997974 11.63274,1.02179473 11.63274,3.22258339 C11.63274,5.42337204 12.4973356,6.0521688 13.2833315,6.0521688 M9.90354895,3.18328359 C9.90354895,1.13969412 11.7506394,-2.09431392e-15 13.2833315,-2.09431392e-15 C14.8160236,-2.09431392e-15 16.6631141,1.13969412 16.6631141,3.18328359 C16.6631141,5.18757326 14.8160236,6.36656718 13.2833315,6.36656718 C11.7506394,6.36656718 9.90354895,5.22687306 9.90354895,3.18328359 M28.0993551,6.28796759 L28.0993551,5.97356921 C27.352659,5.97356921 27.1954598,5.77707022 27.1954598,5.30547265 L27.1954598,1.10039433 C27.1954598,0.628796759 27.352659,0.432297772 28.0993551,0.432297772 L28.0993551,0.117899392 L24.6802728,0.117899392 L24.6802728,0.432297772 C25.4269689,0.432297772 25.5841681,0.628796759 25.5841681,1.10039433 L25.5841681,5.30547265 C25.5841681,5.77707022 25.4269689,5.97356921 24.6802728,5.97356921 L24.6802728,6.28796759 L28.0993551,6.28796759 Z M105.834354,6.28796759 L99.7821856,6.28796759 L99.7821856,5.97356921 C100.568182,5.93426941 100.80398,5.77707022 100.80398,5.30547265 L100.80398,1.13969412 C100.80398,0.628796759 100.686081,0.432297772 99.7821856,0.432297772 L99.7821856,0.117899392 L103.554966,0.117899392 L103.554966,0.432297772 C102.533171,0.432297772 102.415272,0.668096556 102.415272,1.13969412 L102.415272,5.18757326 C102.415272,5.73777042 102.690371,5.93426941 103.240568,5.93426941 C104.537461,5.93426941 105.244857,5.18757326 105.559256,4.00857934 L105.912954,4.00857934 L105.834354,6.28796759 Z M87.5599486,2.9867846 C88.9354415,2.9867846 89.3284395,2.59378663 89.3284395,1.76849088 C89.3284395,1.10039433 88.8961417,0.471597569 88.2280452,0.471597569 C87.7564476,0.471597569 87.5599486,0.668096556 87.5599486,1.06109453 L87.5599486,2.9867846 Z M88.8175421,3.30118298 C89.6428379,3.34048278 90.0751357,3.96927954 90.2716347,4.5587765 C90.5074334,5.42337204 90.6646326,5.54127144 90.9397312,5.54127144 C91.1362302,5.54127144 91.2934294,5.30547265 91.2934294,4.91247468 L91.6471276,4.91247468 C91.6471276,5.89496961 91.0969304,6.36656718 90.2323349,6.36656718 C89.2498399,6.36656718 88.8175421,5.97356921 88.7389426,4.75527549 C88.660343,3.77278055 88.463844,3.37978258 87.5206488,3.37978258 L87.5206488,5.10897366 C87.5206488,5.77707022 87.7957474,5.97356921 88.5031438,5.97356921 L88.5031438,6.28796759 L84.966162,6.28796759 L84.966162,5.97356921 C85.8307575,5.97356921 85.9093571,5.65917083 85.9093571,5.10897366 L85.9093571,1.25759352 C85.9093571,0.589496961 85.6342586,0.432297772 84.966162,0.432297772 L84.966162,0.117899392 L88.463844,0.117899392 C90.1144355,0.117899392 90.979031,0.746696151 90.979031,1.72919109 C90.979031,2.59378663 90.1144355,3.22258339 88.8175421,3.26188319 L88.8175421,3.30118298 Z M48.6531492,5.97356921 C47.7885537,5.97356921 47.1597569,5.38407225 47.1597569,4.71597569 C47.1597569,4.04787913 47.5920547,3.65488116 48.5352498,3.18328359 L50.4609399,5.14827346 C50.0286421,5.69847062 49.3605455,5.97356921 48.6531492,5.97356921 M48.888948,0.550197164 C49.4391451,0.550197164 49.7535435,0.943195138 49.7535435,1.29689331 C49.7535435,1.76849088 49.3605455,2.16148886 48.6531492,2.51518703 C48.1815516,2.08288926 47.9457528,1.76849088 47.9457528,1.29689331 C47.9457528,0.864595543 48.3780506,0.550197164 48.888948,0.550197164 M52.5045293,6.28796759 L51.207636,5.03037407 C51.4434348,4.5980763 51.5613342,4.16577853 51.600634,3.53698177 L51.011137,3.53698177 C51.011137,3.96927954 50.9325374,4.32297772 50.7753383,4.63737609 L49.0068474,2.90818501 C49.9893423,2.39728764 50.2644409,1.92569007 50.2644409,1.33619311 C50.2644409,0.589496961 49.5570445,0.0785995948 48.8496482,0.0785995948 C48.102952,0.0785995948 47.3169561,0.550197164 47.3169561,1.33619311 C47.3169561,1.88639028 47.5527549,2.20078866 48.102952,2.75098582 C46.9239581,3.34048278 46.5309601,3.96927954 46.5309601,4.75527549 C46.5309601,5.73777042 47.3955557,6.48446657 48.5745496,6.48446657 C49.4784449,6.48446657 50.3823403,6.0914686 50.8539379,5.50197164 L51.600634,6.24866779 L52.5045293,6.24866779 L52.5045293,6.28796759 Z" id="Shape" fill="#000000"></path>
        </g>
    </g>
</svg>