<?xml version="1.0" encoding="UTF-8"?>
<svg width="200px" height="80px" viewBox="0 0 200 80" version="1.1" xmlns="http://www.w3.org/2000/svg" xmlns:xlink="http://www.w3.org/1999/xlink">
    <!-- Generator: Sketch 63.1 (92452) - https://sketch.com -->
    <title>thameswater</title>
    <desc>Created with Sketch.</desc>
    <g id="thameswater" stroke="none" stroke-width="1" fill="none" fill-rule="evenodd">
        <g id="Thames-Water" transform="translate(73.000000, 13.000000)" fill-rule="nonzero">
            <path d="M0,26.9991119 C0,12.0878515 12.0887773,0 27.0012296,0 C41.9131354,0 54,12.0878515 54,26.9991119 C54,41.9091427 41.9131354,54 27.0012296,54 C12.0887773,54 0,41.9091427 0,26.9991119" id="Shape" fill="#009FDF"></path>
            <path d="M31.9405359,2.81214614 L31.9405359,2.81323793 C31.9048386,2.80682367 31.8679151,2.8 31.8326266,2.8 C31.5485472,2.8 31.3140624,3.0329602 31.3140624,3.3153238 C31.3140624,3.54268859 31.4643452,3.73402439 31.6684464,3.8033529 L31.6684464,3.80635532 C40.1885129,6.37396707 48.9817588,13.9143989 48.9817588,26.3789297 C48.9817588,30.3986191 47.8592023,35.0112857 45.8955799,38.1230172 C44.2851153,40.679984 41.3406355,43.7554135 36.4946629,43.8787855 L36.352555,43.8816515 C34.7448154,43.8816515 33.0310739,43.2832153 31.5192536,42.7567007 C29.9560674,42.2086233 28.3404253,41.6429408 26.8002652,41.6429408 C25.2609226,41.6429408 23.6475967,42.2086233 22.0816855,42.7567007 C20.5694565,43.2832153 18.8536713,43.8816515 17.2520628,43.8816515 L17.1079113,43.8787855 C12.2597587,43.7554135 9.3195026,40.679984 7.70535922,38.1230172 C5.7413281,35.0112857 4.61849907,30.3986191 4.61849907,26.3789297 C4.61849907,13.9143989 13.4148788,6.37396707 21.934264,3.80635532 L21.9352177,3.8033529 C22.1352314,3.73402439 22.2872855,3.54268859 22.2872855,3.3153238 C22.2872855,3.0329602 22.052937,2.8 21.7694026,2.8 C21.731389,2.8 21.694193,2.80682367 21.6625832,2.81323793 L21.6625832,2.81214614 C10.3532247,5.27753926 2.25389552,15.5432097 2.40199832,27.2191969 C2.50091519,34.9423666 5.14128696,39.5505296 7.33993907,42.0535894 C9.9873958,45.0715636 13.5212893,46.8 17.0386967,46.8 L17.0837952,46.8 C19.3618805,46.7883998 21.3024768,46.1997897 23.0170358,45.6811905 C24.4244892,45.2571675 25.6386052,44.8888256 26.8002652,44.8888256 C27.9630152,44.8888256 29.1772674,45.2571675 30.5855384,45.6811905 C32.2983261,46.1997897 34.2387861,46.7883998 36.5156452,46.8 L36.55979,46.8 C40.0765161,46.8 43.6139521,45.0715636 46.2626351,42.0535894 C48.4593797,39.5505296 51.1009777,34.9423666 51.1979871,27.2191969 C51.3466349,15.5432097 43.2471695,5.27753926 31.9405359,2.81214614" id="Shape" fill="#FFFFFF"></path>
            <path d="M17.2548245,41.6 C19.2845135,41.6 21.0097081,41.0134117 21.8532489,40.6598893 C23.8367652,39.8378948 25.5806748,39.4416964 27.1984973,39.4416964 C28.8134511,39.4416964 30.5641911,39.8378948 32.5445654,40.6598893 C33.3896089,41.0134117 35.1142571,41.6 37.1417604,41.6 C40.4090979,41.6 43.085069,40.1283668 45.1094304,37.2257115 C45.1624334,37.1425621 45.2,37.0340825 45.2,36.9268419 C45.2,36.6355439 44.9655844,36.4 44.6761168,36.4 C44.5552206,36.4 44.4464824,36.4375824 44.3572788,36.5043497 C42.3913847,37.9707516 40.3746733,38.9510603 38.2436228,38.9510603 C36.7532535,38.9510603 35.2045535,38.6152966 33.5058604,37.9257353 C31.1759118,36.9827337 29.1693092,36.5428957 27.1984973,36.5428957 C25.2248167,36.5428957 23.2209462,36.9827337 20.8920905,37.9257353 C19.194217,38.6152966 17.6438778,38.9510603 16.1562406,38.9510603 C14.0247803,38.9510603 12.012167,37.9707516 10.0397159,36.5043497 C9.95146851,36.4375824 9.84068121,36.4 9.72320022,36.4 C9.43291289,36.4 9.2,36.6355439 9.2,36.9268419 C9.2,37.0340825 9.23702017,37.1425621 9.2919357,37.2257115 C11.3150676,40.1283668 13.989536,41.6 17.2548245,41.6" id="Shape" fill="#FFFFFF"></path>
            <path d="M36.7073182,48.3498765 C36.6812944,48.3498765 36.6593581,48.3498765 36.6357867,48.3509447 C36.2800367,48.4063556 35.9331429,48.4349289 35.6214018,48.4374658 L35.3420883,48.4417384 C33.3044622,48.4417384 32.4588917,48.4532212 31.1857671,48.0798985 L30.3531403,47.8395621 C29.3529255,47.5548969 28.1126372,47.2 26.80109,47.2 C25.4884528,47.2 24.2474833,47.5548969 23.250811,47.8395621 L22.4184567,48.0798985 C21.1389283,48.4532212 20.296219,48.4417384 18.2599555,48.4417384 L17.9825495,48.4374658 C17.6672658,48.4349289 17.3206446,48.4063556 16.9627145,48.3509447 C16.941187,48.3498765 16.9167981,48.3498765 16.8975868,48.3498765 C16.6249496,48.3498765 16.4,48.5510915 16.4,48.8066493 C16.4,48.9911743 16.5100904,49.1452567 16.6778148,49.2148207 C19.6702843,50.4230456 23.4926556,51.1983978 26.80109,51.2 C30.1065269,51.1983978 33.9264457,50.4230456 36.922594,49.2148207 C37.0899096,49.1452567 37.2,48.9911743 37.2,48.8066493 C37.2,48.5510915 36.979138,48.3498765 36.7073182,48.3498765" id="Shape" fill="#FFFFFF"></path>
            <path d="M13.279989,16.8 L8.717255,16.8 C8.32369491,16.8 8,17.125773 8,17.5212754 C8,17.9195502 8.32369491,18.2465709 8.717255,18.2465709 L10.2194254,18.2465709 L10.2194254,23.2141245 C10.2194254,23.6531557 10.5631014,24 10.9991043,24 C11.4359339,24 11.7801612,23.6531557 11.7801612,23.2141245 L11.7801612,18.2465709 L13.279989,18.2465709 C13.6743759,18.2465709 14,17.9195502 14,17.5212754 C14,17.125773 13.6743759,16.8 13.279989,16.8" id="Shape" fill="#FFFFFF"></path>
            <path d="M15.1411716,16.4 C14.7313004,16.4 14.4,16.7435813 14.4,17.1649752 L14.4,22.8346138 C14.4,23.2572407 14.7313004,23.6 15.1411716,23.6 C15.5534358,23.6 15.8835397,23.2572407 15.8835397,22.8346138 L15.8835397,20.524756 C15.8835397,19.8001941 16.2451516,19.4268851 16.8145575,19.4268851 C17.3809057,19.4268851 17.7114084,19.8001941 17.7114084,20.524756 L17.7114084,22.8346138 C17.7114084,23.2572407 18.0477607,23.6 18.4589614,23.6 C18.8661737,23.6 19.2,23.2572407 19.2,22.8346138 L19.2,20.0432216 C19.2,18.8017809 18.5476361,18.0369427 17.4223847,18.0369427 C16.6699128,18.0369427 16.2290652,18.4476511 15.8835397,18.9023346 L15.8835397,17.1649752 C15.8835397,16.7435813 15.5534358,16.4 15.1411716,16.4" id="Shape" fill="#FFFFFF"></path>
            <path d="M27.5814116,23.6 C28.011823,23.6 28.364777,23.2549475 28.364777,22.8294932 L28.364777,20.5044575 C28.364777,19.7746343 28.7254071,19.3988278 29.3076627,19.3988278 C29.8936864,19.3988278 30.2220775,19.7746343 30.2220775,20.5044575 L30.2220775,22.8294932 C30.2220775,23.2549475 30.5730777,23.6 31.006699,23.6 C31.43404,23.6 31.7837841,23.2549475 31.7837841,22.8294932 L31.7837841,20.5044575 C31.7837841,19.7746343 32.1413438,19.3988278 32.7277863,19.3988278 C33.3131122,19.3988278 33.6401077,19.7746343 33.6401077,20.5044575 L33.6401077,22.8294932 C33.6401077,23.2549475 33.9901309,23.6 34.420961,23.6 C34.8531867,23.6 35.2,23.2549475 35.2,22.8294932 L35.2,19.9979116 C35.2,18.6898291 34.502326,18 33.343816,18 C32.5933874,18 32.0186682,18.3046446 31.539689,18.8607004 C31.2506546,18.3140226 30.7041271,18 29.9851,18 C29.1968499,18 28.7254071,18.4131803 28.364777,18.8709058 L28.364777,18.8117421 C28.364777,18.3842191 28.011823,18.0404078 27.5814116,18.0404078 C27.1537915,18.0404078 26.8,18.3842191 26.8,18.8117421 L26.8,22.8294932 C26.8,23.2549475 27.1537915,23.6 27.5814116,23.6" id="Shape" fill="#FFFFFF"></path>
            <path d="M12.4,25.9721917 C12.4,26.0625574 12.4297821,26.1742898 12.4623091,26.2626141 L14.4373992,31.7705699 C14.5810945,32.1633343 14.873426,32.4 15.2468691,32.4 L15.4090925,32.4 C15.7834963,32.4 16.0675931,32.1700028 16.2045634,31.7705699 L17.6006176,27.7573235 L18.991731,31.7705699 C19.1358381,32.1700028 19.4158175,32.4 19.7910448,32.4 L19.9534054,32.4 C20.328221,32.4 20.6194545,32.1633343 20.7612283,31.7705699 L22.7378281,26.2626141 C22.7711786,26.1742898 22.8,26.0515339 22.8,25.9629373 C22.8,25.5432265 22.4567507,25.2223193 22.0323898,25.2223193 C21.6505747,25.2223193 21.3877509,25.4728665 21.285229,25.7729515 L19.8827243,30.0694074 L18.4684165,25.813099 C18.3468176,25.442926 18.0752102,25.2 17.68269,25.2 L17.5606794,25.2 C17.1661005,25.2 16.8914737,25.4521803 16.7726197,25.813099 L15.3606451,30.0694074 L13.9547092,25.7729515 C13.8538343,25.4521803 13.5605421,25.2223193 13.1972551,25.2223193 C12.7645222,25.2223193 12.4,25.5432265 12.4,25.9721917" id="Shape" fill="#FFFFFF"></path>
            <path d="M30.3394533,25.2 C29.9221479,25.2 29.5873612,25.5362933 29.5873612,25.9504819 L29.5873612,26.611787 L29.4438619,26.611787 C29.0909023,26.611787 28.8,26.862261 28.8,27.2177595 C28.8,27.5721836 29.0909023,27.8319245 29.4438619,27.8319245 L29.5873612,27.8319245 L29.5873612,30.4085164 C29.5873612,31.6325486 30.2123771,32 31.1340837,32 C31.4579666,32 31.7170998,31.9625296 31.9940022,31.8514615 C32.2365778,31.7546295 32.4022884,31.5314189 32.3916539,31.2636198 C32.3773847,30.8957655 32.1528475,30.692566 31.7617919,30.7446753 C31.6958307,30.7538079 31.584639,30.7621346 31.5360431,30.7621346 C31.2001795,30.7621346 31.0490072,30.5951967 31.0490072,30.2485622 L31.0490072,27.8319245 L31.7574842,27.8319245 C32.1131361,27.8319245 32.4,27.5721836 32.4,27.2177595 C32.4,26.862261 32.1131361,26.611787 31.7574842,26.611787 L31.0490072,26.611787 L31.0490072,25.9504819 C31.0490072,25.5362933 30.755278,25.2 30.3394533,25.2" id="Shape" fill="#FFFFFF"></path>
            <path d="M39.8736148,27.8227645 L39.8736148,27.574607 C39.8736148,27.1468928 39.5451187,26.8 39.1358839,26.8 C38.7291557,26.8 38.4,27.1468928 38.4,27.574607 L38.4,31.6230323 C38.4,32.0510242 38.7291557,32.4 39.1358839,32.4 C39.5451187,32.4 39.8736148,32.0510242 39.8736148,31.6230323 L39.8736148,30.1706095 C39.8736148,29.0707732 40.2934037,28.4672519 41.0372032,28.280613 C41.3386544,28.2111789 41.6,27.9605217 41.6,27.5541933 C41.6,27.1134256 41.3290237,26.8 40.8741425,26.8 C40.4369393,26.8 40.0538259,27.2946486 39.8736148,27.8227645" id="Shape" fill="#FFFFFF"></path>
            <path d="M25.3936741,28.110256 C26.0713837,28.110256 26.8439811,28.5976031 26.8439811,29.5784233 C26.8439811,30.3976566 26.3557659,31.0751781 25.3936741,31.0751781 C24.5041188,31.0751781 23.9575652,30.3270049 23.9575652,29.5855021 C23.9575652,28.6961616 24.5624572,28.110256 25.3936741,28.110256 M25.1747997,32.4 C25.7258516,32.4 26.4548709,32.1330481 26.8223326,31.6236478 C26.8659107,32.1180738 27.2267654,32.3584802 27.5998501,32.3584802 C28.0575606,32.3584802 28.4,32.0178817 28.4,31.5980553 L28.4,27.6162384 C28.4,27.1942339 28.1177264,26.8402946 27.5933836,26.8402946 C27.2534745,26.8402946 26.8803899,27.0542918 26.8223326,27.5529377 C26.5049154,27.1080633 25.8644581,26.8 25.1211002,26.8 C23.3900661,26.8 22.4,28.1741012 22.4,29.6049688 C22.4,31.1233683 23.4658357,32.4 25.1747997,32.4" id="Shape" fill="#FFFFFF"></path>
            <path d="M22.9934637,19.310256 C23.6715474,19.310256 24.4438093,19.7971947 24.4438093,20.7788317 C24.4438093,21.5972482 23.9554879,22.2749058 22.9934637,22.2749058 C22.1041115,22.2749058 21.5574558,21.5270049 21.5574558,20.7855021 C21.5574558,19.8962977 22.1625864,19.310256 22.9934637,19.310256 M22.7747452,23.6 C23.3256179,23.6 24.0547265,23.332912 24.4221624,22.8235117 C24.4657374,23.3178015 24.8267073,23.5584802 25.1994846,23.5584802 C25.6573035,23.5584802 26,23.2178817 26,22.797783 L26,18.8159662 C26,18.3940978 25.7176057,18.0402946 25.1930186,18.0402946 C24.8531334,18.0402946 24.4803561,18.2540195 24.4221624,18.7525294 C24.1046269,18.3080633 23.4642146,18 22.720909,18 C20.9902776,18 20,19.3738289 20,20.8046965 C20,22.3232321 21.0657608,23.6 22.7747452,23.6" id="Shape" fill="#FFFFFF"></path>
            <path d="M33.8943348,29.1079061 C34.0386043,28.3762842 34.5163114,28.0214632 35.038378,28.0214632 C35.5839053,28.0214632 36.034781,28.378605 36.1500617,29.1079061 L33.8943348,29.1079061 Z M37.5974753,29.2388308 C37.5343743,28.1133426 36.7166227,26.8 35.0174792,26.8 C33.6331667,26.8 32.4,27.9153856 32.4,29.5928326 C32.4,31.1928716 33.489841,32.4 35.1711868,32.4 C35.94768,32.4 36.5626454,32.155762 37.0206672,31.7557522 C37.294105,31.5169751 37.3469588,31.1599698 37.1617007,30.8942978 C36.9947796,30.6556571 36.6192745,30.5650065 36.2759941,30.8142958 C35.9542868,31.0478851 35.6502423,31.1794924 35.1957261,31.1794924 C34.618109,31.1794924 34.085121,30.8730003 33.9101101,30.1416514 L36.7620608,30.1416514 C37.3632734,30.1416514 37.6291606,29.8071723 37.5974753,29.2388308 L37.5974753,29.2388308 Z" id="Shape" fill="#FFFFFF"></path>
            <path d="M37.0943178,20.3079061 C37.2385856,19.5761476 37.7166918,19.2211902 38.2380784,19.2211902 C38.7835995,19.2211902 39.2347397,19.5788781 39.3500191,20.3079061 L37.0943178,20.3079061 Z M40.7974162,20.4388308 C40.7344507,19.3133426 39.9164388,18 38.2174494,18 C36.8331527,18 35.6,19.1151125 35.6,20.7928326 C35.6,22.3930081 36.6898287,23.6 38.371425,23.6 C39.1475049,23.6 39.7625981,23.3553524 40.2206147,22.9557522 C40.4940493,22.7165655 40.5469026,22.3596967 40.3616466,22.0944343 C40.1947274,21.8555206 39.8189569,21.7648699 39.4759501,22.0140228 C39.1542464,22.2476121 38.8502053,22.3794924 38.3956943,22.3794924 C37.8176793,22.3794924 37.2851019,22.0730003 37.1103626,21.3415149 L39.9620113,21.3415149 C40.5633518,21.3415149 40.8295057,21.0074453 40.7974162,20.4388308 L40.7974162,20.4388308 Z" id="Shape" fill="#FFFFFF"></path>
            <path d="M43.7442094,19.1837533 C44.0395477,19.1907667 44.5002589,19.2941801 44.9537497,19.5318108 C45.1943803,19.6580522 45.5749738,19.6592898 45.7565923,19.3513875 C45.9437649,19.0341339 45.8540665,18.6823633 45.5623383,18.4741614 C45.1668876,18.1921124 44.5760721,18 43.7082467,18 C42.4602444,18 41.6415726,18.7700997 41.6415726,19.7078336 C41.6415726,20.5598939 42.1024226,20.9879868 42.7612757,21.2245175 C42.9869103,21.305653 43.857235,21.4842886 44.0381592,21.5287068 C44.3493267,21.6047542 44.6264754,21.7121556 44.6143953,21.9851284 C44.6012043,22.2858799 44.2338018,22.4317863 43.7514297,22.410471 C43.3098802,22.391081 42.8804107,22.2392613 42.5130082,22.0574628 C42.2609917,21.9325966 41.8504061,21.9576249 41.6742029,22.2961937 C41.5018875,22.626924 41.6533751,22.9675556 41.88623,23.1093365 C42.3148663,23.3697952 43.0398129,23.6 43.7646207,23.6 C45.1949357,23.6 46,22.8883454 46,21.8614999 C46,21.0843868 45.6235721,20.6098129 44.7486652,20.3356024 C44.3744589,20.2178871 43.7013041,20.0539659 43.4781689,19.9821816 C43.2494795,19.9092972 43.0302321,19.81496 43.0337034,19.5760915 C43.0373136,19.3584009 43.2475356,19.1715142 43.7442094,19.1837533" id="Shape" fill="#FFFFFF"></path>
        </g>
    </g>
</svg>