<?xml version="1.0" encoding="UTF-8"?>
<svg width="200px" height="80px" viewBox="0 0 200 80" version="1.1" xmlns="http://www.w3.org/2000/svg" xmlns:xlink="http://www.w3.org/1999/xlink">
    <!-- Generator: Sketch 63.1 (92452) - https://sketch.com -->
    <title>wienerberger</title>
    <desc>Created with Sketch.</desc>
    <g id="wienerberger" stroke="none" stroke-width="1" fill="none" fill-rule="evenodd">
        <g transform="translate(30.000000, 15.000000)" fill-rule="nonzero" id="Shape">
            <path d="M3.11956564,49.0531207 L0.481661744,38.1105115 L3.90527672,38.1105115 L5.0946422,45.1766979 L6.47615313,38.1105115 L9.38738022,38.1105115 L10.7115454,45.1766979 L11.8629287,38.1105115 L15.1979184,38.1105115 L12.5987415,49.0531207 L9.11405703,49.0531207 L7.86660106,42.4926195 L6.66234059,49.0531207 L3.11956564,49.0531207 Z M16.928717,49.0531207 L16.928717,38.1105115 L20.5094742,38.1105115 L20.5094742,49.0531207 L16.928717,49.0531207 Z M23.1533361,49.0531207 L23.1533361,38.1105115 L31.9048913,38.1105115 L31.9048913,40.7327756 L26.6678105,40.7327756 L26.6678105,42.1887616 L31.0953483,42.1887616 L31.0953483,44.6993132 L26.6678105,44.6993132 L26.6678105,46.3921296 L32.1201241,46.3921296 L32.1201241,49.052376 L23.1533361,49.052376 L23.1533361,49.0531207 Z M34.2590456,49.0531207 L34.2590456,38.1105115 L37.5962696,38.1105115 L40.6646389,43.1986423 C40.7480508,43.3326973 40.8471026,43.536014 40.9610493,43.8093372 C41.060101,44.0551046 41.1740477,44.3723681 41.3036342,44.7603827 L41.250757,44.3999238 C41.2391102,44.3073021 41.2338845,44.2139856 41.2351172,44.1206426 L41.21203,43.2738621 L41.21203,38.1097667 L44.5648937,38.1097667 L44.5648937,49.052376 L41.21203,49.052376 L38.1436607,44.0022274 C38.0259458,43.7983642 37.9219469,43.5868832 37.8323553,43.36919 L37.5001968,42.4337842 L37.5739271,43.0429896 C37.5739271,43.2046003 37.5761613,43.3587635 37.5813746,43.5054793 L37.5970143,43.9270077 L37.5970143,49.0516312 L34.2590456,49.0516312 L34.2590456,49.0531207 L34.2590456,49.0531207 Z M47.1461966,49.0531207 L47.1461966,38.1105115 L55.8977519,38.1105115 L55.8977519,40.7327756 L50.6606711,40.7327756 L50.6606711,42.1887616 L55.0882088,42.1887616 L55.0882088,44.6993132 L50.6606711,44.6993132 L50.6606711,46.3921296 L56.1129846,46.3921296 L56.1129846,49.052376 L47.1461966,49.052376 L47.1461966,49.0531207 L47.1461966,49.0531207 Z M61.7209508,42.8128619 L63.319184,42.8128619 C63.8747673,42.8128619 64.259803,42.7354079 64.4757804,42.5872027 C64.6910131,42.434529 64.7975124,42.1708876 64.7975124,41.7962784 C64.7975124,41.410498 64.6910131,41.1416433 64.4780147,40.9889696 C64.2650162,40.8392749 63.8494458,40.7633104 63.2305587,40.7633104 L61.7216956,40.7633104 L61.7216956,42.8128619 L61.7209508,42.8128619 Z M58.2519061,49.0531207 L58.2519061,38.1105115 L63.4912212,38.1105115 C65.1192443,38.1105115 66.2885015,38.3577684 66.9930349,38.8493033 C67.698313,39.3438172 68.0505796,40.148147 68.0505796,41.2608033 C68.0505796,41.9295886 67.9090772,42.4829377 67.6245827,42.9230849 C67.340833,43.3654663 66.8939831,43.7140092 66.289991,43.9716926 C66.8939831,44.0953211 67.337854,44.3515151 67.6216037,44.7365507 C67.7631062,44.9301857 67.8748187,45.1625476 67.9507832,45.4388498 C68.0274924,45.712173 68.0647299,46.0353944 68.0647299,46.4003218 L68.1257994,47.9248247 L68.1332469,47.959828 C68.1332469,48.3858249 68.2367671,48.6144631 68.4445523,48.6449978 L68.4445523,49.052376 L64.8995431,49.052376 L64.7520826,48.3701851 C64.7253809,48.2178623 64.7099476,48.0637778 64.7059081,47.909185 L64.7059081,46.816637 C64.7059081,46.2580746 64.5941957,45.8596335 64.3707707,45.6295058 C64.1480905,45.3956543 63.7623101,45.2787286 63.21194,45.2787286 L61.7179718,45.2787286 L61.7179718,49.0516312 L58.2519061,49.0516312 L58.2519061,49.0531207 L58.2519061,49.0531207 Z M73.7724926,46.4971393 L75.4020052,46.4971393 C75.9359908,46.4971393 76.3173028,46.4189406 76.5481752,46.2588194 C76.7783029,46.1016772 76.8929944,45.8410147 76.8929944,45.4805558 C76.8929944,45.1230759 76.7753239,44.8668819 76.5392382,44.7097397 C76.3038973,44.5555765 75.9166273,44.4773778 75.3714705,44.4773778 L73.7732373,44.4773778 L73.7732373,46.4971393 L73.7724926,46.4971393 L73.7724926,46.4971393 Z M73.7724926,42.4784692 L75.221031,42.4784692 C75.7125659,42.4784692 76.0544061,42.4069733 76.25102,42.2632365 C76.4461445,42.1209893 76.5451962,41.8759666 76.5451962,41.5341265 C76.5451962,41.1788808 76.438697,40.9331133 76.2279328,40.7968241 C76.0171686,40.6612796 75.5256337,40.5935074 74.7473701,40.5935074 L73.7724926,40.5935074 L73.7724926,42.4784692 L73.7724926,42.4784692 Z M70.3622831,49.0531207 L70.3622831,38.1105115 L74.8508903,38.1105115 C75.8294916,38.1105115 76.5384935,38.1335987 76.9719379,38.1820075 C77.3562372,38.2173772 77.734561,38.3009487 78.0979996,38.4307539 C78.653583,38.6385391 79.0766009,38.96325 79.3707771,39.4056314 C79.6671875,39.8435443 79.814648,40.3790195 79.814648,41.0083331 C79.814648,41.49391 79.7059145,41.9206516 79.4877028,42.288558 C79.2694911,42.6579539 78.9380774,42.9662804 78.4912275,43.2135373 C79.0669191,43.4213225 79.4966398,43.7341175 79.7774105,44.1504326 C79.9174234,44.3582178 80.0201989,44.5943035 80.0887159,44.8601792 C80.1602119,45.1238206 80.1937256,45.4276786 80.1937256,45.7710082 C80.1937256,46.4196853 80.0596707,46.9827162 79.790816,47.4623351 C79.517363,47.9400048 79.1062445,48.3241306 78.6111322,48.5645649 C78.2387292,48.7520715 77.8391144,48.8797471 77.42698,48.9428978 C76.9771511,49.0158833 76.2398488,49.0531207 75.2076255,49.0531207 L70.3622831,49.0531207 L70.3622831,49.0531207 Z M82.3966956,49.0531207 L82.3966956,38.1105115 L91.1475061,38.1105115 L91.1475061,40.7327756 L85.9111701,40.7327756 L85.9111701,42.1887616 L90.3387078,42.1887616 L90.3387078,44.6993132 L85.9111701,44.6993132 L85.9111701,46.3921296 L91.3627388,46.3921296 L91.3627388,49.052376 L82.3966956,49.052376 L82.3966956,49.0531207 L82.3966956,49.0531207 Z M96.9721946,42.8128619 L98.5696829,42.8128619 C99.1252663,42.8128619 99.5110467,42.7354079 99.7262794,42.5872027 C99.9415121,42.434529 100.049501,42.1708876 100.049501,41.7962784 C100.049501,41.410498 99.9415121,41.1416433 99.7292584,40.9889696 C99.5170047,40.8392749 99.1006896,40.7633104 98.4810577,40.7633104 L96.9729393,40.7633104 L96.9729393,42.8128619 L96.9721946,42.8128619 Z M93.5024051,49.0531207 L93.5024051,38.1105115 L98.7417202,38.1105115 C100.369743,38.1105115 101.539001,38.3577684 102.242789,38.8493033 C102.948067,39.3438172 103.300334,40.148147 103.300334,41.2608033 C103.300334,41.9295886 103.159576,42.4829377 102.875826,42.9230849 C102.590587,43.3654663 102.145972,43.7140092 101.54198,43.9716926 C102.145972,44.0953211 102.589098,44.3515151 102.872847,44.7365507 C103.013605,44.9301857 103.126062,45.1625476 103.201282,45.4388498 C103.278736,45.712173 103.315974,46.0353944 103.315974,46.4003218 L103.377043,47.9248247 L103.384491,47.959828 C103.384491,48.3858249 103.488011,48.6144631 103.697286,48.6449978 L103.697286,49.052376 L100.150787,49.052376 L100.004071,48.3701851 C99.9775463,48.2178536 99.9623613,48.0637639 99.9586414,47.909185 L99.9586414,46.816637 C99.9586414,46.2580746 99.8469289,45.8596335 99.6227592,45.6295058 C99.400079,45.3956543 99.0150433,45.2787286 98.4646732,45.2787286 L96.9707051,45.2787286 L96.9707051,49.0516312 L93.5024051,49.0516312 L93.5024051,49.0531207 L93.5024051,49.0531207 Z M113.753642,49.0531207 L113.583095,48.1102675 C113.184681,48.5306388 112.692738,48.8511163 112.147217,49.0456732 C111.584186,49.2534584 110.93253,49.3584682 110.195228,49.3584682 C108.635722,49.3584682 107.402416,48.843846 106.497545,47.816836 C105.594163,46.7883365 105.14359,45.3815041 105.14359,43.5911255 C105.14359,41.7657436 105.645551,40.34774 106.650219,39.3378592 C107.65712,38.3309574 109.066187,37.8267618 110.877419,37.8267618 C112.304359,37.8267618 113.453508,38.1820075 114.329334,38.8902646 C115.20367,39.5970321 115.724251,40.5964864 115.885861,41.8849036 L112.550127,41.8849036 C112.416072,41.4589067 112.19786,41.1282378 111.896981,40.8958758 C111.594613,40.6620244 111.225217,40.5450987 110.788793,40.5450987 C110.090218,40.5450987 109.566659,40.8169324 109.213648,41.359855 C108.861381,41.9027776 108.68562,42.7071074 108.68562,43.7713549 C108.68562,44.7603827 108.861381,45.500664 109.213648,45.9921989 C109.567404,46.4822443 110.100645,46.7280118 110.819328,46.7280118 C111.324269,46.7280118 111.757713,46.6088518 112.119661,46.3705319 C112.48012,46.1351909 112.705779,45.81048 112.794405,45.3986333 L111.211811,45.3986333 L111.211811,43.0578846 L116.020661,43.0578846 L116.020661,49.052376 L113.753642,49.052376 L113.753642,49.0531207 L113.753642,49.0531207 Z M118.514083,49.0531207 L118.514083,38.1105115 L127.266383,38.1105115 L127.266383,40.7327756 L122.028558,40.7327756 L122.028558,42.1887616 L126.456096,42.1887616 L126.456096,44.6993132 L122.028558,44.6993132 L122.028558,46.3921296 L127.481616,46.3921296 L127.481616,49.052376 L118.514083,49.052376 L118.514083,49.0531207 Z M133.089582,42.8128619 L134.687071,42.8128619 C135.242654,42.8128619 135.628435,42.7354079 135.845157,42.5872027 C136.060389,42.434529 136.166889,42.1708876 136.166889,41.7962784 C136.166889,41.410498 136.060389,41.1416433 135.846646,40.9889696 C135.634393,40.8392749 135.218077,40.7633104 134.599935,40.7633104 L133.090327,40.7633104 L133.090327,42.8128619 L133.089582,42.8128619 Z M129.619793,49.0531207 L129.619793,38.1105115 L134.859108,38.1105115 C136.487131,38.1105115 137.656388,38.3577684 138.361666,38.8493033 C139.065455,39.3438172 139.419211,40.148147 139.419211,41.2608033 C139.419211,41.9295886 139.276964,42.4829377 138.993214,42.9230849 C138.709465,43.3654663 138.263359,43.7140092 137.659367,43.9716926 C138.263359,44.0953211 138.706486,44.3515151 138.990235,44.7365507 C139.132482,44.9301857 139.24345,45.1625476 139.320159,45.4388498 C139.396124,45.712173 139.433361,46.0353944 139.433361,46.4003218 L139.494431,47.9248247 L139.501878,47.959828 C139.501878,48.3858249 139.606888,48.6144631 139.814673,48.6449978 L139.814673,49.052376 L136.268175,49.052376 L136.121459,48.3701851 C136.094934,48.2178536 136.079749,48.0637639 136.076029,47.909185 L136.076029,46.816637 C136.076029,46.2580746 135.964317,45.8596335 135.741636,45.6295058 C135.517467,45.3956543 135.132431,45.2787286 134.582061,45.2787286 L133.088093,45.2787286 L133.088093,49.0516312 L129.619793,49.0516312 L129.619793,49.0531207 L129.619793,49.0531207 Z" fill="#000000"></path>
            <path d="M97.0027293,23.8023777 L97.0027293,30.4805495 L95.7895318,29.3023552 L95.7895318,22.6249283 L97.0027293,23.8023777 L97.0027293,23.8023777 Z M92.4716713,19.4061195 L92.4716713,26.0842912 L91.2584739,24.9068417 L91.2584739,18.22867 L92.4716713,19.4061195 Z M94.7364556,21.604621 L94.7364556,28.2827927 L93.5232581,27.1045985 L93.5232581,20.4264268 L94.7364556,21.604621 Z M90.0437869,12.7108185 L90.0437869,30.1148773 L88.8305894,28.9381726 L88.8305894,11.533369 L90.0437869,12.7108185 Z M87.7790026,10.5115723 L87.7790026,27.915631 L86.5643157,26.7381816 L86.5643157,9.33412277 L87.7790026,10.5115723 L87.7790026,10.5115723 Z M85.5127289,8.3138155 L85.5127289,25.718619 L84.2995314,24.5404248 L84.2995314,7.13636602 L85.5127289,8.3138155 L85.5127289,8.3138155 Z M83.4095554,6.27245622 L83.4095554,30.5349162 L82.1963579,29.3582115 L82.1963579,5.09500674 L83.4095554,6.27245622 Z M80.9816709,3.9168125 L80.9816709,28.1800172 L79.7684735,27.0025678 L79.7684735,2.73936302 L80.9816709,3.9168125 Z M78.555276,1.56191354 L78.555276,25.8251183 L77.3420785,24.646924 L77.3420785,0.384464058 L78.555276,1.56191354 Z M76.37018,17.7393694 L76.37018,30.5230002 L75.0758048,29.267352 L75.0758048,16.4837211 L76.37018,17.7393694 Z M73.9430403,15.3844704 L73.9430403,28.1681012 L72.6486651,26.9117083 L72.6486651,14.1288222 L73.9430403,15.3844704 Z M71.5166453,13.0288267 L71.5166453,25.8132023 L70.2215254,24.5560646 L70.2215254,11.7731785 L71.5166453,13.0288267 L71.5166453,13.0288267 Z" fill="#CC2229"></path>
        </g>
    </g>
</svg>