<?xml version="1.0" standalone="no"?>
<!DOCTYPE svg PUBLIC "-//W3C//DTD SVG 20010904//EN"
 "http://www.w3.org/TR/2001/REC-SVG-20010904/DTD/svg10.dtd">
<svg version="1.0" xmlns="http://www.w3.org/2000/svg"
 width="500.000000pt" height="500.000000pt" viewBox="0 0 500.000000 500.000000"
 preserveAspectRatio="xMidYMid meet">
<metadata>
Created by potrace 1.11, written by Peter Selinger 2001-2013
</metadata>
<g transform="translate(0.000000,500.000000) scale(0.100000,-0.100000)"
fill="#000000" stroke="none">
<path d="M2328 4996 c-1 -2 -37 -6 -78 -10 -149 -13 -347 -53 -499 -101 -555
-177 -1025 -534 -1346 -1024 -122 -185 -240 -440 -298 -641 -37 -125 -46 -160
-41 -160 3 0 1 -8 -5 -17 -5 -10 -11 -36 -14 -58 -3 -22 -13 -85 -23 -140 -19
-114 -26 -441 -13 -575 47 -477 211 -897 498 -1280 85 -113 318 -358 396 -415
22 -17 49 -38 60 -48 45 -42 278 -190 387 -246 178 -92 333 -152 523 -201 117
-30 122 -31 285 -57 113 -17 442 -24 583 -11 749 70 1442 493 1857 1133 58 90
174 309 209 393 88 215 153 474 178 707 12 108 9 449 -5 560 -58 456 -247 902
-533 1260 -62 78 -243 265 -324 335 -217 188 -543 373 -815 464 -194 64 -291
87 -495 117 -71 10 -478 22 -487 15z m213 -939 c13 -9 109 -198 109 -213 0 -1
24 -54 54 -116 29 -62 61 -130 71 -151 10 -20 18 -48 18 -60 0 -13 -30 -86
-66 -163 -353 -754 -347 -739 -316 -769 8 -8 254 -134 547 -280 l534 -266 40
-87 c22 -48 54 -116 70 -152 117 -249 177 -383 179 -398 7 -44 -29 -81 -71
-73 -30 6 -1986 984 -2007 1004 -41 37 -47 20 191 520 31 65 56 119 56 122 0
2 29 65 65 140 36 76 65 138 65 140 0 2 24 54 53 116 30 63 82 175 117 249 34
74 87 186 116 249 30 62 54 116 54 120 0 3 11 23 25 44 27 39 64 49 96 24z
m-572 -1979 c186 -94 309 -162 318 -176 12 -18 13 -28 4 -50 -10 -23 -53 -49
-254 -151 -598 -303 -737 -371 -761 -371 -33 0 -66 35 -60 65 4 25 52 131 175
390 23 50 43 92 44 95 5 16 29 69 79 173 31 65 56 123 56 127 0 18 44 50 69
50 14 0 163 -69 330 -152z"/>
</g>
</svg>
